<mxfile host="Electron" modified="2023-06-15T03:13:23.441Z" agent="Mozilla/5.0 (Windows NT 10.0; Win64; x64) AppleWebKit/537.36 (KHTML, like Gecko) draw.io/21.2.8 Chrome/112.0.5615.165 Electron/24.2.0 Safari/537.36" etag="2OgghG2wYv62XBeZaNFi" version="21.2.8" type="device">
  <diagram name="第 1 页" id="TiUcTzkpdyk3yZOjxuos">
    <mxGraphModel dx="1063" dy="505" grid="1" gridSize="10" guides="1" tooltips="1" connect="1" arrows="1" fold="1" page="1" pageScale="1" pageWidth="1169" pageHeight="827" math="0" shadow="0">
      <root>
        <mxCell id="0" />
        <mxCell id="1" parent="0" />
        <mxCell id="nKBGLDgv3Pfraqjz_WuU-1" value="" style="shape=image;verticalLabelPosition=bottom;labelBackgroundColor=default;verticalAlign=top;aspect=fixed;imageAspect=0;image=data:image/png,iVBORw0KGgoAAAANSUhEUgAAAEMAAABcCAYAAAA1Sgg9AAAAAXNSR0IArs4c6QAAAARnQU1BAACxjwv8YQUAAAAJcEhZcwAADsMAAA7DAcdvqGQAABL1SURBVHhe7ZxZkFzXWce/3vfZF412aaTRGpUiyRZesMmCF0jixCEOSaUCoQqKoqCo4iFVPFO8wiNQxVKpCjYFhDIUIQE7cWyTzUZGUiRL1mppNJJG0iw9va/D9zvdV7pz5/ZM93SPFqJ/6Uz33Ok+95z/+fZzrjzzCmkR1WpVCoWCBAIB8fv99avNg1tWKhVJJpMSj8clFArV/9IarHEEg0Hx+Xz1q62BcRSLRdOHt37tIRQPybDhIRk2PCTDhodk2PCQDBvuumut6t0qestCqSyT00mRYETmfQEpVUWKlXnx6Gf8ukR+r0dCPo/EAl6J+D0S1Pc+j0f08m102rXeVTK4U65SlVvZskykSnL0alIuZDwykZ2Xm7mKTGkD3SGfDEZ8sibmkx29QdnVF5RNXQEZjvoNMb46Iw8sGVW9zZVUWd67kZcfTuTk6M2CjKdLUlBpKKtU6ItpTFMFQKWgJh1BbUNRrxISksNrwvLE2oghJqoS88CRgUpkilU5MVWUN8az8t9KxIVkSVKqFyXVGdRmKUAOpEQDHhlWaXlcyfjYhqgcGg5Jf8grpWLBRLD3PRllnelMvmKk4Vvn0vKjqzm5paqAfVgJ0I64SsTBoZD8ypaY/NL6sPT5qxKPhMR/P5NBp9M68bcnsvLNU3PyzmResuV5YzfaBYZ1Q9wnX9qRkE9tDMr6noiEA83bLjvsZKyKa2W+mWJFvj+ekW+8Pyc/vd45IgBeZzxdkW+enpN/OpeVy6nKsurWDDz5fL7lbhAmGPV6vabZQWd5nfhb1wry96fT8u5kQebUZjS6CYYS7+C33KY2079+oaQ/mKTbd2u2RGRzwi9f3ZWQF7ZGpT/sNddbgTUXbI5Hxb3ROBuCDsrlsunATgYdQcTZ2aL81Yk5eXOiIDOF6qJVY8A1/ffIgBrFDYmADEX8EgvWpkIfM/mq8TaT2Yqklcw87LgAlTk8HJSv7oyrDYkYL9MKIdZcUPeO2oyKzno8XZZ/PpMy6jGp8YRzDrjNkDIxFPHIIwN+ObwuLmP9YRkI+yRSnwhkJJWACSXjf9X4/uhqXs7MFDVGcfc+vepVnlYi/vCjvbKrPyQBI2LNYdUMaFbdBAbzT346Jedmy8Z1OhHVoGlXX0BXMiG74yXZPNAlCfUGXmXJmgLfYlgQiTeCkH85m5bXLmcko0Q5u2Xu62J++Yqqy+/u65F4sHnPsmoG9FqmLP+jXmNcg6uyg2Mm2lNfwd/f36uxQkRGNJiCHFYS28GkaFbAhQoMRn1yeCQiX9vbJZ/bFpc1+ju2wg7IQR2xT8QweaK4FaBjZCAF52ZLrp4DIpjYwaGwvDTWJU+ui2q47TfRJX9bCuQjPRqe7xsIy5d3dskvrouYUN0JbIq5/7X8kgZ7KXSMjGShIienCmZATjHGW6yN++UzozFd5bDRcSSgWfDZWNAr+wZD8oWxhOxRu0DiZgf26oYa23dVMq+rhPJ7q+gIGdwWq4+RS+mqOKG2UZ7ZFJVH10TU/a0sUqxJl1f2D4aN1xiOLBw6YyiqLbuQLGrcgb2qXW8FnSFDdeKGrga2ouhYEdRjc3dAntScYlj1HbFvB3GVkIPDYSMdYe3b3hu3vpapaEJIAtg6G22TwQByaiNYDdJw5xgwkB9V8d6habiJAdrjwhjWDRpoPa3JGgbZrm7YKQwp7h0JXbgsy6NtMtRUmqDoolrxjMqmfQAMlAHvViKGjBdokwkFPfSqQT2kxhhPY9U2APemJDCp0oH9aDVq6JhkEGAxEDtQiRH1/9Qf0Pf2qaghrL51WPvdov2q4C3CjBrzKY1PWqOiQzYDO4E7U04WQLXCDBpP0gGhWABs0baeoAQcXgWwOEZKW2SjfTXRGxJjpPXmTndGVNmljHRpRLh8RNEaCLzIa9wMMuE8hLSK9snQBgkEWg4tMdIQVjmmbtlpeJSEuCZ2bgYZdSUKbZWOjqgJAkGN0+3mDJaBd5oO+mukeoykVRUBbZPBeNDbmMqtU30hCZFdySotB8hPF90njT1BIluFl+yz1UaWR+ZaKpX0fUGq5ZKqwrwLGZqK58sylc5LvpBf8H17H/a+m23ZfEEm00XXsFu9uQREs9FC0fW79sb9rXF4rWpVqw0g/rzH1WEknXEEySOB2PUskdid71rfM+pTf99K0y+pB/PIxbnSouwYUBchjScG8bh83964PzDjoCbRaqOGQUe8hvT3eDggQ7HAouSJgV5TIq5k56XqU7L8C/tgALza+26mic8vMyVRMiquOQhZbn80KMGgjsnl+/Zmn0vbNsO4T12FUc0/CL3tQIIJgE5PF2U6p67XTcFXgKSG3EdvFuWGCf8X9sl6rIn6TbC3cDTLo30DqnfEWBFlmpDbMYJsad7snlEXxZi2CybPztybV7Iym19YX0VLazVVvyQ0obNUoFm0TQZAOshIN8QXqwrRKbrNThohOxtLKwXfJNKlDHjiVsEUdOy9QcZIrEZGaCXepP7aFrgtm8Lbe9V+6IrYwdwzKh3UL49M5k1NcyV0oGGk5e9PF+RNJfa6JmP2fhgDlbOtKqFU23nfKjpCBuhX8fzIQMgkT85OkYbzsyV59XxajqnKuBWKl0NZ3d+Eqscrp1Py7vW8qZTbgedgDIfWREwutJIMuWNkoCokTo+vDRsbYh8Kw8bqU5L7hzMpsws/V2xuF4yPkPecUiP81ydmjbphlJ0g0Nqu939sJGwM+krQMTIAqnJgKKykqMtyrAyTwgv88GpO/uZEUl49l5ELc+Va8bj2kUVAosbV3vxgPGu+850PszLpsnHNndhNe1yJwJA77Vaz6Oi+CYO/rIN/5YM5eVnF2VS+HL3DEZtIa2NeeWqNX57c2CXbesPG+jMJpoEaQRIGF5XgKAMG023PhM93acj5hBLxRwf7ZK+q6n2xiQSw8B+okfuzIzPytlEH97wErxfQhn7v7g/Ktu6g9OrqAipnE2ogj6rXuJIum3TcSaoFUvlHhsPytT3d8vyWmKYFrRWRVpUMVi6rcfjrlzKq40l1gzUX6AYG7dPJoFK3N54VfJp4AnUgUHNKgwWoWxv3yW8qEV/e0WXKgNiuVrBqO2qACRGJPjYSkV/bnpD9QyF1c/U/OsAcyV8IxjCSSBGNYi5qgro0IgLXuV6JeHFrVJ7ZGFWpap0IJzpOBmBQQ2pMP6mD/ML2uOwfDBmbsEK7tgB0QbFonRLxwmhMPj8aUXfuX7HRtGNVyAAs0ojag2c3xeS3VIwfGQ5Jn65eK8bNCb7KUUhO/700Fpev7Exo1KvRZidYVnTcZjiB7qMC7Lb9x8WMvHYpKx9ontJI/BsBIrpVup5TI/mcEozR7Al5pNLJA27JZLJlMloFEy+oDbiSLsmxqaIcuVmWk7NVTe8r6ilqARmG0rKzTJxCL56CXbNB9TKjXV45OKBtMCibNNzuUmL4XKvJ2FLwZLPZlslAmGDUKpA0A+TPlOqUlEm95UUNrY9PpuVy1iMaQpiN67TmMAACkALUamt3QHZozrMl4VOD6ZGE2gu2ICwwDnMEaYWkWHMxfay2mrgBUorlsnx4Y1aynrDkxK9EVCRTrJOhE+aIIw13yWY1W5NOWONAxDuiJveCDGs1ZnksKxaXYP2xLEgCrLK1zix4ozXvNBmr5k2aAZNksug+zQRf2nAO1jX9d9dwT8m433DPyEAh8DJ4EBI8t4Zb1n/G+N4N3FWbYW6kP7ANPG9yYyYpgXBUPP6ATr7+dwWqQc4SUB1ig4qgigiTyNZuQx5IA8oNWOnpfMWk5ZyfuJoqysXpjKQqPkmVPSYXuf3wjc4LArqD6kkiXlMnodpNnXWNvuJdzI4ZpD4oZCDiVLSocVCpOp/UNluWy6mSedAmp+JQC7hqzRpKzaiSydaMKsRw6IWznlt7Aqaitp3Xbr9EpCyxyH36iAUEsHmUKlRNxElR5ifX8+ZIIo9XkM4vlY02Ap5FOTHZKsHYnv6gqWzt6vbK9v6IDMQ4EFNTpVawamSwujld6quZkrx7vSDfG8+YShUnAZl8yzdqAKYLOWSve/sC8sub4vLY2oiMaaSasLYVax9dFqtCBkbxWrpsniv57ocZeUdJoOyHHYCk1QCEUBSiQoakfGJjVD6xISYbu2pS0gw6SobP5zf7GWwh/ueljKlXnp0tmUyVk3+rxMMCMG/KfdQ4eI7tV7fE5cBwSO3M8senOkaGR4nIVb1y7GZe/vV8xhyiv5KuGJvQDBinKfvp6vJqXKde49vEGEgUXqhZFWPiJHhsF3x6a1yeXBcxRaal1KYjZOTyBZlVl3hsqiwvn56TH9fPbC/HA2k5RpD4gcdLMIa9EZ8k6okZpKBaSBZZLF6Hxy0oDXK9pMNdbsQxbMlAUF7clpBnN8cMIVbl3YmOkHErlZPvjhfk5TMZ9RhFKdRXcCkgzmvVPe4bDMpH1PCNBMuyvjcmvdHgncBKP4dEsEcLAWxH4opPThXNJhQ7c1TLl7oVk6YvaqQvjSXk89sTsjGhKu2iMwvIyOVyLZHBQDlw+h01kt++lJfjU0sPjkFRiNnW5ZMDSsKe/oB5lKo3qBFmpSCJaFhCwYCZgFk73mhn9MgyadfmGCNPJl3XgO3UdEmO3CzKSX2dzNWeUHJbTrpB+ohNqJM+vylS29xy8IEssLjm4EqpVK+oNAGeGWNr79VzafnHs7UdMTZ23MAiECix94ruHh4Oy6gGSQMaUUZ0kNVqRdKptMRiUbMqjWB61x+Qw0LUjkNX5JRKyutqrNmKmNVrnPBzGwlhx9aETz43GjPPq5i9YL1GmQAiaBxhwhk0rSaoAKH0G5ez8ncnk3KKx6RciIB4pGFEQ+cnlISPb4iaLUfCaFaKv3NLxHOl/80MRhX7dHpaY5kPU/LW1YKcUfVht99tMtipMY1av7SzpjKE89b254psBqEze55//t6MHNeokjDaDVS/N+hK/PbeHnlOjRcVcmdFvF0yAIOuqO+ezuTkzWsl+caplByZrI2rESEcV/jjR/vkqfVRk/cgNXYysFfLAldJWP3tixk5O1MyGaYbODXz8Q0R+fqhPvmUujakwVqBToNe6ZoNq6d1cl8/1C9f3JEw25Vu2xHEPFczZfnbE0l5Tw0xOZMTy5KBnhJZQsSPr+XMM+xuzPN0EZu/7Hl+cmPMnBlv5M46CarofXrvA2qTfmN3t7ENbDk6F4Exkxkf1UX91tmULqp6QMeqLkkGdoJcg2fYORdx1XFaBuh8jbfgfy/4dV2ZRzUC7FGd5PrdAsaQzaXd/SGzpcm+CjbLKSDMh9jlrYm8fH88Z9IF5mPNaUkyMFQ81UOucS5ZMkGPHdyLZOmghr6/t79HDabqYohD83cf3JNYZc9A2DzHhromAiqZjsFgIXEEP7iSleMaObOfYy4qGpIBizD3X+o9EC0MqBOc39o3EJLf2dtt/n8L8oN7DaRhTIOYz2r0iSeLuqgqa8qDhf92ISOX0xysrV1vOHrOe78/VZDXL2dMkIUBsgOdHNMg5ou6CpyjiukquNitewKT2usivTBae9IRI+scGiE+Ee1bKiGW7XAlA6KI9n6iBvNnGmoTGtfJM6DjvpBHntI44mOaNhNctfsgXidBwkfC9gtq0D8zGjcpvdPDYAIoNn1PJX9CgzhMgCsZfPBnqhpW8mWPROiS7b8DgwHz1DL1yVarS3cD5CEkgZ/eGjNZrHUqyA6Cxvc1rH/7Wu0/MFj0CeZ9Q6WCMPfcbLF20QbMAkHVZ7dEZIfLQbb7CRAyEg/I85vjslfVxenhsIszhXl5Y6Iol1KVxREo6vPa5bT8xbFZU7pzPqeKPj67MSIvbA7Juu6wBP0ciL9tkBW8se5qfw/u9EXkl06nJRqNmryAz9n7qb1f3JclhPxtXsdG9BjQRM/rpSB85/P279/Klc1xiH+/kJYbmtzZwVpy1vwP1BsuIAMrO6uJ2F8en5VXTs8tOoULCKT2aua5RhOusF/dqPbG7a1hOD/vvGb9zkTK5ZKpanu1ufXhdg3wO2DoFSvj1Nnfvl5/tUChiP+0gOh5WtXBCdT+RU3iFpBB5ndKPcifvjOlxrP2gL8brJs+aHCfTQ2UC2/bDD6IOz2vdoJTNo1O6AH+8iC2pcDejjefz4tpubzMZvIyPlcwqbDDVPy/BzURL6V+qwVoPvTvwVWFlQJLcoeMgF/iIb9s7gnJoCl+1D708wIKPrenjCTwoNtOjev5TzvIAnE7XF/Q3K51qumPRdfcmv5YdM2t6Y9F11wa8cfOXkfZjzd4FPZB2AyiIs2zowtR+50iqnFnnjsixM3v9LYU9EP6wbLGGrhWex/No/E4FoDZ8lHr1YL+7tEL5vx61CvPbHG4VsAveBUeh2Dvwq28N68DINjxmx21lex+U/arSmpuTmKxmAZNjQvCS4FxFCjZ6TiIVVaE+ar4qyUZTIQXk9EMWI1Gu/DNgFu2WwMF1jioX3biSMLPmZlcGg/JsOEhGbch8n9T+0pso1Gd6wAAAABJRU5ErkJggg==;" parent="1" vertex="1">
          <mxGeometry x="92.06" y="282.14" width="37.87" height="52" as="geometry" />
        </mxCell>
        <mxCell id="nKBGLDgv3Pfraqjz_WuU-2" value="" style="shape=image;verticalLabelPosition=bottom;labelBackgroundColor=default;verticalAlign=top;aspect=fixed;imageAspect=0;image=data:image/png,iVBORw0KGgoAAAANSUhEUgAAAE8AAABZCAYAAAB/u3kAAAAAAXNSR0IArs4c6QAAAARnQU1BAACxjwv8YQUAAAAJcEhZcwAADsMAAA7DAcdvqGQAAA4lSURBVHhe7VxbjxxHFT7TM9Nz21mv7dhJfImdOMSJSZQbCYibCE8gRF7yEhDwE3jgCQkhARJCQihPPPCAQIEHnvIAUoQEIVdCIkJIUJyAncTYjhPbcbxee3dnpq/D+aq7Zqtrqnv7smtk7Xz22Z6urj7n1Om6nFNV3bUxgxTg1PM8cWy1WnFqMWwEjzAMaXV1lWq1Gs3NzcWpxQD5rusKHrZtx6nFAB6O41C9XqdmsxmnRrDi4wwlMDNeBWQ2W9tu8ZGbkLjAVIuPAH4DMl2B5IGbo+aiZchCLCMcR83W4ibX05utKlPqYwD0EM3W4mbbVJpthu4AklisIJQhrdmmGi8MxzS2mnRxOaQVZ0x+kKlnAuDhw3gsvKkqXQBjNt5wMOSCW9TpdOLUgoDxWA88gIZW8DTAXnaDaL5j0Y45ixrcNl23gPFc16PlYUCvv0f05zdG9PY5nwYuG3OSJ3oqiSPSo8sROBHnFj91NZ+Eeo7fgMwXnRAFPGjgFAaUyOID6Oc4wSkGDWC9/KwubetadM+BJn357g597IY6920eNUzG831fFcWMxjQY+XT8rEe/fM6ll952aXE1JI9r3lYATGw3a3TDNou+el+bHv1Um67vc/fT5FrY4CqpwEIT1Wng+HT0jEevnHDp4srWMRyAmuR4Yzq3FNBfjg7pxHmHXO6zuJJN2cmCH6ZSu91m8zfoI+7rLg1CChL1cusAFeb9RW6FPte2WtRkdVtxX1oT/YEkAPZyfYoGiS1qPB4vacQ9mrSBbidQqp8Hm21Vw0mg/FkmMI625y459KtnV+gXTztT/R2G7hZ3qM16VEvTIdmuly8dYpzk/3jKKnCa/8Gm6yH5uNw3jdibQG1T0awTPfbNBXrosEXbeo18rkqW8bb3LPrCkRbt38GcY4ABVJsc+UcYRjfCP0rD1H3xEYAe6JRRQjunj2aCHwTC+HXF3dHx7nmfnnnLEe6Yig01Hgp2YFeDfvDIPD14KCvgj6MU/pXw7AsATvLq6kD4id1uL04tBtRcT0wMWFMFV/HU0RH98InLwrNQkWk89kHTH0cK0Gx77cj7TiPUTkHdmvF6Hop41GihAo8dUg/mY7weU6/FnT/XDFnrcwGuSvyzFNj4oqpfGYZ0md2apZgu8/mAQ7og+SA3BZABHVT5Ez0EQb9xIn2Z9RuxL5dscwVRpuZJQPDQC+nYBy69eGzEfcaQno3p+X+P6M33fVoexZk3EQMn0uE5linlT4jTXjju0/PHvET6S287dOqCR74+QhQB9+XljccEHwgTB6cvBnTywhqdYoKTDV9xs4E+GTpApqqDpPcWoV+YSDuzGIgaCduVNh+HapWaLQSj2fCAJgw5IaQxVXiuuYFBAVGQx5ZI6JBJMFwVyzG40JWMt6UxYE8g/jlDUWCiNv45Q1HY9sx4pTE3RxbmqVQKuCPEsp8J6F/RQYecJ+C8tXHAjuiYQzWig9et0YGdRLv68NDDBO8iJPUAma5LsigUOhzcWUvoMCHWRZCStm87Ub/N5QhZDvNAKJk2doxZPqId6JOQza5KbThkD1IBwrMLVwL67YsjY2x7aHedfvRIlz59my18Pc+HM5wMquGp12pjEY3YiHFKAEbDwguQtYYB2WIE5aPJ6UXhAXUqHz8bHFJgcgOTA3/8l0Pff2KVXR5UjTVA9Z8+2qMv3tGguTbHx1qcboxtzy469OvnzLHtoesb9JNHF+hzt0ex7bTCUSFEUM+/MWlYBkUWvU1GA1AWrJ4hPjYuRMUh2ZOvDem7v1sSvqluvMe+wbHt7RbNd+tTC+fGPg9PIw26nsibpOhpypzasymEvHcm5SdJcjFd4//rI86kT4sBhaekrutb9PD9HW6+ycUQMJHswSPAlBQnykUT9bpE4h4m9Tp4oNmiubXiJ448QCIfk4lHlJf1QJvm1EbD3H0g31tnPPrDq0OxxKpiQ6ekgDr6Me4rUnSZQDJVC1oUggf/MTz0QgCfLBYoo8N9d9ISm2C8rYT1jGfs82bIh5nxKmBmvAoobDx0vJiyxsCxHsEZNaXnJcgRJM+14yRfxlGSmi5pkp41mmSg8ICBHUTbe3Xq2OtIZD5ilCs9VPL9cdiiRgdTEEKin0bk0GPVCWlxhUMwLSrd8NH2xoU6fftLfbprf5IRAE7QETwQ/4FxiwXCBlJ3HNRzEyKNxjQYDrhWTG8xk3LAQmSNIc/X0qMdXxYbH/4m0iEbNQ3XIzlEL7/j0M//tCLWPFRsqPEgXIRnX+Pw7HB62AUeYumRj1cjPEsD5OfZk5wZnm2mq4InKabiNYpb3KYDYtJ0yKKN0K+08SAbawFLqyGdvxzQB5f8CZ1dCugSp7tXwcGWOnxwKamDoCWfzl0OBanpH7K+K8OwsgFLN9vP3Nai1VFIr59yxYoU9rQB+IttLHsWiO66qUl7d25us8U67BunXTp+lvvYuCQ4QNeJRiKhNknrt2t0eE+DPr7P5gGwVr7ZjkYj0snzfJaisomAFBgXWxiQbzByaHng0ZVBMFlQFgvN/FQxgjmuP8U7L2FSQE48mq5LGgxZh6Ev5Ko6THQZjFmftUXxKI1rHus9HI4EoTxaHZoAe6sxEYo+XJc9ZbxIaczFmQEhrhMZz+W8YGwWG83p6fyLUB7jQV/MBhcBygC+uHfkcDnE3KMZKEOq8bZt20Yqzc/Px7tDUcmTQAqG/d5cT+Sd6/fFKGbyoZDWbncSvIsQ9MBIDV1M1yX1hQ7cNUyrkAqUAXwhAzy63a6xDECn0xXNFe6SLntqZ6ikTCTy8TFKnQIuqzzLUMTHfE2QyCCyFYPUDf/4mIWEvJjAoLKr8n9HGcMxJretd3/KddivkvHgqWOXaLdVE9u05mLCb6SXjRmLAC+otHjElPJ1PUzUtS0eSVGDYiYlUdp4kAulb97VoHsP2vTgIZseAN1q0ydusenQbu4by+1rLIQ2PyTo8MAtLSH7QSYcxe9DTbrvoEX331wX6dARdPfBJu3ZURcTA1XsV954LBU+0t4dDTqyt8k+nR3Rfpv9pybdtLNOnXIuXiHAeHvZEHdyrA3ZKt3JdGRPnfVrRGmxjrff2KTd8w2qV2walZotDIi1jCYbEYZUqYFmEefbTEQ6TMtPEOuonkNfTEVV1a/wrMo+fsrf+Uqf7j1gbpOCGfPw4HvxSdPWZiKYdL9QT8M5toANBwMxHdVlNwHX1cLq+XWeAsxDfXFP3i/zyvMXjjn02JPLwolWseFTUl27Rvu5SeLlNsBUqBr/FWz5f+ZcnAbJS/IIOILHb7w0lwfIC6g88PYmAN8uDZjLO33Rn9qMueHGQzNB7Br5OmlQWa4VpRgSajH0+0089TRdDxVreVHLsStDl7jhU1IwNXZ+egE3zVSK1kIjkud6nvVI5WG6P09avvsxRaUbLg8KG2+GNcyMVwEz41XAzHgVUHNd7W01xvkljx5/YWAcbfudGt1zU5099LXRC+5wtMAXQ+WoD3IArivpifvlNT7CVcGgbsGjzYLGb4KYpUDM05QPLyW/ftqnkTath9H2Z1/v00N31Gm+U5/e3KjvDAUuXPHpN3817ww9cF2dvvdwl2PJ5BYzHZhGB7L8qyzAZRJbzNh6ZVfgAPmRhyw9nn7LpR//fkCLq0lTwHhiZ+iRBvXbluABfaR3N1t6ZOTZGbopS48QBiVVEumJR7K50OXrZMwjUnPA1B3EKG086DTyQnr3nEevvOvSi8edCb3EhNWslWg/9qYCbzziZWN8wuRvLFclpP39REAvv+Ml0l/9r0tnOBzDsmUVlDcek8Md7MkLvlh+fPXEGv3zpEsnLgRcsCjvZgKvt5/8yBcG+QfL1um1U4EgNe2N0x6dvRSUjiwkKjVbCIYC2PYbhTtrJBSr9mBzAQ0QstZCrjyEVx+qK1e5z9vKmBmvAmbGq4BKxhPOJ/8xESKDq4Nola4YIabhHxVRyXhQBEt5+ILEzrk1whcj8K4W3j3bbCBy67Ugt57QQeohvmzBpKZDX+xsrfqAS0cYn+UIA1Pc+EoE9gUlt2vxSehTix3yXskltLwRBiZmsUNL7tJSgbLINQw1OoDBsRAk15av+uZGGBJLd3jqC/wk1e+U4MlerZonvvPCtV+VnyCudfp3VbD+gpoHw1VB4eKhhrn8lOHZr0dDdpJN6XloKIkdcdP1vCT5mK5Jcg2vTuVB4QUgbOj+1ud7dMfelFmVmBu2cAGNZsbsi5RsqAHQwxmOCB9LbWHXlgrcp9+TkgY90PTrGS/LISp6/PmB+LiOivWabWHjoa9AM8FKfRYEW85SflSTtWHMha/S/iM+MGAaUDOXRyVeJdAnQ1HoDy/7qZOhWwkwXtZkqIVRTSe8Uw9UHcqvdaD8ogUxmew09c1QULPBVZRbykbs57hWAcOJPTDcZ8tvJOt2MnYmcEEwnGOPW8lZ9GseqDi7+hb12OVKc2mMpoFze9uNDTq8pykGh6r+0LUG+I4LXHk+eatN+7bXRQ00wTjaOq5HH13x6Zn/hPTUUUdMeIrvzcV5xA+dn56GroIPot+U17LuU48xpGqJkVL+zOKlgtNEsn6fmhe/YyDfXNsSe/oevr9DD9xiU8vyxDcKcrkqYvs8e8NO0BBT3B9eCdlZTWTLBDgGQeznaV+1zgvoge36cFPa7XIhHvSQfl7aBxp0wJ5obXu5xt28uyFCOK/It+HlylfTtoXvwwOL+nDWheQBZK1aZQGjGWJbLPf1eiW/Gcp6iO+q4Juh2j7BLKD2oaVGO0ejJdDCxsOIUgYbwUMab72JgSxAfp6lxyyAR5rxtuhYujGYGa8CZsargJnxKmBmvAqYGa80iP4HBxFptDfRmBAAAAAASUVORK5CYII=;" parent="1" vertex="1">
          <mxGeometry x="277.16" y="150" width="43.49" height="49" as="geometry" />
        </mxCell>
        <mxCell id="nKBGLDgv3Pfraqjz_WuU-3" value="" style="shape=image;verticalLabelPosition=bottom;labelBackgroundColor=default;verticalAlign=top;aspect=fixed;imageAspect=0;image=data:image/png,iVBORw0KGgoAAAANSUhEUgAAAEsAAABXCAYAAABMWrgKAAAAAXNSR0IArs4c6QAAAARnQU1BAACxjwv8YQUAAAAJcEhZcwAADsMAAA7DAcdvqGQAABgPSURBVHhe7VxrkFzFdf7unefO7FurRSsJhCwJSUhC4ulADMYmCRXHMYSnXNiAg20COKHiyn9SlR+J86iE4MIh5TghCaac4DhJUWAboQcPGcRDAoQkJCEeWu1K2pV2Je1jZmfmTr6v7/Tu3dk7uzODhVVhj7Z17+3H6e7vnj7ndN/ucQqFQtF1XdRKxWIRY2NjGB4eRktLCyKRSCmlehIP1o9cLodkMgnHcUop1ZN45PN5wyeRSJxWHrWj9AmmWbBqoFmwaqBZsGqgWbBqoFmwaqAZXQdaVeQZPAb+jVOREXIdRkZG6Do0w63gOsgIB8tNejYmu2DMdiLpm2xrtJUnaMCDz8F7l09FLw/vY3AdpgVLjcrmgd4h4OQYUBjvpV9BLj+GzGgWjY2NqMtX4z91Ug2Nx2vvaJRVtieKaIvnEcHHABYlo1ieKFD6Rh1s7XGx5VAEfRkXec8HT6TcqsDzPBS8AqLRGFzyCGA5SQpEpox/a8jnoTiPfIoEO0Iefh6bN3i1ZHnYuBgB60oXcFVXDlcuAFoSlLZggSpJfVGfpnOuHQ6lSWCpMQMZ4GfvA4/tJgCOi7ObHDSzEWJjG+uDJanIIRFPktMEj/K22jKiYJrii0UCXvAIuLiH91KxymtT7X2B4fgo0DPkIR31cNca4Ir5QFOM6eGsKpIkS32KxVi4Ak0ZhpKgVw4D/7YL+PAkcNtKYOUcoDE+2RqIsXTWaGYUzU3UWXUMQ3U7XxqGRvwrgFWJBNqJLPBqr4cf7yvigs4I7lgFrGj3h2g5Kb9GjSSvvC916awMddQPdwNPU7J+ZzFw/VJftMvLW7B+1XNDjzy6T+Txw7cL2NSTwL3rHFzLdiejpQwlElBjFIRBimMLm5oMoFUtWFPwJz8M53xmCxqBBCutow8fG6lpKbbxrDSNEYE4ybbLcpdTlh3bziH750eAHbwGjVW1NAUsvYIcGUeY0sBGRM5goCzZtupF5whYGA6jjNx0CtjNYXuKGevAaipYQSZBidKbkH54q59viG/nwKDvVoyxce9Tt73ZB+w57hsHgX2I7sZbjHvjKHB0xNeFIvGXBHxQKvM603f0uXidPCsF1XmM0mB5hJGaytEUCkKWkb2UuG1sh/KZvAzqU7n/OB1N0Vkago+84XfkGxcAl84D4hzjo4zfTTAeep0WiIBcNq+I25ePYWhkGE8easH2vgjmcSjcdB5wPg3C/7wLPPuBrwNvp9K9cqGv+9Th3mHg32lAdhCoISoS6Qy5DvbdqPH2Xi9MlvgW8r36HN7T0ARJZQdH8/j5gQK++1YCd652sH4FkA4YNQH11AngR3zBcfL7didwOds6wrYIrJZIkUD8Etez1IERVvqLXmBzt/+2M5QQSZck6sUeShEBHqT0CRBZ0peY9/lDwJGAZEnqDnI4PLHXNyKbu+XLudh0ENhYCsH7Zz8Efs58TxL8k+RdK6naHrZ7K1/QJQ0Tiv0U2/4y47bI4eZ9NVQ1WJZilDI5gtY0qzF6EXpWsO9E5lnPyh8kFUsxbm7Kf/sxvlXxM3xDQoJBbsuCJl/CayW1p53lPk1JuoIhyQi9eL5jDBCkY7zRdK4aijzwwAN/GhQ7vfnXqCckDRef5VtEKVDxEzACYM1civF8+jOtBThejlOVJBa3uriI4r2WaXP4BqUPziIgF0jku4D5pc6qJoGgobWkhekdRVzc6eGyLpfBH/YKl7BuXRUnR/Pac4GFbIvKllOGYvvuQBHbjkaxrtPB6o4JYFVfmm1ewvpifHiZ/bqA7etg+gFO4TJs5wr61CnHVwfRaLTiMKxaZ4kE2LgS5U3OTKSH0Uw/SzpHpHpU1Xg+kp6D9Y/z4X/GKaWflZjGzzLlFUKSq9FZohzre4/D+C+oJ29rI0AEbyOHoIbj77UU0eF8BJ1lOxQksdDwkjuhq+Vp402cH2XSxuNsZIn0aNMsL10rhTAe5WR8K4YZsn0kmgKWGiafRS5BP62evN4yzM4oUttkZI6xrZpepjQv9JMMgHJ3ZJjCHNUgKV18ZKA0usLclClg6U3KBRBoW2nJ3qPJlRWipBs3IBhMXMHxQ1laTYEvJjR+hqD6Bcb+Ey529LtGR85jkF7VqBBIsrqbaVUFwHQkXb2dqufB1/zp3t4BPy5IU3SWFPM+ugKPscAWughXn02FSKXdyjEuAC1JV2hOl8lm0Jiucz2LPLTEU8gXaCTiFXVFJVJb+6mwXz3s4VUapeuWurhxGQ1Bsy9d8gfv3wgspiH5xlpKDqWuks5KcW744qECfrArQely8IVPAV9e6QuObdUUsPRGNATlM32Piv55AiaEjVvAUkE9ps5qicUqd0vl+SqRyUf51z/HqQy2GluJndrWFCviNxcVcd86F4sIjAyShpW8/vs2AOcy7t4L2S+6IJXAaqczMcSpxeFMAn/zmmNmGfcS4MsXTAhJ6OKfKpIIf0jn8c1+h1cXQ3wuFCcv+xY9j9Ysb9aAgssrSpvMcToS4NODVYkiThFtySLObfKwss0jUK7xy9Qd9eF4xsH9W6JY1FTEN9cWkCNYf30sgvXNHpbHi9g07GDIc3FdcwGdLiWchXLFCP5+RwTvcmivX17A5xZSGEqdMYt/kiy/wX6s7tVdVaixPpx3jKIXChYILY2YYZjhMCwtKyvepusapGCayKbLXCvE47L1PuTVlNW9mpugU5ug2U+6HhKGh08eX6yG4bc2OjiXw/KedUUjWd/pc3BbaxHLS5I15Dm4vrmIuW7erJa60Rge2u5i1zHgZk6xrjmHUzG+FGEzZRhWSwL0TFjPEo+wtajyYXgPh6EkayY/KxpPcP7r4G2BtRwc3hPDsHaUPsE0C1YNNO0wlG4Y4fxJn8FkHYJuh8Rf053R0VE0Nde5Bl8ahhpG8ZBphp6s/greW9LwaKDOaqC+iTunfxiGgqWKZA3tol43raKsoRrL/rFBuk7om0QiSbAckyby0ydfRcF7kXj4n6A86jx/AhssF6QgL5umCX4LrdqCVMFYw2UdMSSjVMTM87GBJe94B0F6nI7pc/Sz5PwFl18sqZPqrK/cy1MnSI23qeqn7azfcYGl+6mSGSwTRoqXT9gQ8XDVwiK+fkEES1rD/azTApYq2UdXX5/CNE34/DnAuk69Qb+QfbO+FcphVK5DwINXusgAontdK9D4F2kGefDmQ20pv61nunu1tY+AvNLr4aXeIm5YFjEdXNjkp592sPSmnjrgz6nOpn/yFbr8ZuFNWUqFRJP3OrTA1Zioldhrf4lmYq9DLSTQxij2u/s9PLqzgBP5GP5grWPWvzQSTjtYmpz+805/mnPrCq2d5/F+rge9Yyfo3ZIzSRKhPynmbDaLVCoFp8TRevImD2myZ0/nLpjOvwKHsRoZ1ywgAJbNGywTJMUnnRgWJzvQmG/F/+7jC343gbsJ1nVL/RXWasDSkvIX6JR2cLoTY/9qAkse+z9yTiid9ftrilSaI3j0yAvYPLiXjFl7gDQUFcbLi6mPkU/lzyFkksmjVqkS77ZICjfNvQjXpNdg6wcxPLwzga+tcXArO6llpiBYdm74nRJY8uCfpeHqp3Cs4JSpjWCtSxQQmwas0LGjDihdiR4V8EB+GD1jg+jO+uFgKXRT2g7lTo4/H8xM5DH5+DyeFhKU55Cu5BOWbsMknjaOvHtY7mR+lO3VlEQtN7hXJOXRErO+8Ci7snZTOPTR4g0CW7YiM4VCJcsuK99FyVo8ZwgP9jyDDQN7aHVi+O32VWiKJLFv9Cg2Dew1lX6mZSkWN8whqCN4+eT7BoDLmhZhdeMCRGnlXjixH7tHDmO4MMbJr4uWSAOubFmCRck5oFo3E/JIlKJAbkbA2Av7wmgrTbnnKNn7M/3IeGxgiTqiadw573LO7S7FtoPxScvK5ZL1hxdREtPAu1kaAE4h9ZHiKbpGTwwCi+l+fDGdx1V0QbT1qSbJCqMIe9ERbcQX29fgZor+rzcvoTMYQyoSx6UE5vqOtfh863J0xZqRcCM4P93FvKtxQ8c6LE4QFMefO+rr4Px4C24kj/VzL8bNHRfhhvZ1uIX3t3ZebK638GruGdYzqL4r+UJSrK9eUkclVfpY0ab3QhojYNJZHXw+j8OyhElFqhosKVlJRWM0geZo0oAkU69/krhGSlvKjdNRFEsHMYKTZh5JocrZpkg3Jdwo5sTSaI2l0EJezcwjnuGhAa0M7ZSiaAnwekktsEGSK7CayfJ8AtVOwOoDS5zKSHoh6+Wxf7QPu4YPUx8NUJRpyRgOZ09gL4fZh9njGOGQ0fLNIHXJgcwxvDNyBKPemCkvMvnHTuL5wX3YfuogdrHcntEj5NkbGnYO9eCNoW4zvEfI55dFao06v5KStkofXysgFYTCGRgYGH/WjVyHH+xO4O3jEdy+PINFbafwyPHnaDn2IUvTOi/ebKTmVCGDvhw1I6mDUpKOJJDzCjhGYyC90hZNGYlxKVX9zKf8AldtUvmOWKORPK2CSSmXW0O1xcbkWa94DHlZgj3R/HbqvtvaL8Z1TZdgx5EmPPRmAl9elsUNn8px2lPEQNbBn2xtwKJGD3evyqIrLTfE561dNd15x3zCl85qivgOSp7+4yO0qnsGI7hu8RiuXpDnyFBtBLehocH4SSY0+EE+T5RTGM359JyOJU3HpLf6cqeMZVTnNZwS7PhQIYsjlJbjBEp8pcsE2FHmPUyLpc4qromANjKonMpLwmTR5MOJZzD0Bu7FR4pew1w8bNDQT8cbjFKWZdD8VDOBVMrvk/oWof7UNk7TT/WP8WmG1nQKK1sacHFbAzp4n2C5KPudYr5YPGamcEn132LDMMUaagL9/beAbb3AV1cVceG8LLacfBs7h3vGh4HegYaVtjeaFQMyl2TY+HKqFC/SflIzv4xObAwpp7DyipM0X0FDszx6DjYccPEvexL4Ov2sG8+bag3vpzXUTCSM/KlbHR68JtGP7wGefg/4rXOB65cArWbL6OTG2unO8CinO81aKQ1Xf9ORRlShkK97uiMizjh4ooDHduXx/OEE7rvQwbXsoCbTpx0sfVzUntJ/Le0p/cr5wOpKe0pzpT2ljfWtZ/nSWdpTykbWCpacyMGMRoGH/9zrccIfxZ3aU8r2qoOnHSy9bX2VlWRJwjSx1uaQdBlY6qrtaKU97IoJyqPuFWdz6rl8mae8jKVgGUu61+a5I8NFtCaKnJ65uGKBv1tZaacdLBFVEQ6P+F+ktUyjnXvm606ABKq2dmuJRYpxijVjuqLCrpb854l98JaFspRuDdkyJr+u/qO5asK8sLGAK+d7uGpRzGyYk/Uiy48HLEu2wm7NzqnbBaIlvwJ9Cssi3Zgmw9qHobquBspQ2E9htZDUZAcnwZ3JPJ3lAq1X5WXl0w6WSJUq8G/8DYtUgV3P0pYj33OvjYzOsmd3ptnqU4mUXXbSo5EoP7tzOsCasYfKqIU07c6ThSkPMbeIuEJI2oyhxNPwKE+rIqhNGnKlvtREeu/a2fz+CeBFqhsZtf4MoQ8IRDnNCNb/VxIoUi0bPwT+4Q3gn3a6eOVIhA50ZeinBUsMtfFCjuoQGYeF4ZxjQljajKHEt+7yDPIL5e5MJxFhpGGq+l87Cmz40MGGgy6Hnn+gqxJNq7MElMRUe961D0pfecapNM4zWSp4TQXq0FnioYm1dEWMU5JadZZR8A1FLEzlMa+hgKZU9TpLfdNe/b/cBvx4H60qVYHW7759iYvvv4nqFbzQlUP65AF/m3U/K6UeNuM8SDL7WkPXPLI+zUGS60DObo3LL6Y2/ie9dVaDh88u9HDTiijmNvggfixgqZI++lX/vd93SttZ+bLWiU9hlowFoUTk6MUnkw1Mqx0sgW98NQZNdn2XtHqSpAuQfQNFDsci7l7r4hp2Tr6WKAjWHxEsbUyz+/TVFw3jv3oV+K96wRLiL3SDcy1fAep0hE5MVJruGNdBc8PyYagKhIa9isri7HQnx+FsfCQlBPMHSfGiAC+9WHV+W4+Hx3d7BCVKLx5Y2+l3MAjWfetoQTm5/hEFQFuRFjX7O7EfpnL/SZVgTeqhlKRQf5c6SkB9iZNonQ5VZZ0p6odAmENdMYcOoYL0RjDNBErkpGtYnK4KhkcgzuYPBps38Kw2LW0p4rMLCrhqfh7vDBbNmSBz2KkMcAmBPh4/vAP4u9c5933bP84cdLRFEoJx4m3w0dV3P21Is2F0NIPB0RyiTh5z4lkU8xlkA+k2qJycUklGOY9agnhobhiWVk3IZjOIFnM4K8WhSESOj1DalcZ4hYKXHzdEo5xtjHK4yoKOMG9mLGvSBJB1kNUX7d9QfJZtC9blaoujDZpymGOvVLZRDqt0ImZ209n48qDTCBrCYWnVBn3VkQULS6s2xGMRJI2NoVPpREtxftAeCtNG6kTpRZGERXVGIrHxL+kaabpXWU3q/TLRSX1nnGsSbdBPDijOj59IE4AnchG8RMdtS08EuwYiyHoRs61794CLXxyOYHt/BMezOgcfwfunIibuxd4Iekf8OPFxOGFWuT0sv5Vpzx3y+W3WlUHX4L2uL5HP0UwEHttg2xMMaqs6r3/B/viH1Cf6oqsA9cFhXsUx3Xc3GGMAnOi/0i0vE29KVkHaq76bSu+PNwNf+ynwIMe9FKjO+HyPeuAeKtI/2wq8zmmD9s0/8Q7N9Ubgm8/Q6fsAOEUdKJJOPHQK+NvXgLufcXDnz1zctSGGO37q4KtP06CUgu7vUGBd33rWP+A+0172001VgyUypprgHBmmk0qLImukdzJCHSDgZJl0RkZirg8fsjpyQ4KnNMTjCPNuI6jvURkfGXFwdMQ1oJcHLRMdZl3Kt4XTklPk/1GoZNTqpqrBUkUJ5l5Mk7usDegqndDSJFsnGxSvRUKtfVN6jX+mXcLaL6UDlfYLia7tSf8gglySZa1FBg/nMd955BsWVrYDq5m/of5vrKb9pr28URvkzOrsoa78Y5v9o3zTUU1H6JStjR29kH7MZfRRFjX5R+ha00mcN8c1+7i0pKs8qvgceswXkceF7GgnHULFiYcW7Lr4vJwgXDjXw6WdBVy+wMWnuxwGTAq/xqCN+5872z80rpdTTmFH6FSXpFvbp/QNQbx0rkcrq3KF5GN9hnzlOcjHWtFWxOVdHgUhAp3W0L6vVeSjl23hmeKUatKsWbg5QkcH71JWouWQcjJOqT5YnAFbuweJSvkRuvKvO/Lg5ZeZVV/qXwE3hyBqMj2YoeNAF6M1zvllQwLf3V7DepYS5YxJv1hdcyaT2mhPo9qOWRL+0q3qj4bhfI4U62TrWWeSzgmoEOUXL+UvB2cKWMqsH5DQ7mS9hUpH/88UUtt09E0HnjT0dCjTAibdJAmSFZUREinNBpH6G3zWwXn9ZIuGZ/kPaUwBSxVI12gepRUHuQtaddD0R+a/PAzlHF4VwtOrCoZHSPwMQS6KQNp13MWrRyNmW6eOBqsP6rskRzpHVnkL+6Jd17LYYX3RElQ/LbMOwO/ndE9DVIarhKGh0FUHza804dQSjZS5FN34BlzmMZJGOfWnBKVtkqUPFuPpJHsfFifSFENTHemtuLzrgM6qVMaS4owrQyDe6vOw97iOvLn4Xc5nZQjMcKJ46AvVo5wHajlGxwHPpiAYQ8Py4ulfi5TOAvqGPbxyNG6MnL5qf2kp0MhmWQpdz7KTzv8gYD/Z778JC9R4Jbwp/4ylcW7TwyiYx5B5ZlMZBLZND1I5Xz3bCvRiNVy6Uh5uWOph/cqocWlkvS1pGWZTNwHb6f+ghoqrL4YXg+WpDSFqx5JW13yo/Y1zfYsdpFCwxGCMY/woh99BSpl+h0FWQ42bIF+yZBG16UI8yjsqCgNggnzJMlu7Offymz+ZpisvN0KHBualCubgwHyKf5RjMMhFbdYwk2R1sy89dHIlDEHSFyIUC4bXkvaYUfhS/OVuSihYQZIoy1+Rwg+22e510HGUZh1HCb7OaokoaAgK9LDjKDORatQRuqh+pcGb/uS8AJfLMMysGr6TiIn6nBZzPLSktCEvnMeMYFUiieyZ4mcJbPGp59ujqFoeBiVlrjdYCkubKdhy9lpPCFJYei3BUliagjn2W8pTM0kitFiWTqfreqMiNWJiY0h9ZDtTzwixVA0Phx2ecka6GhJjgeWvwdf7M3bUH1Zn1XH63pJ4KIhHvaQ26KVNx2NWZ5Gq5VG/3H4CaRasGmgWrBpoFqwaaBasGmgWrBpoFqyqCfg/Il/j56ETwHcAAAAASUVORK5CYII=;" parent="1" vertex="1">
          <mxGeometry x="460" y="190" width="49.14" height="57" as="geometry" />
        </mxCell>
        <mxCell id="nKBGLDgv3Pfraqjz_WuU-4" value="" style="shape=image;verticalLabelPosition=bottom;labelBackgroundColor=default;verticalAlign=top;aspect=fixed;imageAspect=0;image=data:image/png,iVBORw0KGgoAAAANSUhEUgAAADAAAABTCAYAAADZYoRzAAAAAXNSR0IArs4c6QAAAARnQU1BAACxjwv8YQUAAAAJcEhZcwAADsMAAA7DAcdvqGQAAAsMSURBVGhD7VtdbBTXFT676931/tjg/9hg8A82Nj+FEgIEUmhCICkhtCJqWlWt8tSmT1Ge+tCnqipVmjw0KX1qlT5UVSJVaqpKKY1CCxQTEtJSoEDAYEwMtsF/+Hft9f54e74zc+3xeHY9a8+2WOoHZ+fOmTt35txz7rnn3Dt2pRhkA6gWj8fl6Pf7dW52mJqaokgkQi6Xi8LhsM7NDnh+LBaTNnw+H7l1/pKFCAAdaJQylY3nZlLXzHXMbRivmXlWbZjvMdfhHwNcPb2jqRvtD2giCvPQmKgEFSmom5KJJM4oz+uVcyOM95jvV4AJTUajfM1N+YH8ee+x4hWEvLSyMkQV5QViQq5/XuxMvf27C9Q3MM4PmC2dGWiQf+UF5gDPyXy7YGoKncCqd3vkmBX4GbXVy+nwwUbaunmFJkDLx5+nfvpmC3XdG51XAA2oM7tXssfC21i3toy+++1NtHtnzcwgRs/ap2zrW9Ei2xBRNCx9L6T5dv1sCSDFjgCUSCRocnKSNSCjfH4JPG4XefPc5PN62PYWQbjfog0v89z8jHmheyV4JyEM4iM/Pz3vIC4uCjDlU8CfRy435HaJPaojYOQB5uv4TSW5B/mYl6d5IXUtFktSZ9cIjbM7z/QeMoi/s5n26IPYtgC7H19N+5+spYbaYg4lfMLTny3AOxvPrTCVmqKJiQn2Py4KhYLT9ZNsEj29EXrrV5/Q53eHRJh0MAtgexAHeQKpLA9TzarlTEVCtatnyHxuSVxn9cplXBc0w6+pLqIVlYViSjaMaBZsC+DmLvZ4XKx6t2ar2T7JADYsvcRjS2/T42GzBCPLdrN2o7DZyViCOljV12700WetvTpp5avX1fkMT5VRv7VtgFpv9ku5s3uYTSqut7wwuFrOtqeOvHlm3jFwYF8DvXioSWwwMp6kN355li5f66VYnO0Vt6meMzdh7FEWXg1s9PqTT9TS1w+tp9UcHtzlAfzDnxynG+0D7B6zGQPj4xhd+mV7mOKXGB6J0sCDcernGKpfHVXZSIqvXxsYnJjmj41NUoK90mLgprEI90x2jcB7YByI/WZBsHMPu2A5MqGNLE1+DtzE4e20P7MBqB/eYn1TOT3+WDXt3LZKaNd2a5p1fVs1bX+0Smgnl9fUlVAwqLnkhcLV8u6p1JHft1NX/4StMbBxXQXPmj6xfamvhMdEAODcOCkY+DA9pJRu1kIoFBItYHZHOwsfAwsAVO9nLeTn53Fi4tUIZXWehh/AkWdyIS4jpLAVPmQAdwFnV6qXMgDurpcHHnqqo3OIj8NzqNOijOMMf4S67o+yxxsR3p2uIWnrDpfv9Y5SLMFhRnojsISr5diF1JG3L1EXT+WZTKi+poga64uppDjIqucZ02AlXGIyd4KKg2YsCi4U0a82jrS0FHw8dywSo7Of3hEvlWBB0mFuLHT6ZurI0Y+lZzIJIB6DH4yXmV9f6aGeMFdcjokQ6KV/BcHcMZAHE9KvZgA8T4jjoXDIx+RfIPG9QW4DZOKHmCdjAj2UBVwnWAM/O3qWuu+PZdTApvUVtG1LJQddBaKJhYFNiMMQdBhMSPU2njs4NEF/PNZK93siFM9gQs0NJaKBJ3as0kz5ZEtb6rVfQIDMJvTMU/X0wsG17P/LOAzgnIB5qrYSB+dWZQW4UYTT6OVAIKBzSWy+k0OZH71+im7dHuRYK70bbW4slaT+Sxze4z3c8jLmJ1lAfDarON/vpWAgnyegfFa7Riirc6vyNAX87H69nE9wGwZ+AJTvk1l6jtQmyDiU2RxZnNf+PCDeIpmS3sJgwzFbwn1IXsz3a/zZqw12YTsjW1lVSNVVBVRY4Bfpjd4CGpRTnSfnKPNRdaiqH0+wG+V/SvPSMfwTjSY4uu2RIDHJHZUOc92oTQEw5cOMXIsMwFQObHQE4GhzxBS/Q2ZXuuBQAvMAXGnAj3GghwdWpK5Z1UlzHxYK/D57Y9EM2xpA7tpYV0QlRQHysPqNvaQerHjmc0DMhduHCUGFPg4I1XX0vpqJHwzBhLKZiW0K8NTuWnp+fwM1rSmZ3uBAbXOnpePJkc1jnBMoRKPBYHCajxeGG3/trRZq7xjMzaoE1L98mZ/KSkPTVG4oz8dT/NKSIFNgNr8kJJrFOMvWjGwLgF4ZG4vR0PCEzJqDOBrJimci3DvEXmZoODqHPzKqpZdGs7MD2ya0sbmctnyhgqoeKRAXqKBMJt2d6hqOcJdqf8vP6ld8zAEQ6k9/uU49fRGZG9Jh4W7Ui+zJw65Ui0oB9JYMTv04H7Te1Z4xy40yC8+OTib4mCM3Ch89zknNKJsR1A0aHZt9nI9QD/cb21D8yHhMBnOml7eCbQEeVvxfgP813BGeWDBw0rqRhwx416lkkvOKKI2MjHA+gKwGzsyGF3kYIM6Lf6bzAYQFiDCXCrBHjVAEKSmyupyNAeypaSsZOiNHcFwArDBs21JFr3xvO084j9JjX1whIXOu4LgApcVBem5fIz23fy197UAT7d1dRxVloZxpwnkNhH3U3FgmgjxSEZY9MUScxtDBSTguAGIaLIsgcENuizWeTDnuYuG4AH39Efrz8Rv0jwtd9NG5Djpz7g7dvjPIMU5uhHBcgKGRSTpx+jb9+rfn6TfvXKSTZ25LwJaj93degHg8SX0DEbp4+T5dudYjGllSJoSxCv+fl6d9WyGrbTmE4637OXfG5wgvfnUDHXq2iRrXlEgSlCs4LkAZJ+2HvtJE3zy8gb71wkbat6dePlFYMvNAYUE+586VnDsXygb22oZSKhcBlsg8IEuE7PsxHyBZlzQxQ669WDguAHbvz3zSIUsl2My7/FmPfFeRs3kgFtM+J3YKWB459teb9OM3/k6vH/2IPjjRRiOcxDv1CPXJWTyeoGg0yh7PAyU4Z58IIzq7R2QGPne+U8qZ1nmyBsYS/9dcNXZokJE5OL60Vew8Cga9shyZhyV5B9uHM0BSg4xMBND5jgG78fWri+jLu2poG+cCiEghVK7gmADo5eoVhXT4YDP94JVd9PJLW+nV7++gV1/eQU/vqeP0D+v/zgviiAB4LczA6zgPeHZvA9XVFEtMhE1BLAU+zZNZDc8JWJ50Gs60yD2LVBJfsiB56Wb3+c57l2WxtrcvIp8oNNSXyEa203BGA6yCQL6XU8ewuOSr1/vog7+10fFTt+hqay+Fgn4WLPzwagA+HjMuPgZE9FlWGuAwYhnV8WDGi2PdP4q/T8jBjOxQl2h7XPLRKtt+c2M5vfSNzXT4+XWys47v43BtMubgfKDDMQ1ExuN06UqPJDFwmzu2VtPG5gqJi85f6qa29gcysJ2GY0YJE2pt66c/vH+NPjx5iy5dvU//+nc3fcihBKiXM7PFfqFoBds7NHYAP4+BWhj2y8fi+KxgcCgqObFT4cSCd2jsQEJpjoUeDE3ISkTH3WEJ7hyNhUxwVAAAOoQmsSWFF1+sVueD4wL8t7H0BXA6ock1ZhKauJbQ4BMaxOz4mlz2go0EnuLzUeqkq6eOxjoWZbQx61k6f7qe4qW55uEyvB3+kE6+Obp05V7q3feu0MDguExIVkCsw0LzdfyQNGJVF/UU31hWgKaTSW0yU7v96e5JV15ZVUAH9tbRpg2V2k49N5jCbCkVQFzZCohjYvholcs+/W9opqE3njYz1dvFBp3x2+npa4DVvRbvg9NkMs4dgL9+YgG4VwDtagagjvqbM/VHQNkCLjUSGeMedVM4rAuQJfAeGLda6qpPZFqeaZeyrW8kde9i2gCJLIIl7kaJ/gP+ny6mPKEhTgAAAABJRU5ErkJggg==;" parent="1" vertex="1">
          <mxGeometry x="289.99999999999994" y="282.14" width="30.65" height="53" as="geometry" />
        </mxCell>
        <mxCell id="nKBGLDgv3Pfraqjz_WuU-5" value="" style="shape=image;verticalLabelPosition=bottom;labelBackgroundColor=default;verticalAlign=top;aspect=fixed;imageAspect=0;image=data:image/png,iVBORw0KGgoAAAANSUhEUgAAAEsAAABXCAYAAABMWrgKAAAAAXNSR0IArs4c6QAAAARnQU1BAACxjwv8YQUAAAAJcEhZcwAADsMAAA7DAcdvqGQAABgPSURBVHhe7VxrkFzFdf7unefO7FurRSsJhCwJSUhC4ulADMYmCRXHMYSnXNiAg20COKHiyn9SlR+J86iE4MIh5TghCaac4DhJUWAboQcPGcRDAoQkJCEeWu1K2pV2Je1jZmfmTr6v7/Tu3dk7uzODhVVhj7Z17+3H6e7vnj7ndN/ucQqFQtF1XdRKxWIRY2NjGB4eRktLCyKRSCmlehIP1o9cLodkMgnHcUop1ZN45PN5wyeRSJxWHrWj9AmmWbBqoFmwaqBZsGqgWbBqoFmwaqAZXQdaVeQZPAb+jVOREXIdRkZG6Do0w63gOsgIB8tNejYmu2DMdiLpm2xrtJUnaMCDz8F7l09FLw/vY3AdpgVLjcrmgd4h4OQYUBjvpV9BLj+GzGgWjY2NqMtX4z91Ug2Nx2vvaJRVtieKaIvnEcHHABYlo1ieKFD6Rh1s7XGx5VAEfRkXec8HT6TcqsDzPBS8AqLRGFzyCGA5SQpEpox/a8jnoTiPfIoEO0Iefh6bN3i1ZHnYuBgB60oXcFVXDlcuAFoSlLZggSpJfVGfpnOuHQ6lSWCpMQMZ4GfvA4/tJgCOi7ObHDSzEWJjG+uDJanIIRFPktMEj/K22jKiYJrii0UCXvAIuLiH91KxymtT7X2B4fgo0DPkIR31cNca4Ir5QFOM6eGsKpIkS32KxVi4Ak0ZhpKgVw4D/7YL+PAkcNtKYOUcoDE+2RqIsXTWaGYUzU3UWXUMQ3U7XxqGRvwrgFWJBNqJLPBqr4cf7yvigs4I7lgFrGj3h2g5Kb9GjSSvvC916awMddQPdwNPU7J+ZzFw/VJftMvLW7B+1XNDjzy6T+Txw7cL2NSTwL3rHFzLdiejpQwlElBjFIRBimMLm5oMoFUtWFPwJz8M53xmCxqBBCutow8fG6lpKbbxrDSNEYE4ybbLcpdTlh3bziH750eAHbwGjVW1NAUsvYIcGUeY0sBGRM5goCzZtupF5whYGA6jjNx0CtjNYXuKGevAaipYQSZBidKbkH54q59viG/nwKDvVoyxce9Tt73ZB+w57hsHgX2I7sZbjHvjKHB0xNeFIvGXBHxQKvM603f0uXidPCsF1XmM0mB5hJGaytEUCkKWkb2UuG1sh/KZvAzqU7n/OB1N0Vkago+84XfkGxcAl84D4hzjo4zfTTAeep0WiIBcNq+I25ePYWhkGE8easH2vgjmcSjcdB5wPg3C/7wLPPuBrwNvp9K9cqGv+9Th3mHg32lAdhCoISoS6Qy5DvbdqPH2Xi9MlvgW8r36HN7T0ARJZQdH8/j5gQK++1YCd652sH4FkA4YNQH11AngR3zBcfL7didwOds6wrYIrJZIkUD8Etez1IERVvqLXmBzt/+2M5QQSZck6sUeShEBHqT0CRBZ0peY9/lDwJGAZEnqDnI4PLHXNyKbu+XLudh0ENhYCsH7Zz8Efs58TxL8k+RdK6naHrZ7K1/QJQ0Tiv0U2/4y47bI4eZ9NVQ1WJZilDI5gtY0qzF6EXpWsO9E5lnPyh8kFUsxbm7Kf/sxvlXxM3xDQoJBbsuCJl/CayW1p53lPk1JuoIhyQi9eL5jDBCkY7zRdK4aijzwwAN/GhQ7vfnXqCckDRef5VtEKVDxEzACYM1civF8+jOtBThejlOVJBa3uriI4r2WaXP4BqUPziIgF0jku4D5pc6qJoGgobWkhekdRVzc6eGyLpfBH/YKl7BuXRUnR/Pac4GFbIvKllOGYvvuQBHbjkaxrtPB6o4JYFVfmm1ewvpifHiZ/bqA7etg+gFO4TJs5wr61CnHVwfRaLTiMKxaZ4kE2LgS5U3OTKSH0Uw/SzpHpHpU1Xg+kp6D9Y/z4X/GKaWflZjGzzLlFUKSq9FZohzre4/D+C+oJ29rI0AEbyOHoIbj77UU0eF8BJ1lOxQksdDwkjuhq+Vp402cH2XSxuNsZIn0aNMsL10rhTAe5WR8K4YZsn0kmgKWGiafRS5BP62evN4yzM4oUttkZI6xrZpepjQv9JMMgHJ3ZJjCHNUgKV18ZKA0usLclClg6U3KBRBoW2nJ3qPJlRWipBs3IBhMXMHxQ1laTYEvJjR+hqD6Bcb+Ey529LtGR85jkF7VqBBIsrqbaVUFwHQkXb2dqufB1/zp3t4BPy5IU3SWFPM+ugKPscAWughXn02FSKXdyjEuAC1JV2hOl8lm0Jiucz2LPLTEU8gXaCTiFXVFJVJb+6mwXz3s4VUapeuWurhxGQ1Bsy9d8gfv3wgspiH5xlpKDqWuks5KcW744qECfrArQely8IVPAV9e6QuObdUUsPRGNATlM32Piv55AiaEjVvAUkE9ps5qicUqd0vl+SqRyUf51z/HqQy2GluJndrWFCviNxcVcd86F4sIjAyShpW8/vs2AOcy7t4L2S+6IJXAaqczMcSpxeFMAn/zmmNmGfcS4MsXTAhJ6OKfKpIIf0jn8c1+h1cXQ3wuFCcv+xY9j9Ysb9aAgssrSpvMcToS4NODVYkiThFtySLObfKwss0jUK7xy9Qd9eF4xsH9W6JY1FTEN9cWkCNYf30sgvXNHpbHi9g07GDIc3FdcwGdLiWchXLFCP5+RwTvcmivX17A5xZSGEqdMYt/kiy/wX6s7tVdVaixPpx3jKIXChYILY2YYZjhMCwtKyvepusapGCayKbLXCvE47L1PuTVlNW9mpugU5ug2U+6HhKGh08eX6yG4bc2OjiXw/KedUUjWd/pc3BbaxHLS5I15Dm4vrmIuW7erJa60Rge2u5i1zHgZk6xrjmHUzG+FGEzZRhWSwL0TFjPEo+wtajyYXgPh6EkayY/KxpPcP7r4G2BtRwc3hPDsHaUPsE0C1YNNO0wlG4Y4fxJn8FkHYJuh8Rf053R0VE0Nde5Bl8ahhpG8ZBphp6s/greW9LwaKDOaqC+iTunfxiGgqWKZA3tol43raKsoRrL/rFBuk7om0QiSbAckyby0ydfRcF7kXj4n6A86jx/AhssF6QgL5umCX4LrdqCVMFYw2UdMSSjVMTM87GBJe94B0F6nI7pc/Sz5PwFl18sqZPqrK/cy1MnSI23qeqn7azfcYGl+6mSGSwTRoqXT9gQ8XDVwiK+fkEES1rD/azTApYq2UdXX5/CNE34/DnAuk69Qb+QfbO+FcphVK5DwINXusgAontdK9D4F2kGefDmQ20pv61nunu1tY+AvNLr4aXeIm5YFjEdXNjkp592sPSmnjrgz6nOpn/yFbr8ZuFNWUqFRJP3OrTA1Zioldhrf4lmYq9DLSTQxij2u/s9PLqzgBP5GP5grWPWvzQSTjtYmpz+805/mnPrCq2d5/F+rge9Yyfo3ZIzSRKhPynmbDaLVCoFp8TRevImD2myZ0/nLpjOvwKHsRoZ1ywgAJbNGywTJMUnnRgWJzvQmG/F/+7jC343gbsJ1nVL/RXWasDSkvIX6JR2cLoTY/9qAkse+z9yTiid9ftrilSaI3j0yAvYPLiXjFl7gDQUFcbLi6mPkU/lzyFkksmjVqkS77ZICjfNvQjXpNdg6wcxPLwzga+tcXArO6llpiBYdm74nRJY8uCfpeHqp3Cs4JSpjWCtSxQQmwas0LGjDihdiR4V8EB+GD1jg+jO+uFgKXRT2g7lTo4/H8xM5DH5+DyeFhKU55Cu5BOWbsMknjaOvHtY7mR+lO3VlEQtN7hXJOXRErO+8Ci7snZTOPTR4g0CW7YiM4VCJcsuK99FyVo8ZwgP9jyDDQN7aHVi+O32VWiKJLFv9Cg2Dew1lX6mZSkWN8whqCN4+eT7BoDLmhZhdeMCRGnlXjixH7tHDmO4MMbJr4uWSAOubFmCRck5oFo3E/JIlKJAbkbA2Av7wmgrTbnnKNn7M/3IeGxgiTqiadw573LO7S7FtoPxScvK5ZL1hxdREtPAu1kaAE4h9ZHiKbpGTwwCi+l+fDGdx1V0QbT1qSbJCqMIe9ERbcQX29fgZor+rzcvoTMYQyoSx6UE5vqOtfh863J0xZqRcCM4P93FvKtxQ8c6LE4QFMefO+rr4Px4C24kj/VzL8bNHRfhhvZ1uIX3t3ZebK638GruGdYzqL4r+UJSrK9eUkclVfpY0ab3QhojYNJZHXw+j8OyhElFqhosKVlJRWM0geZo0oAkU69/krhGSlvKjdNRFEsHMYKTZh5JocrZpkg3Jdwo5sTSaI2l0EJezcwjnuGhAa0M7ZSiaAnwekktsEGSK7CayfJ8AtVOwOoDS5zKSHoh6+Wxf7QPu4YPUx8NUJRpyRgOZ09gL4fZh9njGOGQ0fLNIHXJgcwxvDNyBKPemCkvMvnHTuL5wX3YfuogdrHcntEj5NkbGnYO9eCNoW4zvEfI55dFao06v5KStkofXysgFYTCGRgYGH/WjVyHH+xO4O3jEdy+PINFbafwyPHnaDn2IUvTOi/ebKTmVCGDvhw1I6mDUpKOJJDzCjhGYyC90hZNGYlxKVX9zKf8AldtUvmOWKORPK2CSSmXW0O1xcbkWa94DHlZgj3R/HbqvtvaL8Z1TZdgx5EmPPRmAl9elsUNn8px2lPEQNbBn2xtwKJGD3evyqIrLTfE561dNd15x3zCl85qivgOSp7+4yO0qnsGI7hu8RiuXpDnyFBtBLehocH4SSY0+EE+T5RTGM359JyOJU3HpLf6cqeMZVTnNZwS7PhQIYsjlJbjBEp8pcsE2FHmPUyLpc4qromANjKonMpLwmTR5MOJZzD0Bu7FR4pew1w8bNDQT8cbjFKWZdD8VDOBVMrvk/oWof7UNk7TT/WP8WmG1nQKK1sacHFbAzp4n2C5KPudYr5YPGamcEn132LDMMUaagL9/beAbb3AV1cVceG8LLacfBs7h3vGh4HegYaVtjeaFQMyl2TY+HKqFC/SflIzv4xObAwpp7DyipM0X0FDszx6DjYccPEvexL4Ov2sG8+bag3vpzXUTCSM/KlbHR68JtGP7wGefg/4rXOB65cArWbL6OTG2unO8CinO81aKQ1Xf9ORRlShkK97uiMizjh4ooDHduXx/OEE7rvQwbXsoCbTpx0sfVzUntJ/Le0p/cr5wOpKe0pzpT2ljfWtZ/nSWdpTykbWCpacyMGMRoGH/9zrccIfxZ3aU8r2qoOnHSy9bX2VlWRJwjSx1uaQdBlY6qrtaKU97IoJyqPuFWdz6rl8mae8jKVgGUu61+a5I8NFtCaKnJ65uGKBv1tZaacdLBFVEQ6P+F+ktUyjnXvm606ABKq2dmuJRYpxijVjuqLCrpb854l98JaFspRuDdkyJr+u/qO5asK8sLGAK+d7uGpRzGyYk/Uiy48HLEu2wm7NzqnbBaIlvwJ9Cssi3Zgmw9qHobquBspQ2E9htZDUZAcnwZ3JPJ3lAq1X5WXl0w6WSJUq8G/8DYtUgV3P0pYj33OvjYzOsmd3ptnqU4mUXXbSo5EoP7tzOsCasYfKqIU07c6ThSkPMbeIuEJI2oyhxNPwKE+rIqhNGnKlvtREeu/a2fz+CeBFqhsZtf4MoQ8IRDnNCNb/VxIoUi0bPwT+4Q3gn3a6eOVIhA50ZeinBUsMtfFCjuoQGYeF4ZxjQljajKHEt+7yDPIL5e5MJxFhpGGq+l87Cmz40MGGgy6Hnn+gqxJNq7MElMRUe961D0pfecapNM4zWSp4TQXq0FnioYm1dEWMU5JadZZR8A1FLEzlMa+hgKZU9TpLfdNe/b/cBvx4H60qVYHW7759iYvvv4nqFbzQlUP65AF/m3U/K6UeNuM8SDL7WkPXPLI+zUGS60DObo3LL6Y2/ie9dVaDh88u9HDTiijmNvggfixgqZI++lX/vd93SttZ+bLWiU9hlowFoUTk6MUnkw1Mqx0sgW98NQZNdn2XtHqSpAuQfQNFDsci7l7r4hp2Tr6WKAjWHxEsbUyz+/TVFw3jv3oV+K96wRLiL3SDcy1fAep0hE5MVJruGNdBc8PyYagKhIa9isri7HQnx+FsfCQlBPMHSfGiAC+9WHV+W4+Hx3d7BCVKLx5Y2+l3MAjWfetoQTm5/hEFQFuRFjX7O7EfpnL/SZVgTeqhlKRQf5c6SkB9iZNonQ5VZZ0p6odAmENdMYcOoYL0RjDNBErkpGtYnK4KhkcgzuYPBps38Kw2LW0p4rMLCrhqfh7vDBbNmSBz2KkMcAmBPh4/vAP4u9c5933bP84cdLRFEoJx4m3w0dV3P21Is2F0NIPB0RyiTh5z4lkU8xlkA+k2qJycUklGOY9agnhobhiWVk3IZjOIFnM4K8WhSESOj1DalcZ4hYKXHzdEo5xtjHK4yoKOMG9mLGvSBJB1kNUX7d9QfJZtC9blaoujDZpymGOvVLZRDqt0ImZ209n48qDTCBrCYWnVBn3VkQULS6s2xGMRJI2NoVPpREtxftAeCtNG6kTpRZGERXVGIrHxL+kaabpXWU3q/TLRSX1nnGsSbdBPDijOj59IE4AnchG8RMdtS08EuwYiyHoRs61794CLXxyOYHt/BMezOgcfwfunIibuxd4Iekf8OPFxOGFWuT0sv5Vpzx3y+W3WlUHX4L2uL5HP0UwEHttg2xMMaqs6r3/B/viH1Cf6oqsA9cFhXsUx3Xc3GGMAnOi/0i0vE29KVkHaq76bSu+PNwNf+ynwIMe9FKjO+HyPeuAeKtI/2wq8zmmD9s0/8Q7N9Ubgm8/Q6fsAOEUdKJJOPHQK+NvXgLufcXDnz1zctSGGO37q4KtP06CUgu7vUGBd33rWP+A+0172001VgyUypprgHBmmk0qLImukdzJCHSDgZJl0RkZirg8fsjpyQ4KnNMTjCPNuI6jvURkfGXFwdMQ1oJcHLRMdZl3Kt4XTklPk/1GoZNTqpqrBUkUJ5l5Mk7usDegqndDSJFsnGxSvRUKtfVN6jX+mXcLaL6UDlfYLia7tSf8gglySZa1FBg/nMd955BsWVrYDq5m/of5vrKb9pr28URvkzOrsoa78Y5v9o3zTUU1H6JStjR29kH7MZfRRFjX5R+ha00mcN8c1+7i0pKs8qvgceswXkceF7GgnHULFiYcW7Lr4vJwgXDjXw6WdBVy+wMWnuxwGTAq/xqCN+5872z80rpdTTmFH6FSXpFvbp/QNQbx0rkcrq3KF5GN9hnzlOcjHWtFWxOVdHgUhAp3W0L6vVeSjl23hmeKUatKsWbg5QkcH71JWouWQcjJOqT5YnAFbuweJSvkRuvKvO/Lg5ZeZVV/qXwE3hyBqMj2YoeNAF6M1zvllQwLf3V7DepYS5YxJv1hdcyaT2mhPo9qOWRL+0q3qj4bhfI4U62TrWWeSzgmoEOUXL+UvB2cKWMqsH5DQ7mS9hUpH/88UUtt09E0HnjT0dCjTAibdJAmSFZUREinNBpH6G3zWwXn9ZIuGZ/kPaUwBSxVI12gepRUHuQtaddD0R+a/PAzlHF4VwtOrCoZHSPwMQS6KQNp13MWrRyNmW6eOBqsP6rskRzpHVnkL+6Jd17LYYX3RElQ/LbMOwO/ndE9DVIarhKGh0FUHza804dQSjZS5FN34BlzmMZJGOfWnBKVtkqUPFuPpJHsfFifSFENTHemtuLzrgM6qVMaS4owrQyDe6vOw97iOvLn4Xc5nZQjMcKJ46AvVo5wHajlGxwHPpiAYQ8Py4ulfi5TOAvqGPbxyNG6MnL5qf2kp0MhmWQpdz7KTzv8gYD/Z778JC9R4Jbwp/4ylcW7TwyiYx5B5ZlMZBLZND1I5Xz3bCvRiNVy6Uh5uWOph/cqocWlkvS1pGWZTNwHb6f+ghoqrL4YXg+WpDSFqx5JW13yo/Y1zfYsdpFCwxGCMY/woh99BSpl+h0FWQ42bIF+yZBG16UI8yjsqCgNggnzJMlu7Offymz+ZpisvN0KHBualCubgwHyKf5RjMMhFbdYwk2R1sy89dHIlDEHSFyIUC4bXkvaYUfhS/OVuSihYQZIoy1+Rwg+22e510HGUZh1HCb7OaokoaAgK9LDjKDORatQRuqh+pcGb/uS8AJfLMMysGr6TiIn6nBZzPLSktCEvnMeMYFUiieyZ4mcJbPGp59ujqFoeBiVlrjdYCkubKdhy9lpPCFJYei3BUliagjn2W8pTM0kitFiWTqfreqMiNWJiY0h9ZDtTzwixVA0Phx2ecka6GhJjgeWvwdf7M3bUH1Zn1XH63pJ4KIhHvaQ26KVNx2NWZ5Gq5VG/3H4CaRasGmgWrBpoFqwaaBasGmgWrBpoFqyqCfg/Il/j56ETwHcAAAAASUVORK5CYII=;" parent="1" vertex="1">
          <mxGeometry x="459.06" y="379.21" width="49.14" height="57" as="geometry" />
        </mxCell>
        <mxCell id="nKBGLDgv3Pfraqjz_WuU-6" value="" style="shape=image;verticalLabelPosition=bottom;labelBackgroundColor=default;verticalAlign=top;aspect=fixed;imageAspect=0;image=data:image/png,iVBORw0KGgoAAAANSUhEUgAAAEwAAABSCAYAAAD+SzLAAAAAAXNSR0IArs4c6QAAAARnQU1BAACxjwv8YQUAAAAJcEhZcwAADsMAAA7DAcdvqGQAAB7WSURBVHhe7ZxnjB3XdcfPzHvbyG3svYpVLKJIierNRXJTZMO2bMVyCZwCBI4RBAhgGLaiD0E+5osBJ06QKMWEYyuWbEtWsS3LpmRRWvZOkRTbsheR3OX2fTP5/+59lzt8fNtYZATWgYb7dt/MLf97yv+ce0dRb29v2t3dbVVVVRbHsQ1X0jQ1nm9ra7OGhgbL5XLFb4YutFEoFKynp8eqq6stiqLiN0MX2tBcXDvM5Xq1MXyE/sDlfcCGKe8DNkx5H7BhSiSHneJsr8ZR4vQ7Ojqsvr7+igIHEpxtZWXlFY0DyTrsKxXaSJLEjaOcRK2trZpzesUT5VkGCWhEuKtpZ7BxpLp6C2bdujQnAWtWmTerUGAG4qG0MZgM1sY1BaympuaKtWOwgSZCq7vX7Oi51Pa9m9r5DrPqishmjTGbMTqyagEXRbrpKuaCDDaOSOZ4TXhYe3u7M8nh8jA9bgWhAehp0lvWNXDPu+2pNR1I7aWdiR05Z9beI+1SV+PrzO6dE9m9N0Q2oTbpt42hCHPJmmS5Nt5z4uoBMusqpNbRbdbaldq7bWY567V5YwvS0suJa6fAWXcosf9uSm3rsdT9jsZxG6BNaTT75JLIHlqQWH1lQa7h/zlxDSBd6DI71pLa9uOpvbo7tR+sT+xffpfY99cm1nRI9xXvL5W27tQ2HvbPtaoNfFiv2uvRzzaBvu+02WvveA08cp5F8N8B6rWW66phAahO+Z7znantPZXa2oOp7T5pdqLV7Exb6iZcp6D2gbmJ/e0DBRtRomGJGtkvQL4nYF/amfYLQn212bTG1JZMSu3WmXmbMy6yMSPNRlRGVqFpDUXhhqJh1w0w5tXVk9ppmduWI6n9Zk9qO0+kAsmbGBrCPYA6aoTZB/sFzGzPydQB9su3ccjFL0qER3K6qivMGgTe3HFmt8+K7LaZsU1tjKxKQSEeBLTfi0kyn04BdUTR7Je7Evun1xL7tzWJvbE/tcNy1pilowW6kcnnNYJaUZ7afqgTkwTQifXSFoHR35xpi0VAY9He9c0mk09d/4zjkCJrhxbqauWaalhdfYO1dMUyodR+J4DelE9pPut9CqbJZOmC1cYMR42Q2QiM2WPNVkwp2J0zyzv9doHwxv7EVq3FnFMXIQMPA/CGGn8fYAEK37FwaFyNFmPGaGnbjMjumB3bPGleQ03kxlEK/ntmkl1d3dZyoc16cvW28Uhsv347sQ2Hzc51CihpE0LTcCX8yvRRMpnxkd04MbIZoyKnQTV50YG4t2x5B23E3607lNoravvgux4cbhur9pZOjiwvT7BPC7XvdGJn2mMHKouE5uXU9yiBunhSZB9eENlKgTe21j+T7ek9A6xN/KD5ZJu9drjOXtoVuaiFeQRBCxo14BvkiB+YG9md8i3TBBoTYciR9IFBDlQPY+LwtZOtqe1S0Dh2Hh0yWyQQAB/HfrKl19YdLNjqfXnbccLs1AX5UQWcIPQ3Qbzt8Vsi++CC2MYLNLKEIO8JYG3iUXtO9NgzG7ps7dFqDTJyg2Q6+B80auEEmcTMyJZN9Q4Yf+XSmeJ4GOhggCEeNDicpw3chXmTHtFjl1KBC50Fa+muFF/DjFPbJDpySj4tLCD9TpI/vF8L9yGBtlBajuYj1x2wDvEjIt/z2xL71S4NVP6rkEhj1A8Tmam05ZZpkd01O7IFEyLnO9C20nG4gWqQ3d09lq+s1u/RRfrAD253l/7hQlNYjGzUy042X1Elk43sHZnomwcSe0u+dK+0noCDf3MLWSvQlCF8fHFkiybGbrz0dl0AY6VZ4b3yFz/ZTLoitt7uv8PR1imszxtv9qD8xe0K65PqI6cFpf2HSIlJ9iirPnuhx461VaqtyPmoHnyQLgACaNpAO0crWOD3aqt8u24RSibLXxjjuY5UEVNj3JHalqM+q1CS4UAjrcI9PLo8tjljaUuafj0A61GPMPYfbkjtFwLreAtr4wFp0Fhvnmb26ZsiWz49VjT0GpcVQMJEOkQ/2rTq8KY0LdihMz32wq4KmRIZQV/Ew4zgV9AKNINAMU2Rb6aS7tljIqVGkdVUiKMpj0xKJsu4ejXe9QoYP9vq+WCrFsMtlG4haDykhf2sQJuqFCtOBwYs98QTTzzp1DifL3tDqeBDIJ8/VeeAdVKOlRXjyXFaMXzDp26KBVpsIwVW1mwQVp2IB5n9+fbU3tiXOF42dmQqPpaI+OYFVmRHAUwTU3eufSoVbQIQDTmgKLnzuNk2aczbCgDNZ+W/elNF2tSqcqlMsm8u/BtrEGNGRjaxTv5KoB9T+kT2gYb36OdJ+TgWZpwWo7YyddraHx65b3/720+SncPQBwOMVWHAOFMAI2+jQ0xizIjUHpzvfcJC+auRSkmyzTG4VtGMzQLqZQH9i13K/ZQ/viPfclwDpvGpDalNasg5XoXmobnCwfWr/9xPwEM7CSz4JEgqAEI1Tl8QYAJk1MjYjSkr/F5fo/bl8GnrwBlPoFEANPm0Fn6kONukukQ/036LCLlvfvObDjCEnwNd7V2JbTuW2rNbzHZohYlWaNComkTEsGCPLDb5glRR59LnOroTO9WS2JvKI5/fbvb6Pvm/Ux5A+NLZDmmdJsvqA9r42sStNGnVWfkzQGKSpQKAwQ92Yb76gHlPqEutMkep59Jx5KLEme5ojbdFfeN3O3p8+5BrTJfvJtdzb3k8ct/61reeJMIMVpZhYKzmCzuoDDBRFJdVSW3h+IJ97qZuWzgp74p6WcEE0UQCw0+klVuORnLEfVEQcc5ZEzhyPnIOHR81qSG2xhGxe7ZD2hQiI52iufweiPBNU6iJmd02I7WZoxK1kXPfOzD1CPeHUaFptDtegeiMFuMoVqL+uQ+NjaNUiTvZQHyZO0FcATHU9HH6gIdphp8IK0djL+1I7OmNvtrAqtD54smpfXZpr62c0mHjRpF8649FwXT2n5GvEu14cadX+zC4UqEraltwtkdvjh0Voam3RUCpmeE33z4lmiB3gAnB55ZNgdv5z6NkbrmooEhZsDSudGYO/2pUNMVFjJC54cs0FSedsvXX9qa2al0iN+FNE4CmNSbywZF9elne6qtxK32jBY8hRUka2yW+9b3XE2uSWRHykWmKKg8vMfvYgl6rzbVbY7FaQReKI/It0qotib2qyESVlHbKgRWE5WFiK8TdHl0eSWvii8VCnPo5me7O43A2ioaRY+21MkH6gj4cOJPYjmMFO3gu5wg0z+LIP7MsshXToyIAvi+AI9L/endi//GmyK0WRBbn+kdj/+Ku2G5UFlFTYjHlEcoIDdMxBHCPiKADS22Q1C5RDgeDxyyyzRIIjip1eXlnYr/VKgIW2jYQWAjfk2if1eRx+qw4E4B7EeVmiULcJ7J5nyIxpBgt362FfHlXYv/VlNp/Npk9vyO21Xt9cNmlRH2DmP5z0nCSdgqRQQAOSrFci8MC1ch/MgnmukcWRBRv0QJlXQcyKGCYECuBZmEWPI9DZHXv0eDhQvmMsdMBE379ncRFwwDWkMVNhOS4+HtG6KYWLdHnjSKjq9Ym9p3VqQPrZUXdzUcZqzRLC+b8ly4W4K2D5sZCNGU+QSo0kSnylQ/ME+VQ9CQfZRHOy59ulJke1qKjzVkZFLAL6pBVokwDF2KwONvFysHI/ql0BjVHGOB2RdIXAavoUIcjNAWtII0qJ5jNQY3l2S0iottSx8UcyVW/wT9lBeCIxriF1XsSO9feV4Rk3FAJLOW2GZHLUBAWGA2j+gG5zsqAgIH2WXUASyYE8ztujsrD3TfI0UqlcaRZOXbe+zkIZX8OvpzQCoweU5slFs9ClAqTZwK7TyZO63H+jAkABuqH785q/GuUU24SELQRTI3AMloaTQCZpMhJIKM9tGybEngWPSsDAoYvOiwWTaRzFQg1hK3PlC9ZMJHPl2tBkupvuo+Id/m35YVBjhLxXTYltU8vjZypU4VFawCdYBFMDLKJaaHJQVOGIuE5TBMqQZsIWlalsVIiIv9lfjRLvwSYgwpc4V5kQMBwgHRC6hAeQruWK1fECTNRhIEzIex9olbprtmx3TLdm1a4p5y4wcq8pzQoCZ6Z2ueXJfbQjT6a7RMTf+tgIlqBH1QUE7Ftl2bgP7kfUypR7kEFskq5Z+vRxClAkEhjnNzgKyqjZTVBTsjUUZhssOh3OoAA/2nWYGHiAMIAPVEUr9FKBN9Fc6zgKak9/A1AH7/Vg1bq44LwN7SQoPFHSqf+7E4qB2Lnagyu9c+iME/+PLHvvpbYjzb6AMJmCI4afwNf4/nhCIveougL8YZXBg1leGgWu+iMJwyX4IE2kg6Ge3Pf+MYTT6qpy5JNfMM+meIapTFUUBGoxLKpkX1gHiy8L7Hulu0eebfbfrWn0m10jHIUoJj96x6cLp1TkkFD8VXU9O8WOX305kj+MHZmsetEIkceK5uQD1TqRMAhu4AowwMhvvNkOmg3dbe9csocGSjOZcjC5Jdq0ckqGAvC1Fn0Q9Ko7fJdtMn06hV85kvz0EDuyX3pS088WVtbsIpMho/0SqW2KrTiwF1yLGGSrO4tIoH4r3A7ueLe4z32wu5KcZ/Imea4Wu9EpyrNYWDU8dnygvPMla+g0vnQQmmKfuK8qVk9t1XadTB2/WEyzsylFXzmHsBh4JR02G+EyLKYzvH7oQwqYYYQX8ZETS0rmD9m26sFoU1cxnwt0uyxfuMkN3/+E0/OmlWwESPyYul9D+P0msRfiJBEDISNBLSBOnpF3qsujVIW3tTcY6sPVEqFIzdhJghQaBlaQRRaOlXsWasFHcFfTNLkSbB/q3D/cyXlGw/HTqvK8bYAHj/pH9eAVm4VreAZ/j4k0aC5l8VnHGhrVk60JsU2fb5LgXKWzBQtQxvjVasETFPO2pWIBjtFWLV327zKB6GagFME9dANz5CIHzoXuywAoPbLYT+ziWQ7seMK/6j1GGkcgxypC45FKIfNP6d7ntmspFxmQPVjoImziPCuDdJG/BG725iWr+kPTRgvpndYmoQiZPtDX3AZVDuCu6FPDsJARXg23r07tqeeytuGDZFA8zchlEtokEoBgjqSt5Gm5DLhiQ47eiPlYjnnV8LfKNu8o2QZ/pZdiCDcA8eDFKORENLBhGcY0+q9bLWlbiwk6extZnL+QYV2cPrnlZFkKQMupkbg11VRePB/Y1yuXC7gmEY8Sna8c2dkzz+vKCQ23KXISHWiXaHUEcNig6BP+ZmKJpEwXNxLBnCuM3YDCcJnLn8P0e/S57hYBOgBbQ5lwjTPwKmlkU3gZ2ePTe2GsT7KDUfQMnJFyu1hPPpHkTe9ZIcdSwMwkv9E/cVf+1qPPfxwj1VWFuzAgYK1tva47a52edruojPhYZSKwmCU+u2wi5fQ6pAttXRdWuNCoCWtHQUtQu+lz+gqFHqssbLXHppfsPvnpDZnDMW/1PG2MNhyQhc4+23iUqdaeq2xqtcWjk+cuQ/0XKlQLGzTuLq6+8bEJgolIoqMQcNQmAudiebo5xB/9aupff3rvfbYY2YLFhD5cOZUIT0AAQNiRqUcPYm2u6d46R/r1b3BSWYFs8Y0e2SqZADh6i5E+s4HDko4X1oZ21duM7t3duJKyNAX52BpvthWVqAozaIvbJ3VKGOeJ4dMMWC4ZkkkpIeL89HzcDt8dZCCtA7/5S1NkbKmJmfj5DwXLoxtzpycNTZWiGLoylO1jDMDBrLY4lzefx8u8bc4zqtBRuvvBkcCA1tsc8cTffN2tjNv57rydrojZ+sO5+x7a2L77u9i23wsZyOqYls5w+wrKxP7mwcit+MEMSVTwKFnXOZFod618UjOEssrVcvZXM3B7y0OVaAJseOffXOp0N/Uphb1ouizn3eF21yJQdbxCyGrZ91P5l2FNvGZZ3SxIuRvl4V83cvz2D530hU+YIlC9gfnR247nn2Af3w1sb9/WddLqX1ntT/rxUYIp2v+fU3iIh9joXLwueWx/fUDsf35nf4oJodJAM+d83KdYu7+GNSJ1lROP5If85WToQqLmpdjps+s4COxjCDuPvXLHHV3/6kRaukS6GJ7OL8LCgQ4v6zwdT5Knd2jCWgEEyQnZNWpKlCrWrPfn+Z5S0SYAh3nHqivweJf3WO2an1kT2+Kbe0hDwY56f1zY3t8ZWR/cnvs0qdbRZohvVRR0SY2emmDfQT+fvNUUYJaHLcf10CC+XJfVnvx+wQDgh2fEb6nL5cT63NZwGiDm4g8IXkmvLoUR41lfRWAAlJDVeIGwWQI9Xff4Dt/ZbcHCz7Hs6xg9nkWAvK69Zgi9Y7Y/vUNr3G/0XNsm/lkPrLHbontr+7D18XuBA75Kqd/qNnTL0T4Mzel9qG5BVcMZPxEdiZc7gIsX+cvDkTCsLrkX/G7YYi0zWY0c9Rj/WsYQEHi4DoIDVBuYeJEmCA0MrIisakNvW5rjNSHEzp0QlkbrSIf7HuivOBU0SxIL2VtgPuHXyT2/abEtousUrfnxM+HZOZ/eU9sf/fRnAMQLSZAYI6LJ5nMObWPLPBHqgCTvzMH6AsAEVD4DHmu1/yCQiBoFdrV2im/VRwwwFL9xc0AdL8732gBp/aIROHcBF/TKR1SnaRyQCMFJY+nW9hIqZTfyrm8ixr6s2LwmBw8bThC32gnW29suFL028M4OBOrCVWqU3xanSbto3bxQYUAfOnEhrzAVTqjlGyRfOIiAYk2ooWL9JPzZMun+p8AF57vFgGH372y21zUBzOU5o5ZsavQ4Nf73TUilLI9xrFHqqcIK0k+SW74sUWUY2LXYHtnt21vbrOOqE45V94RvR9vkmPf4Xd6Mgp5RYJZ4B78Ji0TiOwTi2MHShCIp+bittksV+XMiqSdvtEWFiFoDabqN1f80YEguAB2uSgtdQk8gJwjUvynd+IGYk91ivdeIrSL6VHHp7QbBP/DdhQRjVyRo06cZ6UhTGDFdIVpfSZ5xRQp2F0tWAgTpW9AIFULR0DLCd1R8COosHPFmyMcvjuh4MNhvNPSUoIX1Y5SGsLiUiwNlQoWiuSci89IWQ1jgK/vk/N9M7H1ilpZJ42APGYJX3psRWTjRvRcPOO6+Whkq9ZxILjkoSsQ9Ich1csHsVnLjvTKmYqW0/smwVi4L2gYlZOmwxX2ytuUly93B5y9oHLy5dtz7rgT2haEkvSzm6mcJMo1Baju/bB85pcVaPCV9FXE7VJhquwaExXLim6Aq3AKB18ThM1UtI8dl6sR5oAzHi2nfYcA+sKtkX39/si+dm9s9ykzwBGzo0Nfx6U9/lyF10KqI78WWG8eEE9TznlAVhIudpvOykJwKaRSWbAQgsqDC9hXSGzhRL9vCUXCDQQ/VxYwBNvG1MqKHsb04D/ZTmmsVBuHIzRFn6z8bQLq89LeL4qHfXxR7Igp5eU1+xP74YbEnnrL04+nZAU/2lhwzhqfRcnIl2N84ADEcBEh5ymDoJ5WriSEn5w3LhXnS+3L6veTSyPn7Dm2FaQsYHwN2lQ3y1UBAImSCiaC8wxCw5xj4O9oSAbLAYX7uJ8wT0r0MZHex5ZH9sjS2EU6vxmb2v8qkPCazf9sSO1XTotw0ryC47UNUFjobDU4CAsxQ3OCw01uvJROBCHiM182We4TaX5kSewia/be8oDpwRmjY1eOpnTCIHgIn0HHcBu22JdPjS9JR/iOkvO9N8RDTobpi9WmaHf3rNS+eGtsn1dqBKuHLHM+lXeS8Kc/ElAbD3t2DwlGgwgEOGqcPAEGUwP4rObzERrCsYbbZsTii54O9SeMCeAmiDSXbij3y8MwOVg7TJuH8RtQCGybVfrojbHjW0SaJCm40gcnoKuV8MHRyDk5JkBUC+G8VBg0Dn25UppHlsh/zJfvmJyzbkUpSuPsbrNbtOlIEZB+IiNAseOzdFLqgtHOEznnv6hqMCWs4F5lHh9ZGLs91WwBtFQ4A0YA6e8EYr/vSzJH2PWFLr8nyFYbIDAggKReT7mHAMzz4X1Jsn2OElER/YGiJW+ZcQ4r69ucVmkByPvuUXJNGsW5Lk4AN7dUyE9R31cbctJURgFqMN/44Hxf7ZjaULAfbq4QD5TmCWSs446ZqTvBs2QyFuFBIA+lXRYT60FBmAuRFtD6fV+yo6MjHeiMqxun/gkD5hbuCreyGmhXZ2en1dbWOtC5lXDO7stz2yNb18xmhwcNM0VTZ43GBBNX1iEauiMJzWbrDudddgDfwycNVWjr8RWJ3TghsZ9uz9mPt8TigWL341P7lKLeCmlxncACKBhAs9tv9Cetx2nh8G9jRvqTi6AIHuUk0kRTUL3Sl9MBDA0DsLq6uku4HKBtOx450+KYJpGLvO6OWXLsbLFN8BUOKAJvqv1mL0AxieGPg9OHf7y8YCumJPby7rxbqAYB9MgSXpWBqDIef0yA9wrWahEh5yxiY00qbofJRja9MZHGDWKSaMhAB+oGEgDr6upyJlnufUlA2nOKd4TY70tsuUgnyTl7i6RQbylB5zQ2Bz/CDvuVyO0zzb6wHE1KrOlIhfynL/ksFYUYUaQF5MYQUzaKCRyhtkeAIMHGbD9xY0EMIHF4lAWsHNMfjrAxwLtGJ8+129jR9fJxOecPggAA/AhSyybphDofKMjbKCBSmQhn8vtz6kORANjK6Ym1FaTGchz4W7gXWkwAeG2vfwOYggIpZ3Zt8GP3yJd+bpm0dGra72vQw0eoKHTmzh5osusPR/az7RX2wvbUbbUDUBAGS5Ql2lJNpVYV/BsXpR/AGq5mMRXaJngQhNgLgOLwN/ZO0Rj2QPkdwVfRF5UXPpd2h7ZxFIF7BpIrAozO6JRIyMubTzXF9sz2SjFwsxd3KNIVXzTAJIMwblf21gzgSZwfBUB43mRNtlGTrc77ail8zkUuXQQJrvA736GhUJeJ4nocUfrAPH/sAMqAUmBiASiEcfB2cIu0fKBSE4sG9ysFMytXZJKYDnkkRyYxK0yKFWKQrDQT4CTy9FGxS2AzY3fCgGiDN+EoYe+U/+II0jtnZE7dsdNQFsRNoDh62qB92sPUpikZp85FTYsTN2hTVOa1Fx4HpF1KrJ9WpkBRAN9ZKrR992xvkgSJ6mvpw1wEFFuEXP5AeV2TEt0wCDQAmkBF4aOLmBQvUl2acyJMhHbwJWhje1fBWsVy2wuVrqREe4DGQnAfY0f7OFNBpQLmXiPGzvFRNI/z9UT7LGAsSkunJ74/25I4F3BGbWfNn2HhczkR/inljg/Ov05On0nAnXhLlqLb+uZE6Yrf/caEoA8c9rhLxJRyClpAaKeL0mEQaZlot6J1Ll/tmHsAys3N/eO1gCovi0If2fnQBoDxGmFFRZX8YuTOT5Bj/lbkmdIN9TnGB8AATtmZoIBps8AcQ51UW9DiXuO32YLQOaBtai7Y0xu6bNepSjsvsohm0JXPEf1g2MiYr0SWE9KYlZuwb+YiYCG9KjfQwYQjC7xgiqbygimpUZMWkwQ9vO1Bq/i/6aNNkdCf1IZE87+iod7l9i9k1qVvxGXl6mmFBtoq+9l2qM1e3FtrTc1xsWpZvEGCKfF/L4F/rVRSzXl7zApN8c75ygAL2sfCYda8wrznRME2H8/bGyLKHDcN9TqaJFrPVs75sMjsRxbE7oBfX1d8uNysS+WqAUM7OnlJvrXNzvbW2+v7IzH21HbIkbOqTIp+8WE4a0rZFPC4+H9LUJdnlWMrWKG3D7DSsQZwwg9169r3b4Ckjhzj2HeeSOx4a+yoSuBaLArgoOm89MqBQI5gYZpZCWZ93QHjeUrUNbUNcqqxewuD93j4yZ4jUQ8toPsKmQS+A5AoO09q8LSCN9gaqgs2rr7SbU54CuLB5lmCDJVVd0xJjhymzq43B3chxPBB/uaAKmo3i4RWuf8Nwyz/cj71NXJKr9mXynsOGKmRRTl3aoftsaaDPjLxTiSRD6IbgGMs+DG2/+FlvG/ZqIs30fAllZqtqyDoPrgRgEEPAAznDa0BIH4PlYeLi6LnCDCQZLbXbpa/on43nhdMtWBlcHDyewEs5JL6szuwxv4kkWqtHDDABbrA5LhH/12VuCnpH0bO8DnGidZCigGKF63QZKJrf0AF+b0ChgAI4AAcb1TgZ9iC40Q0kSsQVGgE9w5XMKugpZj4zNGp2/1eMiXnWD8pE+Vq7hmKDAmwrq6ua1LeGej/gYi54FfQLnavKUiSPnEsAK0jU+A79gO5NwCIFgZhZAwvF/uXGzA7ytEQztkKHvNEC3iTFtI5pq7iEh84HAGLUEAsJ1FLi3KTolwpYKzIUEpEdAQQnM3g5DMvDLCxyhu6FPtau2J3krGj13M5Dt4Fv8TkKwQWbwDXVilAVKXudRt24nk5n+winH8off9pOMJ8kP6wiNrb2wesuA4mQY0pII4cOfKKzBpQuuS5+R+HJFGFO9HoNc0fCmFYlI8daNIszsRWKVEHwOyQmQfj6a9aOhQZrI3rWkAcqjjQNdBeN44+4spaBzyyn504EPskLNxA/mcwGUob7gTi1co1aSP81IdwYVnlPrureP97LcNXqT9weR+wYcr7gA1T3gdsWGL2f8KDD1UQCXq/AAAAAElFTkSuQmCC;" parent="1" vertex="1">
          <mxGeometry x="459.06" y="598.07" width="48.2" height="52" as="geometry" />
        </mxCell>
        <mxCell id="nKBGLDgv3Pfraqjz_WuU-7" value="" style="shape=image;verticalLabelPosition=bottom;labelBackgroundColor=default;verticalAlign=top;aspect=fixed;imageAspect=0;image=data:image/png,iVBORw0KGgoAAAANSUhEUgAAAEAAAABLCAYAAADAroEdAAAAAXNSR0IArs4c6QAAAARnQU1BAACxjwv8YQUAAAAJcEhZcwAADsMAAA7DAcdvqGQAAA3OSURBVHhe7VxbjxzFFT7d0z23nd21dw1rm12vjTEgMBcDUSKShyRSLg9JFCElkZI85TVPiRRBpBCRSCg/IlJeEgkkEgSK8pp7IgXscDXYCxgwxt5dO3jvc+vpyfdVdfVte3Z6ZtcIL3zmbHdXdZ1z6nRVnVOne7C6gAwINmm1WrK+vi7j4+NSKBSCmvwgj06nI+12W8rlsliWFdTkB3l4nqf4lEqloXjYwfFji6ENMMTA+UjCwhBK9MTHle+LdLboHzvfxhSo1+syOjoq9hBTAEzU0CW5xeJQw5c8PLT3oXDRddGbbB42ikmFjMdtbWxshF1l5y+v+PL+1Y58sOara4IPm7yjYxdCO+K1PSkWS6owWR8dDTZdg7r4p5FsT5h7s66TfAyXiIcBr9nxCmxzcG9BpicL4hYChgEsPAHVhA3f+58nf3qxLn8+3ZSLMILXUff0AASjzVBP7kMEn/po2ZITh1353mdH5OiUK9VSpHPoBfi0/3hqQ37zt3V56d22NDEz4ta8XsGuuo7Ivpot3//ciHzrM1WZmURBgGhWoLNnLrbl3SueNNq7o/MEu4GZKourvjz/VkuurmOBiyE0AG9caXSl0dLXuwnsG6fzB+h8C8aII7Eu8qnvkgefiay+hWtAByPj0aeW5A/P1WV5IxomLjxctWRL2cUqi2vNRFuKTS0ss/zHclOfd1lU67dqoHn3Qpp3/Kj+qoKIRwd6rdThqrGOGU9G3H3Ilce/s0c+dXMxKEGzfgaYxOLx1XvKcmy/q9wKwSYdhKAtFcZWxKavCaC5aaQdBOvCMvKA/6YPdxwH5Zt5sCjOj4h0UH/Fh+J+10c4joUNlazmGvbMyQ15awGhdiygGcoAt+535NGHxuVLd5WDEgrvShOB0MZHdC+whLn+o99elb+facp6c2sDZMRGW0NFiRhXPqlrqSGmTbjzIFvy58PJIupi6nk+jB65DUDm600frrKl4oRXL3TkzLwlL59vI2jCU4ACO406nt6b823IoMzmZkL5y+c9pQvPF5cRWg+oR24D0NIcTqcvtOWFd6DQeV9OX7Jw3pYLH1DwEObvg3qrK3OITf77diuTToFehAFees9XOi2sYF8w4DAYaArQl64iVljC9mEZq+xqw8J6wdjh2gRONOoajM41iTLTRNkkrvi8bg4RwA28Buw2fGKA4Ahg7PQYPipgATHcoaOht1EUO79WiMvYkvTtClvOgtQcsU1SooPlU4cEyRvYeQYrDDjg9KSGcGCsAsJxtOyr86LDewyffKR40ncBWfUkLL2IQrW88a0IuvBYLGg9SEF4kwDLKDMuI0yI0H388pl1efZUSy1wBrdM2fLI16ryxTuK0oROCytdRIAMYnwVxJTKRZkcsWXviKWSD4PAKNQrkGpi43J5DYtsW9+b9ZS7WChZV8DGf1/NgrEstSg+/OSa/PMNTzZigdDx6YI89lBV7j/sBiUYObBCaICf/35Znn6ekWDU6BgiwZ99c1RFgjSqh/voapgVrm/UZWxsDPttOzPd1A98Aozkij1SYpRH7TZ5WF7jdna8A9dEPqVSEUawhAmfJXiNH/9uSf5xppWIBO+aceTxb4/LA/FIEOAfRVqJpCIU3upYUm9b0vAsZQAaq+NH5y2MjDqeEu9JUro8ut7AtnsD7pMUlSepgRHQhmzK0jIDgk5GBx6ph4dzbnXJuwFiXdpu7J8V66/qM6yo7iOjrL3A/nFbvoLN0PEZWI23ggnD4E7HU4nRUrAZUsYL6tPD1ZTp06AG15xGHcxXx3H19OnFI2ijykx7IuDBzZCLDZUBn/pT/6nLmwueig0MhtoMGRixETtdlr4mTFneNjvBg4i3idcbbGszRIZpplnX8bK8beJIt0lfE3na5MUngVBw/NgilwE4p7j2XE+UF30XQfp317FUbjBEMMkYJaok1AACN4G8ttueiPFgjxg8cTepe6cxlBfYv6cg332wisYMVnQZmzAKbLWaMlIdARf4VNSRkRHY6ymwXtchCoRQvtuLv9fjX7IwzQ1Pw58I61ChXtGBj+HBOrrBX/9lTU6/p1/wGOxITpB3swk7jzBa5QT5ctQolRfkwQiuX05QKRf1IQGOQJUTRDRYKpdgJM3jmuUEaaR6ywdTEqM4be0WX6MF9+wkuFdiskXLy6CGr2J96sDzYfTIbQCGxGsQ8gqG1clzLXnh3Y688r4tJ99uy4UrzMzuvAnWYezX39fy+ForTSfPteXU257ShXrML3EnOJgeuQ3Aoc98+7lFT85c9GRuwZdzVyyZw/niCsPR4MYdBMPY8zAu31n2orn5jrwBXc7iXL3Sj2ZvLsQMgB706IQeWJiz6CUTlWr4N/XGI5wC18AAnHI0ejjMe5CZinwJojXdAilFUwkRmi95A1lyteY9PGZxNwvaoMRcwFZtTWJjyw7FoDdp1DN/QsTmKqypBYtv7iD58MZ221MrbpY63NFFfPIT+VGhrDoSv0DJ6kgvqB0q23ptbdyg3IC8KDMuw2Yygq+VSCozk/JGdE8ufCwTDsUit60680Oi18GWWhy0Y3vyivOLX5vzeD35Uma6Pk4F7tsDeb1I6QFyXSfgBZeICA5FCViIV/g9EvkambZJhLBS++JkM1XCTuO+UtFW39oc2leQ6Qmcj/syM1mQvbWCysaESQbFL3ltzuP1JCUjVW+o5NoyhUDs0D5HycyiGegxM2HJIegxVoEesAQfEv+lQXFGVigzqOsLshsp2XJ8xpX7jxTl3kMFufNgV+477MIYjhTIfYdRKVly20Et74GbS3I/iEdDLD9x2FG63IdzRq3xN9V5kMsAnPfsH78RuAmdnb0BT2TSluk9XZnFU5io8YkFN+8gStiDHECnDkMe6UhwjBPlUxeej1ehB/TMv2rkMAAX/iY2Fgm3YyhwP9sh5gSzyrdDdNU9HNYm9N0LjFdsuQsx9PREIcGQnsFkdDnnTB0HYPyc4HV8YJp64wZtG0M3eHLx9mmk+fGoeMD9cTHlKGUZ45LnECkuLCc/9dtWTnA3YNubod2ITwwQHD+26GsALiwqLYYg8XohB5Q3LOm7CNL3M9qjjw2BJmzGvQPD4DzSzKqdBPhgBWdElq7Lvn8zlPqgOA8Pu8J3LnvqJWl8mz6UFzg65chPvzEmX7gz+ZkcX47qlNiYcmMDAzyYD6QrLZf1J25akwGgeOiUWBGxvQmtqf/DTyzJv+aaKl4xGMoL8G1rCaNgBGEpqVrUVFGEcJXXQd0gZNpUwcPwTN+j6klBfZq0Dpp4HbbBuYOe9R+XMACfZkRBaQqs4yvxZtuXK6sdmUeAwSzQlTVLFpd9Wa3zJWecT38yfM0xixjQXIU8BjSUmSaWU/7lVV+dM2XHnAD/9URKhtVoNNTd7MBjT/MDiWbiA4ljUwV55Ov6A4mVhshrF3W4yQhMR4KuzCIWP3ID3x1Eb4EJMyTjUELVcNc8SPxUNg7TbhV6nJ3XX6RxLrOU3M2RMB3htvmWKUum91owRFd+8uQapkBb6WpwfMaRXzw0Ig8ccUM9bBhANDVVQiG6XYNPnomDOupX1pry1gJzcZ68Mc+coC1zlzpy6Sp/P9RUfJrNZkgR74hMOY/ky5A63sbUk5bXm/LOYkvJOwt6PXVUuUnIn4MuZy61ZXEp0AM8yJedjKMLY3Ptiuth80dPmmpSdKOXHwaM8yuViqqvVqu41stG9AREtavVagGffMT7yZdJkV5tRygPXoayQnk9jhwXTHLUoCf58XuB9AikpyDPuAyUmQQENhNqL51spIZJWJ+9skT3DE792rI+Q2QmDC9OB56noXjFeCsK6nJhs3mAzMIPH8OqMJgBIAVGUy6GxAiRxIGTYfDtAzyNDCMzTabe6DEo0Cwf2MEy/OvNNzpy+02O3LrflqP7fLn9gCM3jun9/E6DUejsPspzexDqDhSULrcfdGSiRj0GU2QgAzDIuGO6KCdmi3L3TEHuONCVe2dduWlCJyN3Ggxwjh1w5cThotyXQSy/Z9ZRutyL86lx6hE0zom+t3OVVT+OQHRM6+7BnmBy1Ja9NUvGK12VD6wUbeWnGU4PRthPbNGO8sYqkIcnOzmaQSifGLFBljpnxGr0iLzD1ui7F2DS8YdfrsmDx/RegCOBBuGLlDr86GhNuRJVnnK7fcr0W5w2gim6r/xrfQRGfOpDSR97gSJceMBjFRHhr55dkefPQcdWpMBQmyFuLTkUmaGNg8L5X7a7MZ3cDN4dr6J4w2OrdoRpGx6D++M8CI4CRoPqXWGM37ZyghH76wOxfofouxtkJ3t1lAyvJ8pCVv8SBqDbYUZlN4Lbem6t014ivOQUOrDXlj1YVWPTaVeAHpoxDN8s0ZXHEa4B/Mufpz3x73X562tN7Lf1Hv96B11prWypd5o/+PyIfPpoST1kAwv78bCXTB+9ekH/TI0/heNWOL6KGtCGzAd6XltKcD8cMln3GXBEsZ7KKO8B8Jq2Zz7AvNWhGzM/ezNt0ucGLCMrraMPVxy8GUq1YYDG/4HC8WlXHrytpOKK+DSwsCcPWbMBn7r+HUBYvAlUnHv5Rr2htp+MAwaGkqW/OnGwJVYdGhQxHtxWb1rhAnAKOPijs8XJm6x6PZb+yQkagNkgJhVUjmAYAwB8+uTV6yczebBdHokpkBcUaLLC/MnMMMLJw7xgVZHgEEPA8CCpSHAIHpiWmHlDEpFVPghtl4dBVl1/suT/r8P+0ap0M0EAAAAASUVORK5CYII=;" parent="1" vertex="1">
          <mxGeometry x="464.43" y="504.07" width="38.4" height="45" as="geometry" />
        </mxCell>
        <mxCell id="nKBGLDgv3Pfraqjz_WuU-8" value="" style="shape=image;verticalLabelPosition=bottom;labelBackgroundColor=default;verticalAlign=top;aspect=fixed;imageAspect=0;image=data:image/png,iVBORw0KGgoAAAANSUhEUgAAAGEAAABFCAYAAABaO4iDAAAAAXNSR0IArs4c6QAAAARnQU1BAACxjwv8YQUAAAAJcEhZcwAADsMAAA7DAcdvqGQAABI7SURBVHhe7VwLjBVVmv7vq9/ybHk1L5kBUVDCKgKuIKYNWVzImCE6CZA4MZuo0WQShZiIybrxsa6iG2PMRrJuDOMowyo4ugzyioKDLUKjAqFBedjYKI9+0E13337ce2u/73T9TXVZ9966D9ze2N/pv6vqnPP/dc7/n/OfR1XdgAVIGjBLZ2enhEIhiUQidmxmSCQS0tXVJeFw2FA2oAyWg2XIRgbrEY/HpaWlRUpLS6WwsNBOyQxajoKCAqOTbOCUEbTjBvB/iAEj9AMMGKEfYMAI/QABDA69Y3MgEDBHr7GaAxrTnQORk8/N4yUrFotJMBg05IZThpc8RTIZypOuLBwQ29rapKioqM8kIx2fGywHdeEuh1dewi2LR+qUMowRnJEcsVlQt7BUCvSL/iAjmREyQR8F2sr1AmdwvIfXfShDDdk7RaXQxsZGOXz4sDQ3N5vCamZlYMWdU0PGawtyHt1QGd3d3eamqWR4gWl6pAzyU04ynlTxrFd7e7uZnnJ6qPHpykAwnaAM6kPLkQzl5eUyefJkGT16tB1zGZShU9ReIzDi4MGD8vLLL8uRI0fMtRPpCpgOWoFcZZBy6UnkpwIoI9eypOOfPXu23H///XL77bfbMZfhaYSOjg754osv5Mknn5Qvv/zSXA8gNyxYsEAeffRRWbRokR1zGU4j0KIG0WjU+uSTT6xbb73Vgr+kYQYoR7rjjjuszZs32xruC7h/C27Rgluz+vSEvXv3yhNPPCEHDhzo0xPo+9L5v58LLG4uboTIhwwn2Kq5JcOjrU4DGEFWrlwpd911lx1zGUndkZcRWNiRI0fKpEmTZOjQoVn7Y96GN6a8XGXk4s8pQ2cluZRDZ0c852yrpqZGGhoajGxF3ozAG82YMUMeeeQRuemmm3p8mAM2e69SeM1z95E3ZWuhPOeUzYuf8LrWgpM/1QzLS4bGU8alS5ekpKSkT128ZDhlEU4ZrAv5aYxjx47Jc889J0ePHu3jQfwagUINko0JUJo1d+5c66OPPjJ56MuyIfo+tBgLN/ZM90OYnlqtra05yYDyrAsXLhh/7JXuh7QclMU6VVVVWXPmzLGKi4t79UbyOyb47o/surkQW5FX/M9JLMOVKAdlEnrMFH2MELBQSASINkcNv1SgwfahK4VeI4TqQzLy6EhZdH6RLIstkxUISxAmIxQi/NLAQXbfvn2yYcMGeeedd+Tzzz8XuLErYoygxPH/CIywISRj/zRWVtStkJWJlfI4wgMINyLQCL+UHkElc+DeuXOn2T14+umn5ZlnnpGXXnpJduzYYbZ28o2gtOL/x6B1mCEd7JBThadkP0I1Qi1C3FgJYAPoArWAWI4G0CVQN4hp3OXgdTOozT7ymvJ5TuLEgVtSKotxlKfx7aCLIMpuAkVBvD3TKF9lOokzwjw2Ts5azp49K5iIyLZt28wWDmc927dvly1btsi5c+fsnPlD0Cj0K9TlbExOl5yWtWPWyh9Cf5BHEF5AOIjQiWB1o6Z1yPs/oD+C3gJ9BDoDoiKYtg30AWgfaCtoO2gvaAtoI+gkiMpk/u9B74Mo7ziIxkI55L9BaBDyNmg/SI1UC4Ls0F9DEqhCr+R9dtrpeTQCewKfQbM3cLNQxwNOSZuamszmX74R1NYV7g5LeVu5zDw/UwbHB6PeHdDT96Y3dMXRbL9Fvv8C/TPoX0BPgZ4G/SeIhjgKonH+DbQG9Jx9/TcQDBB4CQP+xxjwG6BAtvDdoFdANMR3ICr0WZBTPmXsAp0HwWUG/iMg4X8PS3ANhrJ/RRwNxV7Ts+GbF3C2c80115jNtwkTJpg4znrGjh0rmIZKRUWFicsnQqt/t/opqx4LkxMBKWooklEdo+RX1q9kBEI7QnOgWSYMmiCVDZUy/uh4scZixbkgJvFr4SfQCskXHwWnFY1LYC8UDIVawyzpvrNbYrfHJHENlvKUfxgLHSw/EpMSEg+D9z3wHgXvVPBWgHc9FmN1SJuN67lxSQzH6vob8CDEymNiNUPGdshHz02MT0hsSUxif49yTEH+CCgBwsLJD7FVU9ls4e40uiMuKLk7QCNMnTpVsHaSxYsXmw057h4QzKc95Mcff5StW7caV+VcMZP/lltuMUZ130fvRRlBdvXAfFSuEr1hRFjGB8bLPQgPIfweYTrCiNYRUnKgRIKn0ALhswNNGKZBxhWcxfURXHfgGn9SBpqJ0+WI+0fQ34HmImE4WtkJ9AQYLfADrtGypRT5xuH6HAguJnAR1GhTC/JwXEAPNPnV5ZTg+jakrwDdBRoKCoHsNYAfIrzilbga53OAu+++Wx5++GF56KGH5J577jEG4cMg5lEojxc0XvO4SdOCkaKIhGaFxPonS5pWNMk3w76RtmCbTEK4G2GhtVAqYhVS2IYZEhQfPhKWyLaIRP4Gvgb457KeR57hENxECEoeDqHTghKpiEjB4AKJlCPfTOSbhPjmoIRrwf894s4hrgK8E8DbGTZKD55D+l6k74hI+CDkcTFU1PMgifKpbLkaxpwM+VdDflmBFBSCsPT3Q7rdQbk8euVRwupXhg0bJuPGjZOJEyeac8YxjXIog0enTFWsgtdMd8t2yjC8MgO5h2CsnBaTk5Un5cVxL8qq8Cq47N1o1GUyBWEwQjCAXjAReR8F/QkEdyLvgjgm/B40FMRVBzdai+1zgttEI1CgaXYLOISCViGOvXYaaKydh9s4C0Avgjg4bwJR/jOgOSDKYx01r8q/wjBldik33wiage0vuNkutPIfwhKKhSRqRaEj+FuE7kC3XIhckItDL0p3F+ajh5GfsxXuO8XhE3/ArOFik5lNcEOqK9YlLZdapL6h3ixuLtRfkPpL9dI4vlE6wh2SOAQ/uMuSjtIOabyuUeqvqpemwU0SHRo1Y4IZ5KlgyE80JaT1QquRT5n0t13dkI/ZS329LT8DIg+JC7Fs+L2Ici5ehG4wk6KPzwYB6yBGBkwJ41/FpelSkxz75pgkWhIyJD4EY2CjrAusk5qra2Rx2WJZ1LJIrg1fK8XXFkugNCBtsTapDdTKnul7pLy+XGZUzZDCzkI5cNsBOTntpHRHuIjATeIBKakrkblb58qvz/xawsGwHKo4JNX/UC1tw9qk6HyRTNw20czMyseWS0FFgSQiCWlsa5R9E/ZJ3cg6GfnDSJmzY45Ei6Oyf8F+qZ1aK4lgZpXmIEhF6e4lXYGCaX5aPPMR+qyb8jgwv//+++bIeIX/rezvIXU9IjcmpONMh7Fue0e71Fg16CB/wXR/q7RGWmVMZIzM754vy7uXm5kTOqnUB+rl44KPZcOQDXJd93Xym/bfSIlVIpvKNsneor3SGcT6AuK5F1UaL5WlF5dKZUclxtYSebf4XdkyaIs0h5ulIFYgo1tHy2/bfyu3JW6TqxDYE2uCNbL+qvVyvOi4TI9Nl+Uty6U12Cp/LvuzVBdXSyLQM7tIpjxnmvOcCuB5KqWnkkswXUHFcw2h6wqFfyPEwIV1QmdDp3xV/ZW88MILPW9cdDYj+pKZphJUejHCEAQMk+aaimpDaEHg1gaVR4WTLxqImumlqYwdmM5xhufkIS8VSYSskAxCKEVgOsFFYjNCN0IRAtMTCOTtCNAn9oUqThXhPk8HpwIJ5VG5yeDmU/h/npCAiLhlRVuj1q6du6x5c+dZZUVlUEmIe6qU3ku8ZjyMYIjnUHqfNC8+JeZVfuVLlq7yVZYf+f2N/D5P8PWMmdMpfRKlrcvP0QnGecUTXnnd8hROGe4057Wb35mm12548RBufsKZDkWaiQkXYM48/t2RzZXMCLzRiBEjZNasWTJmzBizJsgGvA0Laeb+oGyQLxmsGyufa13IT2VytvXpp5+aHVYaRJE3I/BGN998s6xevVrmzZvX48OygN6UMwr2rEzBYpIoQxdImYL8LAffMMz2IxEthxqSxjh06JCsWrXKHKNRboz1wK8RfDUntjpm5pI9W+JqU8krPR3lyk/KhVdJZTjLYhSZZc8kfHOqC8iW6Na84jMhyshFTq78XqQyCT1mCm4l2qcDcIK+ne8T0c/T57e2tvZZiOUTQTg1+3QACvr88+fPy549e+Ttt9+Wt956S3bv3v2Trep8IQjz8q725QBoAO5Nbdq0yTxb5jPmZ5991pwzjntF+Uaws73djNIkdjeO2m7orILpmjdT4sMPziRylZFLOcivMnj0ysPZzYkTJ+Szzz4zsx3d8OMuAqehZ86c+YkM1Rv15ESq+6gM8mJogSXswSrdwJLroKaDmFeaX8qlHMpHuNOUnLJ5TkWpgnnUNKcM5vNCqnIqj8kTseftOvdmBjdUmM7xsyGV3d9lcMrJx5H8sIPv4I4aNcp8aXP99debOC5Y3TL02m0MXie7D0ll/FTjv3BQcYMGDZKlS5fKmjVr5JVXXjHH1157TZYtW2Y+gco3aAre2b4cAEFDDB482LT+O++8UxYuXCjTpk2TIUOGmNabb/BBqX06ACeobK6I+dbF8OHDzTm3cNwuJx/w3RM4KHF2ky3lyp8P0kHWKy0Z+eFhOgdu9+zIL3xt4M2cOVMef/xx8/6NbuA5WwRFuK8JjeM1idMyyuOg5MWTTgYrSxnk54Dmh4dwXlNp+pEIN/D88BDOay0HdcHFG6ev1BtfmcxmA8/XVjZfeOJLTHz7jErUeC2gQuOcac5zFpjdXGUQThnJZBJOGeSnHMa504lUcTSC05CE+55EsrIwjkQ5LAeVybUEV9RcTzhX1HkzAsECOx/qEFrAVNd6rkjGQzjzOnmdeRRMS8WrcMvQaypAz52ynHIUydI0nkcahHtLNIDGE36NQCaDZJ9LDVD2BCNk97kULc6u3h/Jq6VmU96fq45e5fVCrzti16Abev7557P+WQWm2+I8kYkML1ns9vS/9OlMp5vk4sk5xrjhJUfdEckPVIZTll6nAt/ifuCBB6SystKOuQzPMYEV5FYtf1qBe+i8VjCL16CaCXKVwULzseTrr78up06dMoMqJwoPPvigeU80HVSBlMMZDGdGOjBnCsrhxpvZckB9koFbHjfeeGPvK/ZOeBqBYIKO7o5oc04GKo+tLxuoDBY8m8qzUfANN24d7N+/35TjhhtukPXr15tvB/yCcnJ5xkw4FZiqQWmD8zKUUwaVkxZgMAM33IAdkzlQeSMDLciOyQwcwE6fPm2+F0alzORh1qxZJs4vWA/eH1NJC7M/OzZzsC46qGYLp4yBDbx+gAC6Zt9Rq5+CboQf9N13331SXV1t3NH06dNl3bp1GbkjugEO7Nm6xSuBALuEfZ4U6D1GCfRtqQaiVMhVBscqGmHFihV9xgQ+A/ZrBJaBRkCdzXODbMY3yiBYF/p7vzMsN1QfZkzBRVr0hzGBfLW1tdbs2bP7jAnfffedKZ8fDIwJOQBlNi2YWyk8ahxbEuPYS3j9/xWhpwD7PCVYYbqRVFOyVFClZeqOqOTjx4/Lxo0bZe3atean4ehOKI/vBfFnbvilTFlZWe9Dl1Qugnw6Ncx2TNC6JJt++oFTRp91QjJowcmQ7TqBLTjTAZGF5Nf0/G0JfgmD6agxAOMJKpvK54d9fALGH/2bMmVKz9zbA1rx/vaD5WmNwGTuv9fV1RmmbFoPZZAyMQLzw3/Lhx9+KO+99575ZS1VvhtsGHw4f++995rvjbnj6wXKZOX1eUIyY6WCsy68L+vCQZ6rY8r02zMyMgIrzj2lN954wygiF/DGbL1Od8HzZEWgETDwmk+46PdTgcrg9gV/Js6pXLd8nlNWrq6EdSE/exN7IrdP+Eyaj0H9IGMj8GdmOHRUVVUlVVg+oYoj0RAsQ7r7kodKMZVyGJlIZehcQSNwvcLPzLhPlKwXupGxEfgm2quvvipff/21HZsdvHpCMrBYJLpB94aiF9gT+KoKP/5O5e4ok7JosGx7AqF1oRH49f9jjz1mxiO6Jj/IyAhM5sux3F3lNjILnk3LYn66AfL7HcyYn787xEeH3Lxjwb1ApXNLe/78+WbbONWASxm6WEtlrFRgXdhDyc9xgW9k8EsmukO/MjMyAkEGThWpwGxXmSTeVAueDszPFst3Qt98803ZvHmz2f10uiY2BhqUr6TwKyL+BgX38JMZgXysSz6/1FGla+P0i4yNwCxk0Cmqm8V9cy+RKoOFTtdanD2NrZYTgw8++MD0im+//dasD5iHrZkugM9ylyxZYn4eh3Hu8ug1ZdKIbiOkK78znWlOBfpt+W5cllEg/wtzsJELPALSIgAAAABJRU5ErkJggg==;" parent="1" vertex="1">
          <mxGeometry x="613" y="279.32" width="56.93" height="40.5" as="geometry" />
        </mxCell>
        <mxCell id="nKBGLDgv3Pfraqjz_WuU-9" value="" style="shape=image;verticalLabelPosition=bottom;labelBackgroundColor=default;verticalAlign=top;aspect=fixed;imageAspect=0;image=data:image/png,iVBORw0KGgoAAAANSUhEUgAAADgAAABSCAYAAAAB6RciAAAAAXNSR0IArs4c6QAAAARnQU1BAACxjwv8YQUAAAAJcEhZcwAADsMAAA7DAcdvqGQAAAuCSURBVHhe7VtbbB1HGf5mz8U+F9uxkziJXddtbnXiOklpLjQVlSjQNlWpRAEBaoUqbkK8wBuPfYJnnhAvfa9aHpCQSkGlLQIVIUhLUZMmSpSLEztpk/gWn3N8LrvD/83uHO9ZH8f2CaZ7Kn/W0e7OzM7Ot/8////Pv2OlBVgGrKpWq+bY0dERlK4NnuehUChAKYV8Ph+Urg18fqVSMX2k0+mgdHVwguNnFhsE2x1qYWFh2TlIuK5rjolEwhzXCs4feYY5z2Qy5tgKWh2HKpfL606wVCoZA3E3BGu1muljzQRlABtWtJ2hPE9rV2RYqQFV0UYvJE8rQSKVTkHJnwWb2avweRSUYLFUNPW5XL5p2+Xut+V1CToiwVSjBFmfFK1Ny49HadIANV3w9Pg0MDGjMV3yibJjHxo11+MTkEgm7ziIZSH3lmVwRKtqbsZRc5vOwYQ8vKsT2NENDPcpbMkrpEJN1B9Pu/r10xqXpzSKMo4aR7zIMMCKNO4M7UkPIn8Z4N1h6TgosY4ksK0LOL5T4fG9jiFqJam+8XJNn78hb8gXlF8oP8txNUOKvg97z0qvxdaHn7Xae4jwfY5Yk3s2AU+OKPzguINMii9UysdFciL9OjkidGrOV/pFES4Pt4v+CHskwmXL/YjwOcFzzqRPbgP/uqLxwYT4XplqhFMSGxJuHEd0yxy7r09jpF8bKVElm0m5IoK6Pgt8OCnz3hIMW824ISFqtzkHHBsGnhvz8Pxhja+OKYxsE4ss9ipKUgw2CmJHJoRkla5BEFs/yPnTJSQe2+XPqecOAk+MAC8ec/DCEQc7N/svIAxSohRvS2RIlSViSzApI6Ppf1Qs41CvMmrJss6kwkP3KBySX282aBxBWCljS9Cq51CvzLnAgVMleaRk7xcJ9sjcbIa2IEgyJGmcNi8seC4/OvjVuNXYEqTxK5SBmaJvPOqQckZb1+aAealfCbElyLiYJE5d10JE12NkCZ1NWHn6OjAl5FdCbAky8LhVAN6QMPJ3/6nh5LiH09dc/PlMFa+c9HDmYwnA5SWEQY1NKI2048oioQJZ60KN/qIanpOxAgecdDQGezQGumVNmhKVlQXBpSkHc2VVdwUWNEB9WY1nRoEXDvtGyqHpjSv45quewqVpB+9eTuDt8wm8P5GQVc9ScgSNUk9GYVd/ArnOFFKpFJze1rMIsYNwwq4tCsfvl2A7WDaqX71d0++c05gSfS+LTtNi/e911va4Cru+RlAt6UroEw8MKjzzoMKRYceU8Wnqwk1Pv39V4+JNbfTbrup9HyPWixcy453QQrO+rGoyXtax3LZhHzXXX0VTZZohfE9z36bhik6yyo7DtiVBBuMMCMYGlIRwCvnOxdyDqpXKuqRSxqfQKjVIUHqp1jg4jdQakz0WTDcwq0Zks8vEViuB46hWhZBCMvSSSIIkKa2cDC+bblzNE0pfvKgxNCQzNFIjsDkZHts3q/baa8DNm0yABkWfLajqU0/r2Z+/hInhg5h108bQhFWUyR6WcP7Uy5vA6vySNtIHM9us78xkGurtPYQtj/bDa0qwnvhNyrIiKCfsHNwqysGEU1Y0mGproWZ3j+p/vPgS3tx1AuMLGZN4qrsYPkU6559i0qMV8H5RU3ZVN1S8CA1iRUh7rcXI8B61OA5e0o/3C7kHZBH88JDC/u1KHLyfjzFtrg7s0y8f+yleP/htFNM58+x2A7nQuOzfDnzzkIMn9zsmT0qSDpf2DGDpDQKP0HY/jpse4LyYkj+d8XDp1mKc6jDkMQ3961iCIRhX9BmZX5QM510U5FCS6XVpCqBfryedXJVAoSMPHZ6ZMQGJ0L8dGABOjHj42gGNr4wwheETjoJ5ptkF4IIELRWTwZY+pnJbcL1nCCQaJ/B1dwqJMSH3/MMKP3rEw4+Pa/zkCxKOjSps71oqSUqRi2FGZEFSDc67u7+M8c274TpNXsmnCKrl9m7gqX2MLRW2dimTKhzsUabs8L3KuIcoOB/DWXrnnX3PYi7bC92qG1gnkGBvp4v+ziLcyjyqlTLK4k8L87eR9uYxmF9AV0fdoTWA0df8/Dzm5ubgXN28C7VEWoxMvOYgTUK2Q6E3n5SFbhKOCIBflhhwZGTluzmfMEanGdg2KQGBWQ9Wkq3FmOsOUTFXO6JZHejozJjBGnLZjFx3ooaUqW8GBhSd0oafzOOllyFwHvFjyuVpCfitxSDklN9TLtwCpmUNuxJiS5D++WMh+NZZ4L0rGpOzsiYQQuNC+I2PPJyUsrkmaUOqtlnsBjMu1kknGhpmsRmC7d3qitVUuFFIGMJXZmDi5jBIapNY1hOjDn543DEBuBr7ZVXTtMYZdOrZtEZSCJRdZb4gNUs6MfAeENfyncMOnh1z0JMRFc22tlD/v4Jh13SR0lOYC305iiItL2JgE3BwUJkEFOE8ulPESqaBzrYr8qLKYzuAp/cr7Nm6mLpQH0y4+q2zGvxOb5NOYY3lYpPXTouxKu9l2oInCU6qFsEVD0cQ3chgd1kMbVJ4ZKf/aa0vG1oPlmuenhNizPd/Mi8Tl9tiAoakxmwW4x46zlbAPkwKXf6W5HU4iPDbJJqUmXEwsyCjToZzR9KW83KLGJNBIchMNr8fht+B2crF/mzsZo8Ea/yNQBrpdGsBAVfihULRDCafu8ukk8yj6EYggoTML7gOY9V71dLy9pt1sBL8rJpPsOtTyKopl1u5RAu5Ai6LsBhBGBWRATUQlI5NOpUsrbTlZ0ibtnKwdaE2nkiwWCyaweVyokNE5H57JIKqhr4aCFoJBvU0jrSYEq4aNxGd5mpyxtP8BndlGsYE+5ltmdB8ghzNHJSezBaqoKx+tAhfR9rwtFaTlyRVjCX9JkrKg/A+0t4gfE7IqSuawGIG0rae/ZBPtkNjR7fC3n6Fe/vkRYaErH7zN1f/5ZyWpb42MV447DOjspA+W8I698HLlLDk2vHYfUrchGM2KFhJqhO/rmrGeSQWfmntBJKkUPuywGO7FX72xUTdtzsMaMMr4DiCg6eU6LybBSQcOsNNTrEPJz389VwF07fLJuHs2OxTHEFizKIN9jDx5OHIkJYoxQ/Am8UMFBS/25+7oVDTCeO7mzSLD0iO+2G+flDhe8c0vv95LasEhaPDQLeQjAqTUlyoKUyXHPGZMSdIVeRHzSdGlFkZkNRD9wBfesDBd4862C3xZjN1pdGnsbQrpNgS5PbkQVkZPDigTCBtySTkhFu7RiWw7gvc6p0QW4IMornA3ZJj/BkUCjgvmWziB5flkk5hexlbghwk1a0eWVnIOdXP7CcIly+D2BLkCmumqHFtzv+QYrnwWKz4OZq23spFyV0VEtwBwg3zjJPpq0nun5eBU5Pa7AtthrDxia8EhQwl9PeLGq+c1Pj9KeAPHwGvvufht//2MD4TCSsF5MVggEapHqrFPenEQdOY9Ga1+RgzW1LmC5KJvvwmddAw9XeJ3zyk8K3PJcyGWafZZ6g4gSSYZZicVbhwS+GmRCrVJuQIWlumCke2ybIq4OUMia9p5jDjBhJaSdGYsjg67G93ti5EvXrS1W+e9SR+83esr4e62i7X4z2yT0pruM/f3/34HoU9/c7iHLw1r/Xp655YqsUFb3hl4XmuXPv/u2RHSmdrwba8tsdoGW/y8zoykCDdEG5LRK+JaB+ujANanH7Y6wt4G40Kv/rukQXvQE/kf5dk8By/car0N8EC3tzJisWURUfjIII2BmYQAl7bc0KumZMpFf2cTC4rEyTcpkn7hjpCrplVa8jJsE1Qz+nFoNwmHOxtFkuSTo0XjUmnVsA9MtzKxaff7VYu5maje+aihKJQpVKpgVMUJmkrMLmQFsDBmZ1OMjh+s2sVrY5DiYTuSJBbqDhImzBaK3ivzaq1vNtQQE1iH2tNQG/8D2+7Y4Ngu2ODYLtjg2B7A/gvVQeincBEQBcAAAAASUVORK5CYII=;" parent="1" vertex="1">
          <mxGeometry x="845" y="264.71" width="44.83" height="65.64" as="geometry" />
        </mxCell>
        <mxCell id="nKBGLDgv3Pfraqjz_WuU-11" value="" style="shape=image;verticalLabelPosition=bottom;labelBackgroundColor=default;verticalAlign=top;aspect=fixed;imageAspect=0;image=data:image/png,iVBORw0KGgoAAAANSUhEUgAAAD4AAABXCAYAAABcOvbWAAAAAXNSR0IArs4c6QAAAARnQU1BAACxjwv8YQUAAAAJcEhZcwAADsMAAA7DAcdvqGQAABFtSURBVHhe7Vz5jxzHdf567nMP7sE9SEq8RdKWaFo2BYmRktCSEkuJDQQKYDsBDMiWD0hBfvE/4Z8DJAgcS3AQIwmEwIZlK5ZJKGIsSrJIUbJIi+fyEsm9d/aYo2d6pv2+6q7dnp7Z2Znd5XJp6wNrp6eOV/Xeq3rvVU8VYbeIcrls53I527IsN8eBZNsTE7b92mu2/cILtr1vn20nErYN6YEpnbbt73zHts+dW5xGK2Bb0iCt5SCAVUJAKHV0AI88Ajz/PPDcc8Dhw8DgIBAOA4UCcPo0cPEiUCw64riTWDXGCTKfSAC7dgHPPgt873vAM88AO3YAsRhw4wbw9tvA1BRQqbiN7hAMqt19bgoVGbFpmohEIggGg25uLUiVmh0dBY4fB155BThxAujvB77//YoIw0Q63ZhGI8gUF/pFRKNREXjr+rttjBOkbFlANgsMDQFvvAGcOQM89lgFTzxhort7nTLOgkrFRs6sYDpbxkimhOFMEVOzJsySgbJtwDAcBvnph87ntGYaHgEuyRo3JP+Bz1hIpgIIuoP20/GPSpcTQWkSDxuIR2z0b4hhoCuKjmQIiSjpOWNaCosyToZNy1bMfnglh7M3CrgyauLGhDA+V0K2UEFRtFm3cQOwt0opgECoAqN1RYE8hYIGUjEDbYkgBjdEce/GKPZsiuH+exPY2BlRQgmIABqhLuPMyZllYTaPn74zhZOXchjNWMJoRTFaX1RrD2qW7IVDBnrSIezflsDTn+vE/fckkBahNEIN4/w6OVfG8Y9m8cqJDM5+nMdsvgJLZsB6YdgPCoBTPClTfddADE8eaMOff7oN3W1hKauv+SrGhTdZyxbeOD2Dn72bwYdX8ygUHS3fLYjJNCfzf/X5DnzhgXa19rk0/JhfZWQ/Xyzj1FAOr743jTPX8/L97mKaKJRsXLhl4me/yeA35+dktpZFobVczDNeKlfw8XgRPz85JZrOKePVCJThnUyNQIVdGDbVUr02ZqIkRtoPI5/P27Tg4zMWjnw4h/84lsHErAWRQw24XCIybRJRA5GQWOYlLGcjiMUQBpbXnkuSisoWxJfTs9SZlhwa3dtX/6QdX5Q1P9gVcUscGAz2iyKR09dyePHION65kBNitZRi4QC62kLYMyjuoyeETom6opGgGjprN2JBlyuq8odmpVy2VPBiaD+u/i7AOwJdptvT0E7NWbh0K4dzN4sYE6UVit4WC/jM1hiefbwHB3emlPXXUMZtUogc/WAa//K/o0rzlKgXcddaPrYvjYd2JZGOlpFKRIVQyK3RPKhpmWIq6goz+gu0GrnZanwFsUfDkzmculLEsTNz+OjjAvISaPnZ70wF8ZVHu/Dlg53oFx+voRiny/rvNyfwk7czMoWqm1IhZJqNnxAryWnuD1k51fwdqkzXlai/8kfLu5WwdzHokNWyQ3j7fA4/PDIqrtdUs8GLsJA/KMr6+mHR+q60myt8cdrdmiziwk1T1nUt053iDp5+sENNFa4ZL8gbBTUlLnBkqoibE+ZCEpr8HJb8CYn0Sgx+2GCVEY8EVMT2JdFoV1sQIZ/doa0aniqpmezlz8hLXEpN//DoGG5JBS+4rg/uTuKbj/fiPgkJo/JdaysUCmNW9tgfXMnitPj76RzdhjSSxOlMMHjQRmbfljg+JamvU4IKKVstjUdkk2KVZZ9/q4B/OzKGt87OYc7nkXrbQ/jaY13420NdEuSIXZEBBPJiFLjG6QK8YGEsYmD/1oQarNcwEDPC6PtDWfzn/0/i5eOT+Lm4jl+clPReBq+enFaxAL8z/3/emsKPj03gnfNZ1W41Nc9RhcXD9Mn61aGqu8LmQWNNT6WCMbfvgCkOn7sv7p68oKba4kFskw1AKiauy0ONbW/KFD7y2xmcupSVqV5WUqbvV0no6WfmczacuZbHryUMvjlZUu1Xc9ZzrEkZ41YZa5fE7AxfveB055goAN1tgP6wUBLGfSNh445kUO2A/IQoNa6bjyS6Y6TUDBNFqXdtrKh2d44BXUXOBVRMO8cryuK21QvyRm1b0q8ea4CaVhnO93lQwYxxF9vfMujxSnApsJ7u63aAQwyJuaAV94+XzDJ68xq3AB+VFOqMh4r2KVuBhLmWesRoUDh1qtSAAkzHA+JX9VRsplULEHI0ps5urJo2+dOa1vBNigU0GhaJ05g8tDulLCYNXz0BERwHhcNAYq9r1TkV1fhWGa2QXJTxpdAvDDx5oB1/8/AGbOmW8JVvPaRnfwoL0wNS98uyTXzqsx0Y3BBxtXJnYVweKdgviv/75alpZfk0uK+l3/3Hv+4THx5XPpzQfjwcDqMicuO7OBUr00D6PAP5I4ts25UOqr1xROhy3q2WH9cvG2kwL9zM459fHZVILquMmQaDnEN7Unjh6Y3Y3B1VM3DZGqfWuEPraQ9j7+Y4DmxL4sEd1emz25M4IInBC5dGTAbgdYt3Eksz7hoFZf9oJNSn4xbUc6tJtXUSUVPeTNJt5UPRmn9W2U1Bxer16jOP5j9rltVbDCdZ6pNByazshRfyJUmQopJ+9pZ50ox+FhqM4vzlVcmlOefJq3rWY3Dr8AWp4y7rS2BeUJKMs1en7R+9MSVR2JyK4DRoedvE/TAaYlREQ0Uokkq0zb2/Xgyq8yYIsA7r1oOXBqtQEFdHS8iIILwvUuISej+8O4FvP9mFTV3cCgvdS7ey9otHJ/Da+zNVjJMc33vTKpP2CnhcMzA+ocZpZL2iIuOP3JfC80/1YpN4IO7gxCAGlcHxM8aGJMBYnm83uJlZ74ljpaZr54cT2ND688UHPcmyrfrdjk8Y/2PDEozLauFPmwFZOHdD4liZmsCiISsJVEJlMYlF2EHmk6jzMf9JeJ/5hR17ywjdxgvbratRr04r4E/WZdFjPoKAJWEw6buoF7IuyrgtEiy35WBtH0UlVRCJegbZDNjvYk28Zf5njUblXrq6XBgNzAlTl3sQzKQcIbhojXHRcnnDLEoPXEOlM+dqfR2jIkFWJo7I6U0IjrQL4wubn9Y3KSJNMmyHhOlGKSgi54yg9KsS81jGOr42q55kWbIPPY4lsDKrXpYpUwjBmIkhMJFEcDzlpDH3UxLzjem4qsf66wXLZ5yCFWaCl7sRfXerpG2I6HRS0gk+b5d8SfIcGupVa1A28esCy2bcyEURvN6FyIV+0WybrC/R+EzcSaJhldRzQsrTCF/sQ/BKt7SLOMboDmN5jFPbWQn2b3TCmIvBEPdhiHGhgamXaGgCWRHUWJu0E63ftYwLjEJYmJG1W2ly3VIApvjYAjV+59e6+yKi/suIJaEatcCE1LcV03eCcecFRMXmu8EKAkWziLJ3194MZNx2tCSBTV4FOk1B3IwdkygwbsrzWls47tGd3+TJL190BsIRmbLuqYRWYKdNWJsnUelgcCM+VPlsKahJwjCjwHQO5b6MCEsYZ/4agycv+GaYb3bdN7POm89Wx2LHSigPZFDaMQxrywSsgSlYfXVSf0YENI7STqm3aQqQdmsP8ue8iJhPbknr4NQV7Vk7R2A+OATzwGVJV+okyf/cEKxdw7A78k6Utw6wfMY1OFUiZdhtpmKsJrXLBicqS2HlPa0qlh4OrTCV1Cgp1CvQyfN425K7WPncBBpuSyvpPKytY6gkaYmFImlrwvrZ7a8G3jL9vFRbbz1/W6JeuYbEEwyqwle7VRSpAioXLW1LlTWWHU8lXlS7nnUQczQEnQpkD26s9EXEHxJa34//AeMTxv/Y8Anj9aCPckRC1YlnXvx5rabbQYNj1b/qLoVFrTpPJnUmg+p2D084qZNK4jLEyandnDoGJjGvBvujR/GiXh7B7aFDQ9wP6eh893NJSEWeU66Uy+oHQP4gyONn/K383M0Cxmf4M/ECtUXcWV4YH69hnBLc1R/D3/1pF7b1xZR0CVv2s6Zs7bjTUZ2qXAfsysuEt0yDv2NzT6zOobo0vPC308P35+ltZlR2W1QAfx6+Ombiv349id9eyalfTjU0488/tRFbelzGL96Ys196nb+Pz1b9Ps5TTJ/aHMM/PN2L3YM8/ON0TW2xQzLOXc5ywEGXSqVVpaEO/9wq4F9/6Vw28B/+eeS+JL77lz3Y3OP8Pm58cH7E/vGbs3j9TF4YX5BSVDR832AY33q8XTTP41yeaS1TiwJYCVabBk8uXhox8dL/zeLkkKmOmmrwYMDBHTF843AbBjeEnQAmmUwqqVVPJoF8Dck0TMYTSKXSklIqJRIJhEIh9anzWk3N0kAojo8zQZy4UsGpqzYmcrI0Igkkk3VopJmXVHn11lgoFFTlmnYgKBUDhhgZt4IGv1OiQWnARiSoE6cW16Y3r9XUiEYwGFJn6D68auLlt6bxgyOTeOn1Sfz03RlcHC6hJBsStiWN6raOoavlXKa28OjlY3kL7DaDp415p5WX/l57f1od+X5vKIeXj0/hV/J9fIZHv1e2TNYl4zziTct8eVTWanGBQV63+t31vDr6TW+1Et4V4/VmB2mqtALiy0VZOuWNAh7f8p6jJ7N0uTP5StVxLg2+O+RduJqJLhkq7lCMOgjQtPNqg786++N5dLqJtWaeA+TxT3XUzDMujpt5PGcrw64Cv/PuSzoma1nqeME2PMRPl6x5D8wT8k16SpRXKnj6UN0kdvPXAqIHdSVkoNM5Fc2xcsC8LXyPBCAbO3j0e4EJgsJipMkAhTcrVLnkU7E8Ms6DiumYNn7COE8T08H7JciQjyeTeVmea2ulxqQV8HDw3k1xPCzRFg/kMWqkAHYPxHBobwr96ui3W9kFx5+KB/HQ7iQ+vzOJ9gStuGg6FVD3zg5sSyAhjGs+DbNYtn/yzhR+8Kva61fs7MHtEvF8caPE7HE1AEZMKz1y3QwNynl0uqjuvVwfLyoN8vj4vb1RtAlTErpUHdvW4HlWXg4+LzH76LSFvo6QijwHuiJKwRqGDMI+dmYGLx4dx6nLORmUWyLgmU9epfh7idd5F5sXU9nhWjBO0LAxjObVSYIXgxx7tPCTkJ9xzkvLqqh2OQlbec+MV0S5pL0QQ+hcs9gpGxJlTDzlXOeTYl2PfDCDt87NKd/K0JA7IWpkeYlt3SR9LOTXJq5SDpw3/5m4BHwzvAYsp3DakyF1l1QJy8c0oe6WZrLOpdp/+sWIMOreGPSAO7XtfVH82afbcPh+CV8jZSQT3OUsXKqlwDhYL+rlSY6rcd4SlA2DR+O6rha+t+18Hp8lBQxxaVYJMdF40H/fqgkoxqlFdY366Bje/Giu5ho1O6WL4J2uLd1h7BmMYGNnVKZQaH5ArYDb0rLFa9RO6NoK2B/d1kBnCIOdBrraaXtaX3KKcWp4bLqkwsEfvT6u7pjUux/GTql9nmPnbk29SJA8NS3dT6pD/lU9E+5XyXfo8tNxLU6NGjoqU5cutCd4t4w3Cg/tSeAL+3k9muvcLWwSinE+mKUKhkYK+Hdh/M2zc8jM1U759QIKh/9zwa7BGJ57ohcHd6eqLHYzCPA2D1MoYOMemcZcw/SXJKQUsg5BVYkXxjVxW7+7nkM2bykeWkkBugSdULGw/54I/mJ/SgKIqJrW6xnczExnS+LuzHkemk2GcF81oSlNXqs+cTEra34GJ4d49dm5kLqewNnYLq7qa4924ZlDG1S42grm17gXDFd5s4dvLBncvHshixuTlKxz65hrv7bV2oFMM4rc2hvBN2WNP7qvreU1XpdxDQqA28Njp2fx/uWsCh0zOUvdC9f3P5YPdusETEsJ0VuHi4/7i972IB6WuPxLD3XJxiRWs9dYCg0ZJ1jI1cBdGl8AXJ8wMZYpIF801CsgFX+xUrMds7p0SQPDcFW5NG9bPy3fd+qV0dxmMcR7B4Po6UggTP/WIpZkXIPa5zovitvLFQqy84m0HHwQ7Iz/HYqO3PT/59YKqN2AIXGAXUI8xsjtNjKu0ewGoxFWgwZnDK3z8v4HP+D3nkmO3GensaEAAAAASUVORK5CYII=;" parent="1" vertex="1">
          <mxGeometry x="705" y="403.57" width="40.62" height="57" as="geometry" />
        </mxCell>
        <mxCell id="nKBGLDgv3Pfraqjz_WuU-12" value="" style="shape=image;verticalLabelPosition=bottom;labelBackgroundColor=default;verticalAlign=top;aspect=fixed;imageAspect=0;image=data:image/png,iVBORw0KGgoAAAANSUhEUgAAAEIAAABOCAYAAACUlsCTAAAAAXNSR0IArs4c6QAAAARnQU1BAACxjwv8YQUAAAAJcEhZcwAADsMAAA7DAcdvqGQAABWMSURBVHhe7Zz5c5RHesefGc09owMkwOADb4xwbAzY2Nh4TVjWXiexd23vbrxJdquyqfyY/yhVSao2lXKlkkqqvC4veMtmbQdfgDnEYWPuS0aAQEKjOTWayffTMw2vRgfSSBxO7UO9zPW+3f18+7m7W6FKpVJra2uzuVKtVjM9a9ls1jKZjMViscYvc6Px8XErl8vu+VbGAfk24vG4hcPhxrezJ3iZ+1P/T+mPQDToj0A06K4CgW7W9Dqu1yqf3bd3h+4aEDBeEgBXx6p2tly1C6VxG9b7cgOcO013BQgYzY9X7UShYtuHi/Yvg0X7zeWc7Rgu2Plixcaqdx6MO+4+q3runGb/wGjJdmVLdkxg5MV4SL91RcL2eDJqmzri9kQ6ZkuiYWsL8cvMtBDuM1QsFmutPswAcrmcpVIpi0ajjV8mE/eOaYpHxmt2SiB8mRuzQ/kxu1get0Jg9tvEczocsvvjEdsgIJ5MRezhWNgy+sGPMNQEjLMzupiUSCTSOhCFQqHW3PhsKQgEg5iKsAU5qcG3pYodzldsj65TparlAHIa+QeQRfrvT+Nt9ozAeDwVtR5JR0JMCqdJ5CcFyW6Vl9umGvCIN8gKhL7Rsn0+UrK+XNmuyCACjifmL6LBIxcAE/wtpu/vEwDPZGL2vNSlV4C0a6xBMBhHtSojO1/VuB1AAEJBAJyR4ftIxrAvX7ZvG2oQlII4ahCL2Lr2uGUrVftG912U5Iw3fodfpCOl+x5ORGyT7ntO10N6j+3weCyIjVhIIPSVc38DYvpQrmR7smU7Whiz4Qo24qYtiIuJxZrp1amYPZ6GsahcadXO6d7DkprjAmRUiFUaz8BwTGAgHY9JKp4VGI/rWYxrTD/eUxIRikTtuqTgtKRgt7zBITF0XoYxaAwjbnbDtlIzCgCrxMwyGcZoQ68LYgiJ+EbPHm1IB27WS0jdmOp52Y6nBQYG9QG9T+v7yljZEncTiOsjWYun0zYSarMvBMDO60WnElnNqNd32ITZLs3oWgHwpJhYIQDSbeFJxg27ktezpwtlO5At2lcCZURgCM8bgPLEYlytDOn3OxL2lF6T1YqlEgmL3A0gygKif3jETlnUdheq8gpjLlIMqgHDguFHFB881Z6wXs1iuz5HJeoTIbhJPFsW59fGxu2EJGPX9YLzOkiXB5d2sTH3yb2uTUZsSzpiqzJJa49iTKdreWpqGQgMHiJ7TrP28eCIHSrX7GLFbJSBNmbOD3SpBrZeADwmAJbKMKYk30jBrYZKGxU1BvMDAqFP0vG1QLkqcIp0IqKNqP7LqJ+HpCKbOxNOZZapn6S+my21BASDuFSu2Fea/T1yiV9LdIf0nbC4IQUAsEii+z0ZwTWZuD0saeiMtM0oBdORB+SKADglIL6SEUb1rlfGZUzr99AmBnhFrM0Z040Cg1eM6Wz6nDUQ9IfuFiQKFwTC/8olfioQLmlwRIz8TmdMAr5/ufR/vQDg6tHsRFoAoJnooygpvKz+98sWISFDcrl4KSQUog8k4UFJx1ZJx3OKPZBIAjEM7XQ0ayBKmpHLYnqf3OHH0tfTxXHLysL7AUB4hMWa9dWaiQ0dSecSsQ2As1BEd3VjWrWTko59AuSk1HNYgATBgGns0DqNBXVZK7UkMp0ub7klECRIV9XJCfn3T+QNDihHYBZInxtq6mxBu0SQ/ABjiC1oFyBIxkKC4Ilu1b0mp+qM6RGpykEBckF2hAnDmNItF9JxnyRiY3vMJXKoalooNQMyLRA0hhiii/sUHnOdUUfXBULQahPkLJfou8BIarBcIpnRTMwmY1wIwjsRkZ4vjtkRjRHpuKJgLljTIODCVvTKTm1QqP6UrhUaM3bM07RAgOwZNf721bwD4Zo6CxomYgIyQpclSgpWSwq6hDw5w50mhoUxRT0Oym4cGi3K1SoZbKguvzMqxrZU+vvioqS91JWUHVGm2hjulEDwIC6KIslbl3LOJTYwcASSBEOEuKjCUklBTMbozkMwkcSLPFrVLmgCD0hV8C6DU8Q0eJY3e9L2F4uTjhfGDRD8NoFoMCcoyRJLeu8bwQAt0aw/p0juL7vTtmVRypYrVL4XQIAQxoTUcmUyZlsXp+wVMbtebhQ37seHWlMEGpLrJWALUki5wo1vCHQwkP3lqr03MmbbsmPOPRK0rJDVfVbe4NFMwrqF6nS1gXuB8CzEOwOSjkPZglytsl+pDtSlGf1xR8R+0hlzRSCiUCcR/OcvsjheqQ4ErQY2YZUs7ha5oj9JtDnXhITcq4Q96NQYCapI20nSbhL88TKR53AymXTZY/BKK4kirfZhkGtYarFcktCtDtr1NfUojwVSRsrM1SRxt5WC/fpunTfT1aHBLdFYCbc7dHkKhcIWj8Utk57IsyRD7AYu/dd4ZDKhCin11CWAu3Wl9Bk0L5bGbJeMK9egIj9Xhb6NgNAnfZwrlu2L4bztUZB3XQY+pO8zGh9jY4wJvUcWpuTIsdrgWTTJWM5EPMID2AxA6JD5KeZy9uVQzj4aytuHut4dHFUIXJTnqQOykERruPZLihU+FQDvDebUZ8F2agL6ZAsitap1aYBJAHCM6gGuKaj56zkB4YlG2jSsmIAoFAt2Jl9ypbh+ScOh0ZJ9LEA+0UAJcEYVmGG85ku4wSHN+tdyi3+4lnPMU7whPeci5K4JCAKoaaVgBmoJiBukwYWYdb3yj7e4p1MKyT9TYvb+1ZxLjgiFcVdzhYP7aZNnSbaoS9DmrpGi9Yt5X/1yl8YAM3MFwNO8gKBT3NGqZMRZad8Yjoqq0jGl6r+T+P5eFwWWPCH6HNBAkkbk8w8rWnz3yqiTNCJe1MM345I9jeEJvFkjQGqF5g1EpwKWl7oS9uqihFxsxFWcaZSBenHuEyPbZDt2Sl0uyLBS4Z4JED3mcohTAhI12CYgUQPAJdTnUfpwLlI5xE/U9+ZM1OU5rdK8gIAofKxUjPGyYvg3e1Ju/QE3GxdKDBjpoH55TqL8mUR7h0T7kEJgRL3ZmPKJMLlfs753RPcKhC9177e6l1oIuQPg0zbl/a2dcfuF+iS+6dGEIB2t0ryBoG/S3QeUf2yWZPxqSdpJCJXqdomsD7xcTUMGlRrCe1dHncvrl3RQWyAOABSk4GyBwk9eIORdik3eAwAQ3spnkq8pV3hTfW0U8MsU9QLCPHCYPxCeCFWTCruRjp92p+wflmXszzTI7sBMwQ8pMmueH4nZ30rv98vwXZa0IAW7ruft7StZ+0LfUZojvPeEN3hAkvYjScE/Lm+3lySBpNMu15kh9pktLRgQnpCAjkibrcvE7a+Xpu1vNWvrlaZPSn40zSflXbZLVX4n+/GOrg8kBWwLCHoYQATM5xUq/2ppxn7Wk5Fxjrr1DQK8+UNQpwUHAgIM1IUZQ3/R45elLqvlXRINYwoYqAuifyRXdlWwEamGT5u5p1MNrVG+8EZ30n6+JGXPCIylkgoKQoCwkBSWbbotxDhJ1rqVozwp6XhD6vKa0uP16frKNrUADwjxAKDwnu8Ai7oB1ejX9QzPPZaKOQ/lbc5CU7hYrLurVknjdwzMhKcr6cmYvig39/eyHX/elXRZLAwH+QIEKl+PpSL2uqTgl1Iriq8kfCR+twkDR+Fr1xrvWqCKrv6xqh3OjblokvhgOkxhIq7M7xEZU6QDJl+U4cPtAQC2gEWaV2QEf71UxpBymjxPK2shrVBoYKBQ6+q62RWMXCxXbftwyX6rMJmFG9zgS+0x+2VP0r1n4AQ2A9Lv/5blv1ZTah6JWK9meV1S6bpmsD7bU8OC9GAsyU8Oyj4cK427QOxRMb5G0rBMzwMA/eARCJ+DxKIwhRd6iOumsH73G0VYBOZ+nqPIdKo4bm8PKdwfKbtn2YDyhiTztUVx16fnPNzeXu/MX/W5m5541HWi98Ni5lCpZn35in2pZGuHgNt2rWBHFAWyQYThB9v2F1XujCThERnPH8mIvt4ZszcUF2zR+wfjUVdyc/sfdLk+G+9pD3tyVp6F5QWCtKCLDd5fJ71Ow45avNEuVziujinC3LjiMYvGoo190Y2G9S+sz8H74rpS0fqGDQwY7hE70Fes2o7Rih3VBFQjUbUVaDtwuefjUo1EzFWSetNxW5yIW0L9T3U/VzgaswvVkL2Xrdj7o+N2sSqXTB/RqJMEXic8Ay/6bkKVnvE6Xm7e655v/DxngnmW5h+J1Cyhz7hLtvhslt6zBvKhIkdcYrNYT0XTTNokIhg7I1FniYGFJ1xtXZnnTy0DAUU1iGcU+N+v2JcVsD0aIBtBehRQUQX/RkAEM8X5EnwTjmO3yExRvoVqu2UgmI1+GTmW9ogcyQGOiXE2jLHws0bfEUewPAgDC0VIj5cg3y4vRKOA7vOSudI8gDC7oFnfWdIsyS0+q6AJVTkhQwZAWH4WXwFqKtnXmF2ihfVnHYWCDu+DhdhmoikGTHPcg8HGe+X03Dl5oFPKV1CfVqhlIAhwFovZM0Jkn+II2TB7TfHBckWNJzWgPdmiDcq9usXgxjOeNG6395K8Yq/U6UO3yl60PnkeNqIB0HTskNx5XOXlXXK2S23822DJPpeLpN1WqGUgSIkfVBjcG2EroWZD6TO24VW5QbYOY9T2a4DULGHcE+8Z/AfDBfungaz966Wc/Y9ilv8YzNs/D4zaby5lBWJpwoKzJwDASCMZgHWsUHbrs/91JWfnJJ3EF60uQLcMBA92yiu9kAzZA2Kc/ROfKn1mmzF5Jmum7KobFEPjjfnlf0QXRv+gmANjygyyVoLXYSF3r6TjXWWhxxSLsCLfTLrNAVJUY32SxAMCG3DZUMZKN4FcK9QyEHTHQkpvLGw/bBRH9stQbldAdUHija4jDQRWXiJ45TPbD8/KxdL5BiVhv+iK288kSWSnnkEiTh+UeaJPQOYVU4B96JF6bu2I2ZuLYi5TveNAeGJzGFt0fq1kip2xhMbMParD0iAz7YcGOKgF0iNJdiW9VwTA+nTEFXHY7sPGMLdPSzfgkpttH6rhlvgF/AsC4O+UnpOhrhAgwb6C1NTElDQrIBBtaoklib2f3SCRUlOZ+nlP2lWmqFC9quTpRYXMbDFm4BCCTmkfNwdeHeIKt0vClRRopOwd+sDd7Lwd1ZQHzWb9mbDS+qgr0/3Nkoytlbdii9JUpoESA4kg161oVkDgo4/LGO5QtEg5Hb0O4sEYAAMxZVcK2eVfUU+UhAT3UfEMft4/W9WTfL4mhockAUhMcE5rTcwBKDHKq5KAzZIgduggBbQfvJVkizGS83w2UnKRrqemJm/QJCC4kchckncDZXSRxt6Rhd42lHe77XGNxBJB0UVsYZyZBRT2VnkQIDrr0HfUJ5AsKlL9ZKBK2tixS6WK7+iXJXuuwOPOI1ChYvPqIrWPa76ZYNVtELNPTRQ79M7VnDPK9OGJMaC2wXahKSUCg0MS5dDWZ3iF6cuate1Kaf9zMGfvy/1h8Fzk6J66NaEC94kRapCAdklMf6IZ28tC0FBBbRdsSIzA4DIZYdQmCAXvGA9XMyOAgBQgudvkdf5dbvlTxRXOazUGyASzmYx2m+sck4DgR27GAm+R+GGUGDREe+j3Uc3g24MFe+tyznbLzF/FdtRvmZGYUaJPxPp+AUIpf7fc5XHFHFdRD2cT6lUqJApDPInjJuJ+JBYDzOS8dWXUlQLOlyvOVTcwcM3U918mXdmv+ZhNKJ/PTzrKhLgz05y8wyXubZy6cVuMG/eALsvu92uaN8gW4Aa/J+YAcRK6AWJgeA4StL25igZcP81Dn+QmlO3zev+0DOLL8gpr5FIDSfQEAgBWv44rQt0lQI9qjBcltb7+CfNIIUXgXoHwrLzTE5pgNqFi04LkjjJNt7WfxthRd0KAMGh8O+qBe/OAgOxi9bZKHW0UGOuUX3RLinxxdiriWQKvCwKBKtXQ2JiFw+zTDjsP9ZWAT2icPxAQ6xQoNQMBmFS4LmrW942O2X6p1nGBQL7irQF9MylEv09qTEzUSqmb22dZv2UC3XLnLZ2W5YcuadCczEOnT2oG/DqkJ/ZCL1dHG+TOvi/RZ+0BEZ8p5EUKxqvjli+VLBaLW0RAMJvnZXvQa+IMjKJvge5coKbJ4TwIHuGwPANj836BezGGuFkmhbGwA9CpeJMUeHKlvVsBATEAjc/FEuxw3Xm95JIkZtNLBl3QT0KMsy6JHdiqOAIxnOnYALXGEqdvYvW/FkBffj8Fz3mpYrCAQNj+gYwqRyUHmqQTYkIelnS+vDghKWCn/q03vs0aCE+MDwPEZnSW/MktDkvXRzQYiiUQ/TGYpZIODC4HS1ZLOji04lLyJvLnsSiZTTUOmvW786l1AMBR9U3U6dy3fqdVbAtMIwWsinEQjtXy2VTB5wyEJ2aMPOKskqbPB0fsYNmsX3oSPLWDkcpoJurHjmLuHAULxYTdwYHNBITPV8hsiQsAgjyG+kUD94YahJyh3qQQnRMBLA4Rqd4KAE8tAwHxMCd4zg1dt7OhmO0pVJ0xxQVSvfKAINqk5ZzsRV2oXKG/fqaqUwABk6jhoHQfW/CxJI/4gCTM2yXaxSCj+09p9jelwtbbnpLk3dxaPFuaNxB61kayWYun0jasoe2WMf29Ai4iOay6nzXGxaDJUF9oT8h21KWDwM2f0PNAeFtEis5RSVSBQi3G07cHCBhijOAPO+PuxLA/09U2jQeciRYECE75pTP1U37MGKf8OOx6QDOJMcWYQYDhM1LS7RdkO56QS1smHarKfWIsS2KRvVH7BChxAWE93gkQfBveJXLkkUVhtgqkQhqL2rirp/z8cUdmFJ4JxAbk34/kxpxec+SJY5BepGGGFSZCbYq+GxTkrAzL/wvI0wLuC4HIuXF3LkQNehUDRJ7xh+gxwJQKMZK1hlTdcyeB69lfTdIx5tzsQYHC8iCrVH52GS6zi6t7XqKdFUTUPvlLAkgRtwGabnHAPah0nrrHJgVZD0mtiEK9W77nTgIHCUZgelSDpDRH7PF1Y6Zv5oJ1QEiv6/fflABYRAqog66VClHbeFRGsflsOHRPAwHBnG5zxo9okY1hVJxxh4TD/A55vvxniOyXReFNsiW4X5IwVxFvAgG654HwBIMUdziiyB/OwHbgaqkb+KAIggW8C5kp57CeVkzAOaxOGdRgGb+ZvjNAeIJhyvBIB2CwpsG5MaSD4eNReuVRNnL2Sh6B8Hw2keF3DghP2AEqUSdkM3Zni3ZaMQNbAVbJBjwtEDgbwm65qdRgKvrOAgEBBtIxLFd7qVC0lJ7vlmdg9+xcD8wuCBBTFWZmQzxMVKjnjcMv0/1plZkIVXGRpRiJaDLaQvVq9FxAgBgLYDChwRrmXOiO/LGdmQggkKxW/1AONN82arWa/R9H5crHl70WegAAAABJRU5ErkJggg==;" parent="1" vertex="1">
          <mxGeometry x="983.52" y="418.57" width="49.08" height="58" as="geometry" />
        </mxCell>
        <mxCell id="nKBGLDgv3Pfraqjz_WuU-13" value="" style="shape=image;verticalLabelPosition=bottom;labelBackgroundColor=default;verticalAlign=top;aspect=fixed;imageAspect=0;image=data:image/png,iVBORw0KGgoAAAANSUhEUgAAAEIAAABHCAYAAACzmZFbAAAAAXNSR0IArs4c6QAAAARnQU1BAACxjwv8YQUAAAAJcEhZcwAADsMAAA7DAcdvqGQAABXfSURBVHhe7Zv5cxz3ccV7Zg/cJEAcvAFeIEjwFmkddnyo4pKdKFFckvNL8tclccVVqbhix7IjleJEsWVJpikJJAiQBAECIAHiPgiAuBY7k/f5zg61XO0uCIh2Ihe6agkSO/M93rf79eueoRfKbAvG5RsbG7a4uGi1tbWWTqdz32zNstmsra+vu/sTiUTut1uzeIyKigrzfT/322c39hIEgRtj63f/idoOEDnbASJnO0DkbAeInO0AkbMdIHL2fwIEymUjMFtaC+32RGjv3Q7sg4HAppZCW80ot29J2Twf+6MKqqw2v5IxW1wNbWgmsO7RjN2dTtjkkmcpaaqTLZ517vOsvdmzljrPaivMkjoqz8sNUGDPU1D9wYFgdE5/eT20mWWzu5Oh3XwY2h39vDcd2uyyZ+tZuaY2W5kya20wB8TZ/XzM9u/2bFelZxXJLwLylQICL5hYCO239wL7VV9ogzOmzZutbVjREGCvSXlHrYZtrjX7s2OeffeUbx17TWA8jcRzBWJlZWVLQGAsYHl52aqqqiyZ1FEVGBtcVQj0Tph9OuJbz7hvI/PmPILfZ/V9DD+uz8a5Z13gYGyX0+e7+mqzfXVmHS2BXT4YyktCa6wxF0rxRgDBKxU/m1g8hpfJiJ2KGAPHzhL/Pf4JELFH5AMRf08o3J8ze/tmYB8Oejasv69m9F3uOsIgrY3srgyd6x/Q59Gq2chcaHMrhFEUTrGlEqHtESCnmkN745xnLx7xrE78wQbwzlQq5ebmg+WvFYv/nv+72OIxvnRo+Im0LQvL2cfRydZXKdblwo/FCbfGQ/vvu6H9bii0B/IIwqSu0tyJttaHdmZvYGcOJK2pzneeMjQTWvdYKB4xG1+EPwSI+GOX7jnR5Nm32xUqxz07KOAS8pZHy4GNz2esoS4tz/GtShwDyM9q7OVJaGwXiPlHi1ZZXWMr2ZR1i/z+oze0Bp3adzt8O3fAc2Dg448Uef/TH9o//C5QujS7fNiz10559sLh0JLhulVVfl6Gs5LIm0L7jdLpOxpzWgBf0T1vXvDtkn4CQKA4mlaq/UgA/+xGYBcO+gLJsxMiWQg3oZOHMjbDZNtAcOXqRmiTj7J2a+SxDcxXWs9EUgQY2rxcGo843mT27RO+I7mD9VFaRC8Mz4aW0nER87vlNRWJwDKO6J7uRzAHWeSxwmNuORSQ5sKCdErmmBewAA+4eNr0UpRtIFayzQuHScO+HdLczAXPlLItA8Eli4rh0Udm97TpGyOBdY1kJYB8W1Ls49aQHSdQLbY/VG/2+lnPvie237eL2I3Cgp+4LtcFQfnGDItiZdzHPZzwhli2a8TsX7sCu3Y/8hbtw13LhgkNNn9kj2cXD4pTpEmONXoOJDIO8+fbMwHBAjI6mQWJn9FHofVPmV0fDa1HMTy5GJ0Y13AzC8VlieW9Ynhc9KU2sxfbfHeSfFdocerbSocqIyB6x815AmvByyblEWSbOBOxVzwHMXZYmuTiQekRheoRAdIiQGorovWw5pJA8DeXxgQALvhwPpr413LDHhEfMc73sSU0GOFQIy8AAFThy0dxT51CTRSnpWw7QGBMvyYPfCAe+XAwsI8Hszoo33kHqhWOyT9a1rh/t9nX2pRtWj2nXpu11pq0Jy8KLRQQmUweEPyxolMe1eY59Zv69GrzsP1jAcAE+SAQ+wc0wckWcyrwjD645O4qz6XGYl6Qb9sFAmPFG1rM8lpgE/NrNjif1kF57tBQrAsKY7w1NtbCmhrETccaza0VL2lvhlvkFRsFPUvP0y81y6QYGRBQgZAgHpIPAkZscvNeuf6lQ54yha9BPRenm4HwZY1YT8q38UR0yAXxAZlqt0ITAArXyu/wFsKoR2D1TUHC6ApCKbr4KY/IKtAWdfqkr+ujUoYCo183TYgTEDlwRv4k1dp0m7zgSqtiUWDADXACYJRja+zLeARrgC8WVgIbnl63/pmUdY16+sBnn4eG9um4oELrQYAdFomTWc4LOLxi3y55ik9oZPKA0J8Q45RQg2zYzIziDle7oQn4iUwGKMgpBgRUK3U9xRLcACCn93q2V9mCcfAOFlRo2wGCKTOae1HpGBXaPRbYJ8NZpXBfBO49pUY5CNIqAu+4xFjnvmjzp8QRAIOXJxQBdRVRaDwBAvfpn5KIuSUPUJF0RcRyudV3rk/ZPKyJ4Y7f3zf77EHkOfne4ZDXxiHN0yqQXpIMfuVolD6LhcpWgWAq0ica4sPB0K3hnkJ3TuozzhixQZCk8Be0hxdFkngBfIaOIew/GpIileecO6DM1hpawvI8AiBujQf2o2ua6F6k7Y8q5eBGLx/xnSzmGgTMwHTWPuxft96ppAb2XSXJd4BB3B4VIf21dMR32kmfkdcQVnyP6uPfm+kIQM7qD1aX0I3cC0ESrj+9rs0IDGKecbE4e+GZHMI5nX6rwha1C4qE+6cjAGjuULn2rQuoXAk9rwgQ/3g1tPfuSEZrAlyLjeBOsCyEBLJJy1r/+JJNLFfZbYFBTfFwIeIM0tNLR0xyWN6gexmdBffKm/CYww2eNQnUqpQqvmDdKvOUJQsh7Mhes1KV6AS4CddGpVanRXLKCH0TkUdclahig1Upz417Xid8WimcA0Qv0O3ie0L75pjE4HS0TkKoTYD9/RXP/rKzCBC3JwL7JwHx7u3wCdI6COfaEAsT0Cw5uy+wpvSSNdbX2Go2aUOz5jIMKJ9SWCBeqpSnZx9HTZgP5GHdD0lhUbVJ2mqXFD9Qt27Nu9PaYMJ5ABw1JpftEx/d0mbvTevEta6Tuv5bku14555qrUjXzmjsO5OB3RrbsD21STuWAwt9wLwDKGARfo/mHxSghBC8ENuRPWWAuCMgfvR7FVDiiRiIfMM9IcaGqsAuH9qwvzqfFkEmXI5mwXwPSemsbU6L+YmkMKAOCaR4EVyDZ0BSbQ2hvXoyoQ36Lp39lzzxuhaOB8XKFWN8VOJfdHr2N+citeqL6DZ0wZJcproqrdDwXRnA/T/vjrgEsids3QYLDCD+TkC8DhBwxNycfEeGLrg369tPulP2Tp++KgIERnxTWNbITfGSE01Zu7Q/o1PLWqPikVpjI/BscC5hv+pP2Wejvo0teE+pUsZwgGiDFGA1cmP4YF6nBgCxOuRyXeZClHA6pbL99Y51O92SVRiiecyW1j15UehCtGssZQOzCQcAIVVIovl2uD5rf3suY9/vyGp+zbO2plwkY1D0wn/2eSqpNTj1RE5RljLSD3HbVB04xUZ90SmSYtEpucbcim93VaN8qkKJbvW44hPVxynlG5vF8tcM8+ug3ViEJEUUoXFod+hyPz1QaqCuB1kH9tAc83kSTn5RD4iNA0BTdLSEIsvQvnE0EOflNWb4c40SWwAgrz8RGd2eiCQ36hI3LTUBg6M7KGqOK1VdOhTlbBooSPFYpHWLtLpFWtQJ6JXCviWAxM0d0u4JccMlFU3tkvGEA2RMswYShQARUMMzgc2v+rZKCJRBgJDF+w5o3NPSFKRVyLWpJrDsRh5HYLgnHsCCiGmYHr4gnQKGS5O6utyEGDGNh9BWowijFQcvMPJDneIHA6G90xuIZJUVVMYDMuFCqJClSH+vnRY5CsyECiPmxDu595c9UdcLBZkPYjFjTDyL9ZD+GfeNs761S/BViLj53gsLii4GnVqM2mugizs67aDfDyntXJOHQECIGLymnIcwQUonQFlOLsetUZykQfQJY84s0tNYl/ZPKgx9566k57M6JZoqsD+6YUQeeUee+Zk0AKU3VeZmIYux+SZ5KAdyQV71gtI5EjutA2H9PEyKVGdgfiiPCFRlsXCAGNSG/+1GYFeHQ7doFk/qIkczMWECGHxujWVt8jEuqZtLGN8wMb2B/SJWwoVFkT4P7BLga2u2kk0rdBKODwAez4FYCSWU7A2lXZ6FQIBLIkBIvdwBuAxDTSE9g+sDLmHG+selmDlo0iqdr++0k4mkb0ifq6thKHHngEBi/7OU5S/kfmgHEO3QgMhtym0GJNYmF7L2Uf+K9c2kXXYg91PdlQobAKE3QYwDCKd+UZ8jDRt2qDEl1hbB6T7SH20/yukueQAEG5MrYxczNs+a0DCIPXeAAvuM9E6zeIXsR13Sq7Gui7RRpoQ5oL953nOEWZUQEJOTYdgo92GeGIh/v/m5joiJ8LIqzFcktRFU+2qztrG2aMtBjXVPJO3joaiDRf4v1hwptIi4VM8cDlWPJJTT8axIPv9G/NE3GaXRcsa6GId0TRo/pYOizf+1Nt89HIKgIWW8ijEhfn4XG6D9UBL7mYHAOFHYnzhukxDhIcupPSt2vrXKGuuSzs04PVicOAaU/EmLGRuBRxp0MpwO80GASOzNgORe4vtkcyj3D+xSa1J6xndeQWeNFsKNXAjzfKXY4XwBCMmIMKUTzw+NQiBiYwHEINqhpSYrzZAUj/iOS5pqPCeRKWiIQ5qruDhuyNiljBBkXIz6psylLgyobkmpF5WiAaKlOmM1VRU2seS5ooqQ4vkI3omoAthiY34BiPysQX7+6fXAfiaJuqATBYxSJ8OiompPBAgpaXEnpSHgFVIvBQ65no7QgHvYm9MNZciumOGJhGbcFHa1jkiXMpvG6/BMRmoyJe3jubnuaw+luAoDc7QKVeqbAuKNszmyjIHgz3mdKNqBZi1PnEbnxdQCpBSqGAOTGUAYhj6vTySmIndkYVR+uCrNHZ6Ixa5aygCZsAGAQ1owjR6qX0BoqfVsTUBzaDcfKgVLWd6Z8pUOn27MFFo8JpwCYfOg6dWTGlMFpEf6jIHA+BuDUQAhdj6VdoBoerQR5x2564pZjDQNUvoRPJXiQQ96BNefkG6gqvytxNnHQ6Sy0iFDYXdM1emr7fI2hR5aAE5gDShenqxTzdIxI6uw7nJrwwhp0vY3j9NwihrNcJPvRQ+anvIInkjxEJYTRuUhrCa04J6xwG3gjtg8fh5ZbGLAIE0yKWKKsphc/rLYnEXQYKGfwGleux84xTqx6Ll5ODHYnpaaa6zIA2JFuqCDwe1ZQ9xDJasATCkwYw8gfPHQV6Rwz+yL+ikUcQhCKtjadGBBtoAjyLfv9wcOaRaCS8ZKEIEDCeIlpDeePa5oA1lVmqUMIqQiJR7PaDy63TzMxT1pvPaNR12ugeko5TFnp9yf9iBeMaVSnlBlTjLRfa0LAiy5eT4AquzGugGfBhH7AABAdT0SeTiKld7Jy22hquk8IECIrPHjT0L3QgfkRLcpFicUPRAd0pRO1tXBNdc9npa6JFWWi08AiVKv5yZHcreL8WsS67ZuaZ1uwmkCHs3R16CspvAjDUK0hNFmuiJO7xR+p7Rxl1W0/v0SgYyJrEZTkN7vyqsAjf7Gm+cLsgYFFxf8OC99sjjQpa31+hnPvn7Md0TD0/CxmUW7v1htvx5MilzNhZSrPzRaiQNzk7Ngnj+0qwymF/DysbQyje+AfPgosF/2RkXZ/Vmdvki11Oljzhf1B4UVbcFvHDP7fie8FPU4WAuh/e6twBVqvKdBGxAPx0PoWf4wTp/xGzMAMTDt2b90efaLWwkHBBPhasQ8ZNXaIAGzXwLmYMYaK1ZtV02lGDzhnoZde5CwG0phI/MRD3B/MWNMeAQ3bZC6PN4UirgUZutKfxOea8vjYWXjXx94jBdNDu4OlQECSfbQ1RjIeGoS2of0Kbr0GdeY8ZriMffXhfaDc4G9dT7reMLT6bqvcPu7ckNC4+2eSKPnWzR5aLsqQhVMgXW2bNiLR9N2VIquvsoTXwBCVCPg0vQJSZXl+gSMWZUK3aa4hlSdDfltceMb+AX3R+FePBRaZ/OGHVa9wpMvVOWAvBphRaaLAYDHCpewX0XfWxfkFQqN6mReYwZ3GYAjcqFR2EWKjcXQI3CnUa/aAxIUj9CQIXVGLh7J2ycxrvjEJUvgsanBMVEFq+yjtEr8062mM0ZTZWY1bf3yZkp1mr7wAaCW4y2nLC/mlKVfkDXIDD/vDuxtAfGsjRg0AmHzzeNmf94BGXrOQ9JJz5W9xPt7twm70PURIK7NxsQYl0/8tIon7a+d5nWDKOvwTsbMUmA3Rtbt3TtJgeC5kChnhDljEurwyA/OeZ+X4TEQGOHA8wT3RGs4+kmsbVovaHAeo9FfJFVRqcatOggX7UFlyZgUZxRCLLoUGNzDgxkeC5xTxkIFIq9ptS1oLYQdjwkQV4i0pbXoXc1yawQA3t+CRwCV1wQuyJujVl3B+xEYzE9c89oOvQH6jKSyWEyVIkGMDXCC7vG7XDiW26hLOsV0qWmyILd534JNLGoTzBnfj8uS9tAUSOrDEmWAPK/1cD0agAOCoFGV5TgI0/5d+w/9gkZhXEBtkNdWip++0KorNNClxuCBKwUUBNSrReDitMvKFVCgH6dJGrBUpw4Q6QiUHmnx7mTWrg1nrU91AqRGFgEwFsozSff+lYCZWIzEFIcBBzxUqe5a/jqQUvuHUxgPCc2rQ+ggOmM0beqro/c3WCNb39o7VPrgCTwJuzoULWhgKuva9WtZnWiZRWEUTwDydclcvITaYXdlYCtr0SP9e7MJF/e8PdeIqNJ4PIgemDa7Osz7UlFdAbeUMuLfhagAiHqV0VxoC/fkLbXNd6gKjYvwADpJI3NZ++Test2aqrCbEwnHI+VChvlj7RDFqE5Ip352b8YONqbl+gnn3jxOwP0BmhKefgZNn83iHwNsxqbYQw2TVRB/lQKAuQswcLYtIGLjjZo1xczk7KKtWo2NLtILoCAK3KM9aoFSA3IiuDs80lyDAArtSlvCTogTSK80c3ggRIuN/M+7UgBQbjwAOCNgqSgJK1TwnhrfzcFchV6Qb18KCC6P37ytqZUP+mlXgNG/gMRuqjymSwW7lztJ1gePQI687AXn8NB3s/wfZyj4hxTY0Zx1rbqOluiZKK2AMnt/yp4bEPlv58P8PL0iK0RiKnoK7fSITrZcfG9mbAwC5JSpKumEcfqn9wV2pD5jzbsq3CPGrdofBIjYAITwgO27RgJ7X8XOZyO5Bkrumq0YIBDjVKY8pvvWiegVwb36t3t7V6nv/+3/1yAcAOSxUi9NVAiQN1zoKzxJvZvM6jxA5NqqmgI1ybMV3oGI8j/fR+9IsomvxH9cYcN0vsj/hA16BFUIQPAIfBAvgNPniRfxTzPnvNifECAV0h/h5ZN8i9/D+koAERuTEDLjKsgQZYRN12igeoSyO5LiexBAOnXSHymW/M8bMlSnxQjwuQKhv2wZCBawsLBgdXV17j+NbMWAnbBZWs3a4PS6vT8QFUzUAd/rFAgHeHE1ygx+udwnYx28I8lhbAcILB7DW16WiN+icfPKyopVVlYW/a9Mz2Lgv6a4WM74tpKJOt00fKP4f7YUGJ/oVl9Yzbd4jCeNma1Yfmhs1SNiY3JOgvu3e5rxGHgE/01pOxaP8UfjiEKL45v7t3ui8RjPgyO2dxR/grYDRM52gMjZDhA52wHCmdn/At+X5L7Zi7cSAAAAAElFTkSuQmCC;" parent="1" vertex="1">
          <mxGeometry x="974.0600000000001" y="166.70999999999998" width="47.41" height="51" as="geometry" />
        </mxCell>
        <mxCell id="nKBGLDgv3Pfraqjz_WuU-15" value="&lt;font style=&quot;font-size: 11px;&quot;&gt;普通用户&lt;br&gt;（windows客户端）&lt;/font&gt;" style="text;strokeColor=none;align=center;fillColor=none;html=1;verticalAlign=middle;whiteSpace=wrap;rounded=0;" parent="1" vertex="1">
          <mxGeometry x="60" y="334.64" width="105" height="30" as="geometry" />
        </mxCell>
        <mxCell id="nKBGLDgv3Pfraqjz_WuU-16" value="&lt;font style=&quot;font-size: 11px;&quot;&gt;web管理平台&lt;/font&gt;" style="text;strokeColor=none;align=center;fillColor=none;html=1;verticalAlign=middle;whiteSpace=wrap;rounded=0;" parent="1" vertex="1">
          <mxGeometry x="446.38" y="645.07" width="76.37" height="30" as="geometry" />
        </mxCell>
        <mxCell id="nKBGLDgv3Pfraqjz_WuU-18" value="&lt;font style=&quot;font-size: 11px;&quot;&gt;login_server&lt;/font&gt;" style="text;strokeColor=none;align=center;fillColor=none;html=1;verticalAlign=middle;whiteSpace=wrap;rounded=0;" parent="1" vertex="1">
          <mxGeometry x="275.32" y="335.14" width="60" height="30" as="geometry" />
        </mxCell>
        <mxCell id="nKBGLDgv3Pfraqjz_WuU-19" value="&lt;font style=&quot;font-size: 11px;&quot;&gt;file_server&lt;/font&gt;" style="text;strokeColor=none;align=center;fillColor=none;html=1;verticalAlign=middle;whiteSpace=wrap;rounded=0;" parent="1" vertex="1">
          <mxGeometry x="268.9" y="199" width="60" height="30" as="geometry" />
        </mxCell>
        <mxCell id="nKBGLDgv3Pfraqjz_WuU-22" value="&lt;font style=&quot;font-size: 11px;&quot;&gt;msfs_server&lt;/font&gt;" style="text;strokeColor=none;align=center;fillColor=none;html=1;verticalAlign=middle;whiteSpace=wrap;rounded=0;" parent="1" vertex="1">
          <mxGeometry x="453.62999999999994" y="545.07" width="60" height="30" as="geometry" />
        </mxCell>
        <mxCell id="nKBGLDgv3Pfraqjz_WuU-23" value="&lt;font style=&quot;font-size: 11px;&quot;&gt;msg_server&lt;/font&gt;" style="text;strokeColor=none;align=center;fillColor=none;html=1;verticalAlign=middle;whiteSpace=wrap;rounded=0;" parent="1" vertex="1">
          <mxGeometry x="455.57" y="237" width="60" height="30" as="geometry" />
        </mxCell>
        <mxCell id="nKBGLDgv3Pfraqjz_WuU-25" value="&lt;font style=&quot;font-size: 11px;&quot;&gt;msg_server&lt;/font&gt;" style="text;strokeColor=none;align=center;fillColor=none;html=1;verticalAlign=middle;whiteSpace=wrap;rounded=0;" parent="1" vertex="1">
          <mxGeometry x="453.63" y="421.07" width="60" height="30" as="geometry" />
        </mxCell>
        <mxCell id="nKBGLDgv3Pfraqjz_WuU-26" value="&lt;font style=&quot;font-size: 11px;&quot;&gt;route_server&lt;/font&gt;" style="text;strokeColor=none;align=center;fillColor=none;html=1;verticalAlign=middle;whiteSpace=wrap;rounded=0;" parent="1" vertex="1">
          <mxGeometry x="610" y="319.82" width="60" height="30" as="geometry" />
        </mxCell>
        <mxCell id="nKBGLDgv3Pfraqjz_WuU-27" value="&lt;font style=&quot;font-size: 11px;&quot;&gt;db_proxy_server&lt;/font&gt;" style="text;strokeColor=none;align=center;fillColor=none;html=1;verticalAlign=middle;whiteSpace=wrap;rounded=0;" parent="1" vertex="1">
          <mxGeometry x="837.41" y="319.82" width="60" height="30" as="geometry" />
        </mxCell>
        <mxCell id="nKBGLDgv3Pfraqjz_WuU-28" value="&lt;font style=&quot;font-size: 11px;&quot;&gt;http_msg_server&lt;/font&gt;" style="text;strokeColor=none;align=center;fillColor=none;html=1;verticalAlign=middle;whiteSpace=wrap;rounded=0;" parent="1" vertex="1">
          <mxGeometry x="695.31" y="465.57" width="60" height="30" as="geometry" />
        </mxCell>
        <mxCell id="nKBGLDgv3Pfraqjz_WuU-29" value="&lt;font style=&quot;font-size: 11px;&quot;&gt;mysql&lt;/font&gt;" style="text;strokeColor=none;align=center;fillColor=none;html=1;verticalAlign=middle;whiteSpace=wrap;rounded=0;" parent="1" vertex="1">
          <mxGeometry x="978.06" y="475.57" width="60" height="30" as="geometry" />
        </mxCell>
        <mxCell id="nKBGLDgv3Pfraqjz_WuU-31" value="&lt;font style=&quot;font-size: 11px;&quot;&gt;redis&lt;/font&gt;" style="text;strokeColor=none;align=center;fillColor=none;html=1;verticalAlign=middle;whiteSpace=wrap;rounded=0;" parent="1" vertex="1">
          <mxGeometry x="967.76" y="214.70999999999998" width="60" height="30" as="geometry" />
        </mxCell>
        <mxCell id="nKBGLDgv3Pfraqjz_WuU-33" value="" style="endArrow=classic;html=1;rounded=0;dashed=1;" parent="1" edge="1">
          <mxGeometry width="50" height="50" relative="1" as="geometry">
            <mxPoint x="150" y="300" as="sourcePoint" />
            <mxPoint x="268.9" y="298.81" as="targetPoint" />
          </mxGeometry>
        </mxCell>
        <mxCell id="nKBGLDgv3Pfraqjz_WuU-34" value="" style="endArrow=classic;html=1;rounded=0;dashed=1;" parent="1" edge="1">
          <mxGeometry width="50" height="50" relative="1" as="geometry">
            <mxPoint x="270" y="316.01" as="sourcePoint" />
            <mxPoint x="150" y="318" as="targetPoint" />
          </mxGeometry>
        </mxCell>
        <mxCell id="nKBGLDgv3Pfraqjz_WuU-35" value="&lt;font color=&quot;#ff3333&quot; style=&quot;font-size: 11px;&quot;&gt;&lt;b&gt;8080&lt;/b&gt;&lt;/font&gt;" style="text;strokeColor=none;align=center;fillColor=none;html=1;verticalAlign=middle;whiteSpace=wrap;rounded=0;" parent="1" vertex="1">
          <mxGeometry x="240" y="262.14" width="60" height="30" as="geometry" />
        </mxCell>
        <mxCell id="nKBGLDgv3Pfraqjz_WuU-36" value="&lt;font color=&quot;#ff3333&quot; style=&quot;font-size: 11px;&quot;&gt;&lt;b&gt;8100&lt;/b&gt;&lt;/font&gt;" style="text;strokeColor=none;align=center;fillColor=none;html=1;verticalAlign=middle;whiteSpace=wrap;rounded=0;" parent="1" vertex="1">
          <mxGeometry x="310" y="261.14" width="60" height="30" as="geometry" />
        </mxCell>
        <mxCell id="nKBGLDgv3Pfraqjz_WuU-37" value="&lt;font color=&quot;#ff3333&quot; style=&quot;font-size: 11px;&quot;&gt;&lt;b&gt;8000&lt;/b&gt;&lt;/font&gt;" style="text;strokeColor=none;align=center;fillColor=none;html=1;verticalAlign=middle;whiteSpace=wrap;rounded=0;" parent="1" vertex="1">
          <mxGeometry x="442.83" y="353.57" width="60" height="30" as="geometry" />
        </mxCell>
        <mxCell id="nKBGLDgv3Pfraqjz_WuU-38" value="&lt;font color=&quot;#ff3333&quot; style=&quot;font-size: 11px;&quot;&gt;&lt;b&gt;8600&lt;/b&gt;&lt;/font&gt;" style="text;strokeColor=none;align=center;fillColor=none;html=1;verticalAlign=middle;whiteSpace=wrap;rounded=0;" parent="1" vertex="1">
          <mxGeometry x="240" y="120" width="60" height="30" as="geometry" />
        </mxCell>
        <mxCell id="nKBGLDgv3Pfraqjz_WuU-39" value="&lt;font color=&quot;#ff3333&quot; style=&quot;font-size: 11px;&quot;&gt;&lt;b&gt;8601&lt;/b&gt;&lt;/font&gt;" style="text;strokeColor=none;align=center;fillColor=none;html=1;verticalAlign=middle;whiteSpace=wrap;rounded=0;" parent="1" vertex="1">
          <mxGeometry x="290" y="120" width="60" height="30" as="geometry" />
        </mxCell>
        <mxCell id="nKBGLDgv3Pfraqjz_WuU-40" value="&lt;font color=&quot;#ff3333&quot; style=&quot;font-size: 11px;&quot;&gt;&lt;b&gt;8200&lt;/b&gt;&lt;/font&gt;" style="text;strokeColor=none;align=center;fillColor=none;html=1;verticalAlign=middle;whiteSpace=wrap;rounded=0;" parent="1" vertex="1">
          <mxGeometry x="600" y="247" width="60" height="30" as="geometry" />
        </mxCell>
        <mxCell id="nKBGLDgv3Pfraqjz_WuU-41" value="&lt;font color=&quot;#ff3333&quot; style=&quot;font-size: 11px;&quot;&gt;&lt;b&gt;8400&lt;/b&gt;&lt;/font&gt;" style="text;strokeColor=none;align=center;fillColor=none;html=1;verticalAlign=middle;whiteSpace=wrap;rounded=0;" parent="1" vertex="1">
          <mxGeometry x="660" y="406.21" width="60" height="30" as="geometry" />
        </mxCell>
        <mxCell id="nKBGLDgv3Pfraqjz_WuU-42" value="&lt;font color=&quot;#ff3333&quot; style=&quot;font-size: 11px;&quot;&gt;&lt;b&gt;10600&lt;/b&gt;&lt;/font&gt;" style="text;strokeColor=none;align=center;fillColor=none;html=1;verticalAlign=middle;whiteSpace=wrap;rounded=0;" parent="1" vertex="1">
          <mxGeometry x="815.31" y="239" width="60" height="30" as="geometry" />
        </mxCell>
        <mxCell id="nKBGLDgv3Pfraqjz_WuU-43" value="&lt;font color=&quot;#ff3333&quot; style=&quot;font-size: 11px;&quot;&gt;&lt;b&gt;8700&lt;/b&gt;&lt;/font&gt;" style="text;strokeColor=none;align=center;fillColor=none;html=1;verticalAlign=middle;whiteSpace=wrap;rounded=0;" parent="1" vertex="1">
          <mxGeometry x="430" y="477.07" width="60" height="30" as="geometry" />
        </mxCell>
        <mxCell id="nKBGLDgv3Pfraqjz_WuU-44" value="&lt;font color=&quot;#ff3333&quot; style=&quot;font-size: 11px;&quot;&gt;&lt;b&gt;80&lt;/b&gt;&lt;/font&gt;" style="text;strokeColor=none;align=center;fillColor=none;html=1;verticalAlign=middle;whiteSpace=wrap;rounded=0;" parent="1" vertex="1">
          <mxGeometry x="430" y="579.07" width="60" height="30" as="geometry" />
        </mxCell>
        <mxCell id="nKBGLDgv3Pfraqjz_WuU-45" value="&lt;font style=&quot;font-size: 10px;&quot;&gt;发起登录请求&lt;/font&gt;" style="text;strokeColor=none;align=center;fillColor=none;html=1;verticalAlign=middle;whiteSpace=wrap;rounded=0;" parent="1" vertex="1">
          <mxGeometry x="180" y="274" width="66" height="30" as="geometry" />
        </mxCell>
        <mxCell id="nKBGLDgv3Pfraqjz_WuU-47" value="&lt;font style=&quot;font-size: 10px;&quot;&gt;返回登录地址&lt;/font&gt;" style="text;strokeColor=none;align=center;fillColor=none;html=1;verticalAlign=middle;whiteSpace=wrap;rounded=0;" parent="1" vertex="1">
          <mxGeometry x="192" y="314" width="68" height="30" as="geometry" />
        </mxCell>
        <mxCell id="nKBGLDgv3Pfraqjz_WuU-49" value="&lt;font style=&quot;font-size: 10px;&quot;&gt;登录/收发消息&lt;/font&gt;" style="text;strokeColor=none;align=center;fillColor=none;html=1;verticalAlign=middle;whiteSpace=wrap;rounded=0;" parent="1" vertex="1">
          <mxGeometry x="249" y="371" width="66" height="30" as="geometry" />
        </mxCell>
        <mxCell id="nKBGLDgv3Pfraqjz_WuU-50" value="" style="endArrow=classic;html=1;rounded=0;" parent="1" edge="1">
          <mxGeometry width="50" height="50" relative="1" as="geometry">
            <mxPoint x="140" y="280" as="sourcePoint" />
            <mxPoint x="270" y="170" as="targetPoint" />
          </mxGeometry>
        </mxCell>
        <mxCell id="nKBGLDgv3Pfraqjz_WuU-52" value="&lt;font style=&quot;font-size: 10px;&quot;&gt;传输文件&lt;/font&gt;" style="text;strokeColor=none;align=center;fillColor=none;html=1;verticalAlign=middle;whiteSpace=wrap;rounded=0;" parent="1" vertex="1">
          <mxGeometry x="166" y="193" width="66" height="30" as="geometry" />
        </mxCell>
        <mxCell id="nKBGLDgv3Pfraqjz_WuU-53" value="" style="endArrow=classic;html=1;rounded=0;dashed=1;entryX=0.167;entryY=1.098;entryDx=0;entryDy=0;entryPerimeter=0;" parent="1" target="nKBGLDgv3Pfraqjz_WuU-43" edge="1">
          <mxGeometry width="50" height="50" relative="1" as="geometry">
            <mxPoint x="120" y="370" as="sourcePoint" />
            <mxPoint x="410" y="520" as="targetPoint" />
          </mxGeometry>
        </mxCell>
        <mxCell id="nKBGLDgv3Pfraqjz_WuU-54" value="&lt;font style=&quot;font-size: 10px;&quot;&gt;登录管理员后台&lt;/font&gt;" style="text;strokeColor=none;align=center;fillColor=none;html=1;verticalAlign=middle;whiteSpace=wrap;rounded=0;" parent="1" vertex="1">
          <mxGeometry x="249" y="606.0699999999999" width="73.84" height="30" as="geometry" />
        </mxCell>
        <mxCell id="nKBGLDgv3Pfraqjz_WuU-55" value="" style="endArrow=classic;html=1;rounded=0;dashed=1;entryX=0.194;entryY=1.268;entryDx=0;entryDy=0;entryPerimeter=0;" parent="1" target="nKBGLDgv3Pfraqjz_WuU-44" edge="1">
          <mxGeometry width="50" height="50" relative="1" as="geometry">
            <mxPoint x="170" y="590" as="sourcePoint" />
            <mxPoint x="410" y="620" as="targetPoint" />
          </mxGeometry>
        </mxCell>
        <mxCell id="nKBGLDgv3Pfraqjz_WuU-56" value="&lt;font style=&quot;font-size: 10px;&quot;&gt;图片传输&lt;/font&gt;" style="text;strokeColor=none;align=center;fillColor=none;html=1;verticalAlign=middle;whiteSpace=wrap;rounded=0;" parent="1" vertex="1">
          <mxGeometry x="231" y="418" width="66" height="30" as="geometry" />
        </mxCell>
        <mxCell id="nKBGLDgv3Pfraqjz_WuU-58" value="" style="endArrow=classic;html=1;rounded=0;dashed=1;" parent="1" edge="1">
          <mxGeometry width="50" height="50" relative="1" as="geometry">
            <mxPoint x="540" y="620" as="sourcePoint" />
            <mxPoint x="970" y="480" as="targetPoint" />
          </mxGeometry>
        </mxCell>
        <mxCell id="nKBGLDgv3Pfraqjz_WuU-59" value="&lt;font style=&quot;font-size: 10px;&quot;&gt;直接操作数据库&lt;/font&gt;" style="text;strokeColor=none;align=center;fillColor=none;html=1;verticalAlign=middle;whiteSpace=wrap;rounded=0;" parent="1" vertex="1">
          <mxGeometry x="701.78" y="560.9999999999999" width="73.84" height="30" as="geometry" />
        </mxCell>
        <mxCell id="nKBGLDgv3Pfraqjz_WuU-60" value="" style="endArrow=classic;startArrow=classic;html=1;rounded=0;" parent="1" edge="1">
          <mxGeometry width="50" height="50" relative="1" as="geometry">
            <mxPoint x="330" y="170" as="sourcePoint" />
            <mxPoint x="450" y="200" as="targetPoint" />
          </mxGeometry>
        </mxCell>
        <mxCell id="nKBGLDgv3Pfraqjz_WuU-61" value="&lt;font style=&quot;font-size: 10px;&quot;&gt;请求文件传输任务&lt;/font&gt;" style="text;strokeColor=none;align=center;fillColor=none;html=1;verticalAlign=middle;whiteSpace=wrap;rounded=0;" parent="1" vertex="1">
          <mxGeometry x="350" y="156.71" width="100" height="30" as="geometry" />
        </mxCell>
        <mxCell id="nKBGLDgv3Pfraqjz_WuU-64" value="" style="endArrow=classic;startArrow=classic;html=1;rounded=0;entryX=1;entryY=0.25;entryDx=0;entryDy=0;" parent="1" target="nKBGLDgv3Pfraqjz_WuU-15" edge="1">
          <mxGeometry width="50" height="50" relative="1" as="geometry">
            <mxPoint x="400" y="420" as="sourcePoint" />
            <mxPoint x="210" y="334.64" as="targetPoint" />
          </mxGeometry>
        </mxCell>
        <mxCell id="nKBGLDgv3Pfraqjz_WuU-65" value="" style="endArrow=classic;html=1;rounded=0;entryX=0.384;entryY=1.21;entryDx=0;entryDy=0;entryPerimeter=0;" parent="1" target="nKBGLDgv3Pfraqjz_WuU-36" edge="1">
          <mxGeometry width="50" height="50" relative="1" as="geometry">
            <mxPoint x="440" y="230" as="sourcePoint" />
            <mxPoint x="330" y="310" as="targetPoint" />
          </mxGeometry>
        </mxCell>
        <mxCell id="nKBGLDgv3Pfraqjz_WuU-66" value="" style="endArrow=classic;html=1;rounded=0;exitX=0;exitY=1;exitDx=0;exitDy=0;" parent="1" source="nKBGLDgv3Pfraqjz_WuU-37" edge="1">
          <mxGeometry width="50" height="50" relative="1" as="geometry">
            <mxPoint x="365.32" y="370.35" as="sourcePoint" />
            <mxPoint x="335.32" y="330.35" as="targetPoint" />
          </mxGeometry>
        </mxCell>
        <mxCell id="nKBGLDgv3Pfraqjz_WuU-67" value="&lt;font style=&quot;font-size: 10px;&quot;&gt;上报负载状态&lt;/font&gt;" style="text;strokeColor=none;align=center;fillColor=none;html=1;verticalAlign=middle;whiteSpace=wrap;rounded=0;" parent="1" vertex="1">
          <mxGeometry x="330" y="336.71000000000004" width="100" height="30" as="geometry" />
        </mxCell>
        <mxCell id="nKBGLDgv3Pfraqjz_WuU-69" value="&lt;font style=&quot;font-size: 10px;&quot;&gt;转发消息&lt;/font&gt;" style="text;strokeColor=none;align=center;fillColor=none;html=1;verticalAlign=middle;whiteSpace=wrap;rounded=0;" parent="1" vertex="1">
          <mxGeometry x="510" y="241.14000000000004" width="100" height="30" as="geometry" />
        </mxCell>
        <mxCell id="nKBGLDgv3Pfraqjz_WuU-70" value="" style="endArrow=classic;startArrow=classic;html=1;rounded=0;entryX=0.095;entryY=1.003;entryDx=0;entryDy=0;entryPerimeter=0;" parent="1" target="nKBGLDgv3Pfraqjz_WuU-37" edge="1">
          <mxGeometry width="50" height="50" relative="1" as="geometry">
            <mxPoint x="340" y="190" as="sourcePoint" />
            <mxPoint x="570" y="290" as="targetPoint" />
          </mxGeometry>
        </mxCell>
        <mxCell id="nKBGLDgv3Pfraqjz_WuU-71" value="&lt;font color=&quot;#ff3333&quot; style=&quot;font-size: 11px;&quot;&gt;&lt;b&gt;8000&lt;/b&gt;&lt;/font&gt;" style="text;strokeColor=none;align=center;fillColor=none;html=1;verticalAlign=middle;whiteSpace=wrap;rounded=0;" parent="1" vertex="1">
          <mxGeometry x="439.75" y="166" width="60" height="30" as="geometry" />
        </mxCell>
        <mxCell id="nKBGLDgv3Pfraqjz_WuU-72" value="" style="endArrow=classic;startArrow=classic;html=1;rounded=0;" parent="1" edge="1">
          <mxGeometry width="50" height="50" relative="1" as="geometry">
            <mxPoint x="510" y="410" as="sourcePoint" />
            <mxPoint x="600" y="330" as="targetPoint" />
          </mxGeometry>
        </mxCell>
        <mxCell id="nKBGLDgv3Pfraqjz_WuU-73" value="&lt;font style=&quot;font-size: 10px;&quot;&gt;上报负载状态&lt;/font&gt;" style="text;strokeColor=none;align=center;fillColor=none;html=1;verticalAlign=middle;whiteSpace=wrap;rounded=0;" parent="1" vertex="1">
          <mxGeometry x="347" y="250.71000000000004" width="100" height="30" as="geometry" />
        </mxCell>
        <mxCell id="nKBGLDgv3Pfraqjz_WuU-74" value="" style="endArrow=classic;startArrow=classic;html=1;rounded=0;" parent="1" edge="1">
          <mxGeometry width="50" height="50" relative="1" as="geometry">
            <mxPoint x="520" y="230" as="sourcePoint" />
            <mxPoint x="590" y="290" as="targetPoint" />
          </mxGeometry>
        </mxCell>
        <mxCell id="nKBGLDgv3Pfraqjz_WuU-75" value="&lt;font style=&quot;font-size: 10px;&quot;&gt;转发消息&lt;/font&gt;" style="text;strokeColor=none;align=center;fillColor=none;html=1;verticalAlign=middle;whiteSpace=wrap;rounded=0;" parent="1" vertex="1">
          <mxGeometry x="508.20000000000005" y="349.21000000000004" width="100" height="30" as="geometry" />
        </mxCell>
        <mxCell id="nKBGLDgv3Pfraqjz_WuU-76" value="" style="endArrow=classic;startArrow=classic;html=1;rounded=0;" parent="1" edge="1">
          <mxGeometry width="50" height="50" relative="1" as="geometry">
            <mxPoint x="520" y="420" as="sourcePoint" />
            <mxPoint x="820" y="320" as="targetPoint" />
          </mxGeometry>
        </mxCell>
        <mxCell id="nKBGLDgv3Pfraqjz_WuU-77" value="&lt;font style=&quot;font-size: 10px;&quot;&gt;数据库&lt;/font&gt;" style="text;strokeColor=none;align=center;fillColor=none;html=1;verticalAlign=middle;whiteSpace=wrap;rounded=0;" parent="1" vertex="1">
          <mxGeometry x="595" y="210.00000000000003" width="100" height="30" as="geometry" />
        </mxCell>
        <mxCell id="nKBGLDgv3Pfraqjz_WuU-78" value="" style="endArrow=classic;startArrow=classic;html=1;rounded=0;" parent="1" edge="1">
          <mxGeometry width="50" height="50" relative="1" as="geometry">
            <mxPoint x="520" y="210" as="sourcePoint" />
            <mxPoint x="815.57" y="284.82" as="targetPoint" />
          </mxGeometry>
        </mxCell>
        <mxCell id="nKBGLDgv3Pfraqjz_WuU-79" value="&lt;font style=&quot;font-size: 10px;&quot;&gt;数据库&lt;/font&gt;" style="text;strokeColor=none;align=center;fillColor=none;html=1;verticalAlign=middle;whiteSpace=wrap;rounded=0;" parent="1" vertex="1">
          <mxGeometry x="568.2" y="389.21000000000004" width="100" height="30" as="geometry" />
        </mxCell>
        <mxCell id="nKBGLDgv3Pfraqjz_WuU-80" value="" style="endArrow=classic;startArrow=classic;html=1;rounded=0;entryX=0.787;entryY=-0.231;entryDx=0;entryDy=0;entryPerimeter=0;" parent="1" target="nKBGLDgv3Pfraqjz_WuU-41" edge="1">
          <mxGeometry width="50" height="50" relative="1" as="geometry">
            <mxPoint x="660" y="350" as="sourcePoint" />
            <mxPoint x="700" y="400" as="targetPoint" />
          </mxGeometry>
        </mxCell>
        <mxCell id="nKBGLDgv3Pfraqjz_WuU-81" value="" style="endArrow=classic;startArrow=classic;html=1;rounded=0;" parent="1" edge="1">
          <mxGeometry width="50" height="50" relative="1" as="geometry">
            <mxPoint x="870" y="350" as="sourcePoint" />
            <mxPoint x="970" y="430" as="targetPoint" />
          </mxGeometry>
        </mxCell>
        <mxCell id="nKBGLDgv3Pfraqjz_WuU-82" value="" style="endArrow=classic;startArrow=classic;html=1;rounded=0;entryX=0;entryY=0;entryDx=0;entryDy=0;" parent="1" edge="1">
          <mxGeometry width="50" height="50" relative="1" as="geometry">
            <mxPoint x="897" y="269" as="sourcePoint" />
            <mxPoint x="968.7600000000002" y="223.71000000000004" as="targetPoint" />
          </mxGeometry>
        </mxCell>
        <mxCell id="ZhcDjXCoQQxusMEyCw6L-1" value="" style="shape=image;verticalLabelPosition=bottom;labelBackgroundColor=default;verticalAlign=top;aspect=fixed;imageAspect=0;image=data:image/png,iVBORw0KGgoAAAANSUhEUgAAAEMAAABcCAYAAAA1Sgg9AAAAAXNSR0IArs4c6QAAAARnQU1BAACxjwv8YQUAAAAJcEhZcwAADsMAAA7DAcdvqGQAABL1SURBVHhe7ZxZkFzXWce/3vfZF412aaTRGpUiyRZesMmCF0jixCEOSaUCoQqKoqCo4iFVPFO8wiNQxVKpCjYFhDIUIQE7cWyTzUZGUiRL1mppNJJG0iw9va/D9zvdV7pz5/ZM93SPFqJ/6Uz33Ok+95z/+fZzrjzzCmkR1WpVCoWCBAIB8fv99avNg1tWKhVJJpMSj8clFArV/9IarHEEg0Hx+Xz1q62BcRSLRdOHt37tIRQPybDhIRk2PCTDhodk2PCQDBvuumut6t0qestCqSyT00mRYETmfQEpVUWKlXnx6Gf8ukR+r0dCPo/EAl6J+D0S1Pc+j0f08m102rXeVTK4U65SlVvZskykSnL0alIuZDwykZ2Xm7mKTGkD3SGfDEZ8sibmkx29QdnVF5RNXQEZjvoNMb46Iw8sGVW9zZVUWd67kZcfTuTk6M2CjKdLUlBpKKtU6ItpTFMFQKWgJh1BbUNRrxISksNrwvLE2oghJqoS88CRgUpkilU5MVWUN8az8t9KxIVkSVKqFyXVGdRmKUAOpEQDHhlWaXlcyfjYhqgcGg5Jf8grpWLBRLD3PRllnelMvmKk4Vvn0vKjqzm5paqAfVgJ0I64SsTBoZD8ypaY/NL6sPT5qxKPhMR/P5NBp9M68bcnsvLNU3PyzmResuV5YzfaBYZ1Q9wnX9qRkE9tDMr6noiEA83bLjvsZKyKa2W+mWJFvj+ekW+8Pyc/vd45IgBeZzxdkW+enpN/OpeVy6nKsurWDDz5fL7lbhAmGPV6vabZQWd5nfhb1wry96fT8u5kQebUZjS6CYYS7+C33KY2079+oaQ/mKTbd2u2RGRzwi9f3ZWQF7ZGpT/sNddbgTUXbI5Hxb3ROBuCDsrlsunATgYdQcTZ2aL81Yk5eXOiIDOF6qJVY8A1/ffIgBrFDYmADEX8EgvWpkIfM/mq8TaT2Yqklcw87LgAlTk8HJSv7oyrDYkYL9MKIdZcUPeO2oyKzno8XZZ/PpMy6jGp8YRzDrjNkDIxFPHIIwN+ObwuLmP9YRkI+yRSnwhkJJWACSXjf9X4/uhqXs7MFDVGcfc+vepVnlYi/vCjvbKrPyQBI2LNYdUMaFbdBAbzT346Jedmy8Z1OhHVoGlXX0BXMiG74yXZPNAlCfUGXmXJmgLfYlgQiTeCkH85m5bXLmcko0Q5u2Xu62J++Yqqy+/u65F4sHnPsmoG9FqmLP+jXmNcg6uyg2Mm2lNfwd/f36uxQkRGNJiCHFYS28GkaFbAhQoMRn1yeCQiX9vbJZ/bFpc1+ju2wg7IQR2xT8QweaK4FaBjZCAF52ZLrp4DIpjYwaGwvDTWJU+ui2q47TfRJX9bCuQjPRqe7xsIy5d3dskvrouYUN0JbIq5/7X8kgZ7KXSMjGShIienCmZATjHGW6yN++UzozFd5bDRcSSgWfDZWNAr+wZD8oWxhOxRu0DiZgf26oYa23dVMq+rhPJ7q+gIGdwWq4+RS+mqOKG2UZ7ZFJVH10TU/a0sUqxJl1f2D4aN1xiOLBw6YyiqLbuQLGrcgb2qXW8FnSFDdeKGrga2ouhYEdRjc3dAntScYlj1HbFvB3GVkIPDYSMdYe3b3hu3vpapaEJIAtg6G22TwQByaiNYDdJw5xgwkB9V8d6habiJAdrjwhjWDRpoPa3JGgbZrm7YKQwp7h0JXbgsy6NtMtRUmqDoolrxjMqmfQAMlAHvViKGjBdokwkFPfSqQT2kxhhPY9U2APemJDCp0oH9aDVq6JhkEGAxEDtQiRH1/9Qf0Pf2qaghrL51WPvdov2q4C3CjBrzKY1PWqOiQzYDO4E7U04WQLXCDBpP0gGhWABs0baeoAQcXgWwOEZKW2SjfTXRGxJjpPXmTndGVNmljHRpRLh8RNEaCLzIa9wMMuE8hLSK9snQBgkEWg4tMdIQVjmmbtlpeJSEuCZ2bgYZdSUKbZWOjqgJAkGN0+3mDJaBd5oO+mukeoykVRUBbZPBeNDbmMqtU30hCZFdySotB8hPF90njT1BIluFl+yz1UaWR+ZaKpX0fUGq5ZKqwrwLGZqK58sylc5LvpBf8H17H/a+m23ZfEEm00XXsFu9uQREs9FC0fW79sb9rXF4rWpVqw0g/rzH1WEknXEEySOB2PUskdid71rfM+pTf99K0y+pB/PIxbnSouwYUBchjScG8bh83964PzDjoCbRaqOGQUe8hvT3eDggQ7HAouSJgV5TIq5k56XqU7L8C/tgALza+26mic8vMyVRMiquOQhZbn80KMGgjsnl+/Zmn0vbNsO4T12FUc0/CL3tQIIJgE5PF2U6p67XTcFXgKSG3EdvFuWGCf8X9sl6rIn6TbC3cDTLo30DqnfEWBFlmpDbMYJsad7snlEXxZi2CybPztybV7Iym19YX0VLazVVvyQ0obNUoFm0TQZAOshIN8QXqwrRKbrNThohOxtLKwXfJNKlDHjiVsEUdOy9QcZIrEZGaCXepP7aFrgtm8Lbe9V+6IrYwdwzKh3UL49M5k1NcyV0oGGk5e9PF+RNJfa6JmP2fhgDlbOtKqFU23nfKjpCBuhX8fzIQMgkT85OkYbzsyV59XxajqnKuBWKl0NZ3d+Eqscrp1Py7vW8qZTbgedgDIfWREwutJIMuWNkoCokTo+vDRsbYh8Kw8bqU5L7hzMpsws/V2xuF4yPkPecUiP81ydmjbphlJ0g0Nqu939sJGwM+krQMTIAqnJgKKykqMtyrAyTwgv88GpO/uZEUl49l5ELc+Va8bj2kUVAosbV3vxgPGu+850PszLpsnHNndhNe1yJwJA77Vaz6Oi+CYO/rIN/5YM5eVnF2VS+HL3DEZtIa2NeeWqNX57c2CXbesPG+jMJpoEaQRIGF5XgKAMG023PhM93acj5hBLxRwf7ZK+q6n2xiQSw8B+okfuzIzPytlEH97wErxfQhn7v7g/Ktu6g9OrqAipnE2ogj6rXuJIum3TcSaoFUvlHhsPytT3d8vyWmKYFrRWRVpUMVi6rcfjrlzKq40l1gzUX6AYG7dPJoFK3N54VfJp4AnUgUHNKgwWoWxv3yW8qEV/e0WXKgNiuVrBqO2qACRGJPjYSkV/bnpD9QyF1c/U/OsAcyV8IxjCSSBGNYi5qgro0IgLXuV6JeHFrVJ7ZGFWpap0IJzpOBmBQQ2pMP6mD/ML2uOwfDBmbsEK7tgB0QbFonRLxwmhMPj8aUXfuX7HRtGNVyAAs0ojag2c3xeS3VIwfGQ5Jn65eK8bNCb7KUUhO/700Fpev7Exo1KvRZidYVnTcZjiB7qMC7Lb9x8WMvHYpKx9ontJI/BsBIrpVup5TI/mcEozR7Al5pNLJA27JZLJlMloFEy+oDbiSLsmxqaIcuVmWk7NVTe8r6ilqARmG0rKzTJxCL56CXbNB9TKjXV45OKBtMCibNNzuUmL4XKvJ2FLwZLPZlslAmGDUKpA0A+TPlOqUlEm95UUNrY9PpuVy1iMaQpiN67TmMAACkALUamt3QHZozrMl4VOD6ZGE2gu2ICwwDnMEaYWkWHMxfay2mrgBUorlsnx4Y1aynrDkxK9EVCRTrJOhE+aIIw13yWY1W5NOWONAxDuiJveCDGs1ZnksKxaXYP2xLEgCrLK1zix4ozXvNBmr5k2aAZNksug+zQRf2nAO1jX9d9dwT8m433DPyEAh8DJ4EBI8t4Zb1n/G+N4N3FWbYW6kP7ANPG9yYyYpgXBUPP6ATr7+dwWqQc4SUB1ig4qgigiTyNZuQx5IA8oNWOnpfMWk5ZyfuJoqysXpjKQqPkmVPSYXuf3wjc4LArqD6kkiXlMnodpNnXWNvuJdzI4ZpD4oZCDiVLSocVCpOp/UNluWy6mSedAmp+JQC7hqzRpKzaiSydaMKsRw6IWznlt7Aqaitp3Xbr9EpCyxyH36iAUEsHmUKlRNxElR5ifX8+ZIIo9XkM4vlY02Ap5FOTHZKsHYnv6gqWzt6vbK9v6IDMQ4EFNTpVawamSwujld6quZkrx7vSDfG8+YShUnAZl8yzdqAKYLOWSve/sC8sub4vLY2oiMaaSasLYVax9dFqtCBkbxWrpsniv57ocZeUdJoOyHHYCk1QCEUBSiQoakfGJjVD6xISYbu2pS0gw6SobP5zf7GWwh/ueljKlXnp0tmUyVk3+rxMMCMG/KfdQ4eI7tV7fE5cBwSO3M8senOkaGR4nIVb1y7GZe/vV8xhyiv5KuGJvQDBinKfvp6vJqXKde49vEGEgUXqhZFWPiJHhsF3x6a1yeXBcxRaal1KYjZOTyBZlVl3hsqiwvn56TH9fPbC/HA2k5RpD4gcdLMIa9EZ8k6okZpKBaSBZZLF6Hxy0oDXK9pMNdbsQxbMlAUF7clpBnN8cMIVbl3YmOkHErlZPvjhfk5TMZ9RhFKdRXcCkgzmvVPe4bDMpH1PCNBMuyvjcmvdHgncBKP4dEsEcLAWxH4opPThXNJhQ7c1TLl7oVk6YvaqQvjSXk89sTsjGhKu2iMwvIyOVyLZHBQDlw+h01kt++lJfjU0sPjkFRiNnW5ZMDSsKe/oB5lKo3qBFmpSCJaFhCwYCZgFk73mhn9MgyadfmGCNPJl3XgO3UdEmO3CzKSX2dzNWeUHJbTrpB+ohNqJM+vylS29xy8IEssLjm4EqpVK+oNAGeGWNr79VzafnHs7UdMTZ23MAiECix94ruHh4Oy6gGSQMaUUZ0kNVqRdKptMRiUbMqjWB61x+Qw0LUjkNX5JRKyutqrNmKmNVrnPBzGwlhx9aETz43GjPPq5i9YL1GmQAiaBxhwhk0rSaoAKH0G5ez8ncnk3KKx6RciIB4pGFEQ+cnlISPb4iaLUfCaFaKv3NLxHOl/80MRhX7dHpaY5kPU/LW1YKcUfVht99tMtipMY1av7SzpjKE89b254psBqEze55//t6MHNeokjDaDVS/N+hK/PbeHnlOjRcVcmdFvF0yAIOuqO+ezuTkzWsl+caplByZrI2rESEcV/jjR/vkqfVRk/cgNXYysFfLAldJWP3tixk5O1MyGaYbODXz8Q0R+fqhPvmUujakwVqBToNe6ZoNq6d1cl8/1C9f3JEw25Vu2xHEPFczZfnbE0l5Tw0xOZMTy5KBnhJZQsSPr+XMM+xuzPN0EZu/7Hl+cmPMnBlv5M46CarofXrvA2qTfmN3t7ENbDk6F4Exkxkf1UX91tmULqp6QMeqLkkGdoJcg2fYORdx1XFaBuh8jbfgfy/4dV2ZRzUC7FGd5PrdAsaQzaXd/SGzpcm+CjbLKSDMh9jlrYm8fH88Z9IF5mPNaUkyMFQ81UOucS5ZMkGPHdyLZOmghr6/t79HDabqYohD83cf3JNYZc9A2DzHhromAiqZjsFgIXEEP7iSleMaObOfYy4qGpIBizD3X+o9EC0MqBOc39o3EJLf2dtt/n8L8oN7DaRhTIOYz2r0iSeLuqgqa8qDhf92ISOX0xysrV1vOHrOe78/VZDXL2dMkIUBsgOdHNMg5ou6CpyjiukquNitewKT2usivTBae9IRI+scGiE+Ee1bKiGW7XAlA6KI9n6iBvNnGmoTGtfJM6DjvpBHntI44mOaNhNctfsgXidBwkfC9gtq0D8zGjcpvdPDYAIoNn1PJX9CgzhMgCsZfPBnqhpW8mWPROiS7b8DgwHz1DL1yVarS3cD5CEkgZ/eGjNZrHUqyA6Cxvc1rH/7Wu0/MFj0CeZ9Q6WCMPfcbLF20QbMAkHVZ7dEZIfLQbb7CRAyEg/I85vjslfVxenhsIszhXl5Y6Iol1KVxREo6vPa5bT8xbFZU7pzPqeKPj67MSIvbA7Juu6wBP0ciL9tkBW8se5qfw/u9EXkl06nJRqNmryAz9n7qb1f3JclhPxtXsdG9BjQRM/rpSB85/P279/Klc1xiH+/kJYbmtzZwVpy1vwP1BsuIAMrO6uJ2F8en5VXTs8tOoULCKT2aua5RhOusF/dqPbG7a1hOD/vvGb9zkTK5ZKpanu1ufXhdg3wO2DoFSvj1Nnfvl5/tUChiP+0gOh5WtXBCdT+RU3iFpBB5ndKPcifvjOlxrP2gL8brJs+aHCfTQ2UC2/bDD6IOz2vdoJTNo1O6AH+8iC2pcDejjefz4tpubzMZvIyPlcwqbDDVPy/BzURL6V+qwVoPvTvwVWFlQJLcoeMgF/iIb9s7gnJoCl+1D708wIKPrenjCTwoNtOjev5TzvIAnE7XF/Q3K51qumPRdfcmv5YdM2t6Y9F11wa8cfOXkfZjzd4FPZB2AyiIs2zowtR+50iqnFnnjsixM3v9LYU9EP6wbLGGrhWex/No/E4FoDZ8lHr1YL+7tEL5vx61CvPbHG4VsAveBUeh2Dvwq28N68DINjxmx21lex+U/arSmpuTmKxmAZNjQvCS4FxFCjZ6TiIVVaE+ar4qyUZTIQXk9EMWI1Gu/DNgFu2WwMF1jioX3biSMLPmZlcGg/JsOEhGbch8n9T+0pso1Gd6wAAAABJRU5ErkJggg==;" parent="1" vertex="1">
          <mxGeometry x="112.06" y="560.14" width="37.87" height="52" as="geometry" />
        </mxCell>
        <mxCell id="ZhcDjXCoQQxusMEyCw6L-2" value="&lt;font style=&quot;font-size: 11px;&quot;&gt;系统管理员&lt;br&gt;（Browser浏览器）&lt;/font&gt;" style="text;strokeColor=none;align=center;fillColor=none;html=1;verticalAlign=middle;whiteSpace=wrap;rounded=0;" parent="1" vertex="1">
          <mxGeometry x="82" y="614.64" width="100" height="30" as="geometry" />
        </mxCell>
        <mxCell id="ecR3kllsCtoBISU_EvyA-1" value="" style="endArrow=none;dashed=1;html=1;rounded=0;" parent="1" edge="1">
          <mxGeometry width="50" height="50" relative="1" as="geometry">
            <mxPoint x="79.93" y="80" as="sourcePoint" />
            <mxPoint x="129.93" y="80" as="targetPoint" />
          </mxGeometry>
        </mxCell>
        <mxCell id="ecR3kllsCtoBISU_EvyA-2" value="" style="endArrow=none;html=1;rounded=0;" parent="1" edge="1">
          <mxGeometry width="50" height="50" relative="1" as="geometry">
            <mxPoint x="79.86000000000001" y="110" as="sourcePoint" />
            <mxPoint x="129.93" y="110" as="targetPoint" />
          </mxGeometry>
        </mxCell>
        <mxCell id="ecR3kllsCtoBISU_EvyA-3" value="&lt;font style=&quot;font-size: 10px;&quot;&gt;http请求（虚线）&lt;/font&gt;" style="text;strokeColor=none;align=center;fillColor=none;html=1;verticalAlign=middle;whiteSpace=wrap;rounded=0;fontColor=#FF3333;" parent="1" vertex="1">
          <mxGeometry x="127" y="64" width="104" height="30" as="geometry" />
        </mxCell>
        <mxCell id="ecR3kllsCtoBISU_EvyA-4" value="&lt;font style=&quot;font-size: 10px;&quot;&gt;tcp长连接（实线）&lt;/font&gt;" style="text;strokeColor=none;align=center;fillColor=none;html=1;verticalAlign=middle;whiteSpace=wrap;rounded=0;fontColor=#FF3333;" parent="1" vertex="1">
          <mxGeometry x="127" y="93" width="114" height="30" as="geometry" />
        </mxCell>
      </root>
    </mxGraphModel>
  </diagram>
</mxfile>
